<svg width="66" height="50" viewBox="0 0 66 50" fill="none" xmlns="http://www.w3.org/2000/svg">
<path d="M41.576 17.9971L41.2028 34.4592C41.2028 34.4592 39.1236 37 31.0732 37C23.0762 37 21.85 34.1416 21.85 34.1416L21.5301 19.0029C21.1569 19.0558 21.9566 19.0029 21.5301 19.0029C17.2118 19.0029 13 15.6152 13 11.3276C13 7.04006 16.4654 3.59943 20.7838 3.59943C21.85 3.59943 22.9696 3.86409 23.9292 4.23462C25.2088 1.69385 27.9278 0 30.9666 0C33.8455 0 36.2446 1.64092 37.6308 3.96996C38.9103 3.01717 40.4564 2.54077 42.2157 2.54077C46.5341 2.54077 49.9995 5.9814 49.9995 10.269C50.0528 14.5565 45.8944 17.9971 41.576 17.9971C41.8959 17.9971 41.3094 17.9971 41.576 17.9971Z" fill="white"/>
<path d="M11.0119 22.6124C11.0119 22.72 10.9581 22.72 10.9043 22.72C10.8505 22.72 10.7967 22.6662 10.7967 22.6124V17.1781C10.7967 16.5324 10.7429 16.0482 10.6352 15.6715C10.4738 15.0259 10.151 14.4878 9.61294 14.1112C9.1287 13.7345 8.53685 13.5193 7.83738 13.5193C7.03031 13.5193 6.33084 13.8422 5.79279 14.4878C6.27704 15.0797 6.49226 15.9405 6.49226 17.0166V22.6124C6.49226 22.72 6.43845 22.72 6.38465 22.72C6.33084 22.72 6.27704 22.6662 6.27704 22.6124V17.3395C6.27704 16.102 6.06182 15.1873 5.68518 14.6492C5.25474 15.1873 5.03952 15.9944 5.03952 17.1243V22.5586C5.03952 22.6662 4.98572 22.6662 4.93191 22.6662C4.87811 22.6662 4.8243 22.6124 4.8243 22.5586V17.1781C4.8243 16.0482 5.03952 15.1873 5.52377 14.4878C4.93191 13.8422 4.23245 13.5193 3.42537 13.5193C2.40308 13.5193 1.64981 13.896 1.16557 14.6492C0.735127 15.2949 0.519907 16.102 0.519907 17.1781V22.6124C0.519907 22.72 0.466102 22.72 0.412297 22.72C0.304687 22.72 0.304688 22.6662 0.304688 22.6124V17.3395C0.304688 16.6938 0.358492 16.2096 0.412297 15.8329C0.573712 15.0797 0.896542 14.4878 1.43459 14.0574C1.97264 13.5731 2.67211 13.3579 3.37157 13.3579C4.23245 13.3579 4.98572 13.6807 5.63138 14.3802C6.22323 13.7345 6.9765 13.3579 7.89119 13.3579C8.64446 13.3579 9.29012 13.5731 9.82817 14.0574C10.3662 14.5416 10.7429 15.1335 10.8505 15.8329C10.9043 16.2096 10.9581 16.6938 10.9581 17.3395V22.6124H11.0119Z" fill="black"/>
<path fill-rule="evenodd" clip-rule="evenodd" d="M5.13604 14.5283C4.63551 14.053 4.06854 13.8251 3.42569 13.8251C2.4899 13.8251 1.84181 14.1626 1.42242 14.8149L1.41968 14.8192L1.41964 14.8192C1.0317 15.4011 0.825203 16.1441 0.825203 17.1788V22.6131C0.825203 22.7072 0.801722 22.8638 0.655771 22.9611C0.546155 23.0341 0.418555 23.0261 0.412808 23.0258L0.412608 23.0257C0.318521 23.0257 0.161986 23.0023 0.0646841 22.8563C0.0229489 22.7937 0.00954072 22.7317 0.00436993 22.693C-0.000127599 22.6592 -2.82356e-05 22.6272 8.15777e-06 22.6155C1.09209e-05 22.6146 1.33205e-05 22.6138 1.33205e-05 22.6131V17.3403C1.33205e-05 16.6764 0.0554567 16.1772 0.110688 15.7906L0.112181 15.7801L0.114393 15.7698C0.286377 14.9672 0.636945 14.3088 1.23748 13.8255C1.84064 13.2861 2.61457 13.0537 3.37188 13.0537C4.22174 13.0537 4.9789 13.3429 5.63138 13.9487C6.23994 13.3839 6.99615 13.0537 7.8915 13.0537C8.70839 13.0537 9.43031 13.2895 10.0325 13.8315C10.6099 14.3511 11.0315 15.0028 11.1522 15.7873L11.1527 15.7906L11.1527 15.7906C11.2079 16.1772 11.2634 16.6764 11.2634 17.3403V22.3082H11.3172V22.6131C11.3172 22.7072 11.2937 22.8638 11.1477 22.9611C11.0381 23.0341 10.9105 23.0261 10.9048 23.0258L10.9046 23.0257C10.7785 23.0257 10.6779 22.9658 10.6149 22.9028C10.552 22.8398 10.492 22.7392 10.492 22.6131V17.1788C10.492 16.5472 10.439 16.0945 10.3423 15.7561L10.3409 15.7512L10.3397 15.7463C10.1925 15.1576 9.90516 14.6886 9.43836 14.3618L9.43207 14.3574L9.42601 14.3527C8.99597 14.0182 8.47018 13.8251 7.83769 13.8251C7.19866 13.8251 6.64081 14.0499 6.18651 14.5085C6.61982 15.1592 6.79755 16.0218 6.79755 17.0174V22.6131C6.79755 22.7072 6.77407 22.8638 6.62812 22.9611C6.5185 23.0341 6.3909 23.0261 6.38516 23.0258L6.38496 23.0257C6.25886 23.0257 6.15829 22.9658 6.09532 22.9028C6.03234 22.8398 5.97236 22.7392 5.97236 22.6131V17.3403C5.97236 16.4426 5.85579 15.7509 5.66493 15.2647C5.45864 15.7116 5.34482 16.3173 5.34482 17.125V22.5593C5.34482 22.6534 5.32134 22.81 5.17538 22.9073C5.11277 22.949 5.05082 22.9624 5.01204 22.9676C4.97831 22.9721 4.94627 22.972 4.93454 22.9719C4.93365 22.9719 4.93287 22.9719 4.93223 22.9719C4.80614 22.9719 4.70557 22.912 4.64259 22.849C4.57961 22.786 4.51963 22.6854 4.51963 22.5593V17.1788C4.51963 16.1165 4.70378 15.2527 5.13604 14.5283ZM6.18758 22.6129C6.18758 22.613 6.18758 22.6131 6.18758 22.6131H6.18758V22.6129ZM4.73485 22.5591C4.73485 22.5592 4.73484 22.5593 4.73484 22.5593H4.73485V22.5591ZM0.215233 22.6129V22.6131C0.215233 22.6139 0.215205 22.6139 0.215225 22.6131C0.215227 22.6131 0.21523 22.613 0.215233 22.6129Z" fill="black"/>
<path d="M22.3655 18.1474C22.3655 19.4926 21.8812 20.6225 20.9127 21.5909C20.9127 21.5371 20.9127 21.6986 20.9127 21.9676C20.9127 22.1828 20.9127 22.3442 20.9127 22.5056C20.9127 22.667 20.8589 22.7747 20.8051 22.7747C20.7513 22.7747 20.6975 22.7209 20.6975 22.5594C20.6975 22.4518 20.6975 22.3442 20.6975 22.129C20.6975 21.86 20.6975 21.7524 20.6975 21.8062C19.7828 22.6132 18.7067 22.9899 17.5768 22.9899C16.2317 22.9899 15.1018 22.5056 14.1333 21.5909C13.2186 20.6763 12.7344 19.4926 12.7344 18.2012C12.7344 16.8561 13.2186 15.7262 14.1333 14.8115C15.048 13.8968 16.2317 13.4126 17.523 13.4126C18.8681 13.4126 19.998 13.8968 20.9127 14.8115C21.8812 15.6724 22.3655 16.8023 22.3655 18.1474ZM22.1502 18.1474C22.1502 16.9099 21.7198 15.8338 20.8051 14.9191C19.8904 14.0045 18.8143 13.574 17.5768 13.574C16.2855 13.574 15.2094 14.0045 14.2947 14.9191C13.38 15.8338 12.9496 16.9099 12.9496 18.2012C12.9496 19.4926 13.38 20.5687 14.2947 21.4295C15.2094 22.3442 16.2855 22.7747 17.523 22.7747C18.7067 22.7747 19.729 22.3442 20.6437 21.5371V18.255C20.6437 18.1474 20.6975 18.0936 20.7513 18.0936C20.8051 18.0936 20.8589 18.1474 20.8589 18.255V21.3219C21.7198 20.3534 22.1502 19.3311 22.1502 18.1474Z" fill="black"/>
<path fill-rule="evenodd" clip-rule="evenodd" d="M21.1632 20.4241C21.6215 19.7149 21.8446 18.9722 21.8446 18.1472C21.8446 16.99 21.4458 15.9916 20.5888 15.1346C19.7317 14.2776 18.7334 13.8788 17.5761 13.8788C16.3631 13.8788 15.3654 14.2789 14.5097 15.1346C13.654 15.9903 13.2539 16.988 13.2539 18.201C13.2539 19.4158 13.6549 20.409 14.5031 21.2073L14.5064 21.2104L14.5097 21.2137C15.3667 22.0707 16.3651 22.4695 17.5223 22.4695C18.5792 22.4695 19.4996 22.1033 20.338 21.3972V18.2549C20.338 18.0659 20.4528 17.7885 20.7506 17.7885C21.0484 17.7885 21.1632 18.0659 21.1632 18.2549V20.4241ZM20.3918 22.4304C19.5372 23.0168 18.5751 23.2947 17.5761 23.2947C16.1479 23.2947 14.9444 22.7769 13.9232 21.8125L13.92 21.8095L13.917 21.8064C12.9444 20.8339 12.4287 19.5723 12.4287 18.201C12.4287 16.7741 12.9457 15.5669 13.917 14.5957C14.8895 13.6231 16.1511 13.1074 17.5223 13.1074C18.9462 13.1074 20.1512 13.6222 21.1214 14.5894C22.1547 15.5111 22.6698 16.7239 22.6698 18.1472C22.6698 19.5345 22.1811 20.7118 21.217 21.7153V22.5054C21.217 22.6165 21.199 22.7267 21.1587 22.8206C21.1389 22.8669 21.1081 22.9223 21.0596 22.9708C21.0115 23.0189 20.925 23.0795 20.8044 23.0795C20.6589 23.0795 20.538 22.9995 20.4689 22.8843C20.4085 22.7836 20.3918 22.6666 20.3918 22.5592V22.4304Z" fill="black"/>
<path d="M31.7812 21.322C31.7812 21.4296 31.6198 21.591 31.2431 21.8601C30.3284 22.5595 29.3061 22.9362 28.1762 22.9362C26.8849 22.9362 25.755 22.4519 24.8403 21.5372C23.9256 20.5687 23.4414 19.4388 23.4414 18.1475C23.4414 16.8024 23.9256 15.6725 24.8403 14.7578C25.755 13.8431 26.8849 13.3589 28.23 13.3589C29.629 13.3589 30.7589 13.8431 31.6198 14.7578C31.6736 14.8116 31.7274 14.9192 31.7812 14.973C31.7812 15.0268 31.7274 15.0268 31.6736 15.0806C31.6198 15.0806 31.6198 15.0268 31.566 15.0268C30.6513 14.1122 29.5214 13.6279 28.2839 13.6279C26.9925 13.6279 25.9164 14.0584 25.0556 14.973C24.1409 15.8877 23.7104 16.9638 23.7104 18.2013C23.7104 19.4927 24.1409 20.5688 25.0556 21.4834C25.9164 22.3981 26.9925 22.8286 28.2839 22.8286C28.8757 22.8286 29.5214 22.6671 30.1132 22.3981C30.6513 22.1829 31.1355 21.8063 31.6198 21.3758C31.6736 21.3758 31.6736 21.322 31.7274 21.322C31.7274 21.2144 31.7812 21.2682 31.7812 21.322Z" fill="black"/>
<path fill-rule="evenodd" clip-rule="evenodd" d="M31.8386 14.5459C30.9165 13.5676 29.7052 13.0537 28.2294 13.0537C26.8024 13.0537 25.5952 13.5707 24.624 14.542C23.6528 15.5132 23.1357 16.7204 23.1357 18.1473C23.1357 19.5235 23.6548 20.7267 24.6179 21.7465L24.6209 21.7496L24.624 21.7527C25.5939 22.7226 26.8006 23.241 28.1756 23.241C29.3771 23.241 30.4621 22.8394 31.4238 22.1052C31.6136 21.9694 31.7634 21.851 31.8684 21.746C31.9057 21.7087 31.9415 21.669 31.9728 21.6268H32.0317V21.5332C32.0609 21.4762 32.0855 21.4045 32.0855 21.3218C32.0855 21.2604 32.0709 21.2036 32.049 21.1562C32.0329 21.1213 31.9884 21.0377 31.89 20.9885C31.831 20.959 31.7391 20.9372 31.6387 20.974C31.5752 20.9973 31.531 21.0358 31.5014 21.0722L31.4165 21.1477C30.9373 21.5736 30.4858 21.9201 29.9993 22.1148L29.9927 22.1174L29.9863 22.1203C29.4256 22.3752 28.823 22.5234 28.2832 22.5234C27.0684 22.5234 26.0753 22.1224 25.277 21.2742L25.2738 21.2709L25.2705 21.2676C24.4148 20.4119 24.0147 19.4142 24.0147 18.2011C24.0147 17.0439 24.4135 16.0455 25.2705 15.1885L25.2738 15.1852L25.277 15.1819C26.0753 14.3337 27.0684 13.9327 28.2832 13.9327C29.4351 13.9327 30.4887 14.3814 31.3496 15.2423L31.4389 15.3316H31.4808C31.4819 15.3323 31.483 15.3329 31.484 15.3336C31.5093 15.3487 31.5389 15.3623 31.5728 15.3718C31.6066 15.3813 31.6403 15.3854 31.6729 15.3854H31.7992L31.8829 15.3018C31.886 15.3001 31.895 15.2945 31.916 15.2804C31.9351 15.2677 31.982 15.2356 32.0211 15.1797C32.0662 15.1153 32.0855 15.0428 32.0855 14.9728V14.8465L31.9972 14.7583C31.9972 14.7582 31.9939 14.7545 31.9868 14.7447C31.9777 14.7321 31.9677 14.7173 31.9535 14.6961L31.9522 14.6941C31.9397 14.6752 31.9233 14.6506 31.9061 14.627C31.8894 14.6041 31.8666 14.5744 31.8386 14.5459ZM32.0317 21.3242C32.0317 21.3233 32.0318 21.3225 32.0318 21.3218C32.032 21.3178 32.0317 21.3175 32.0317 21.3218V21.3242Z" fill="black"/>
<path d="M41.9504 18.1474C41.9504 19.4926 41.4662 20.6225 40.4977 21.5909C40.4977 21.5371 40.4977 21.6986 40.4977 21.9676C40.4977 22.1828 40.4977 22.3442 40.4977 22.5056C40.4977 22.667 40.4439 22.7747 40.3901 22.7747C40.3363 22.7747 40.2825 22.7209 40.2825 22.5594C40.2825 22.4518 40.2825 22.3442 40.2825 22.129C40.2825 21.86 40.2825 21.7524 40.2825 21.8062C39.3678 22.6132 38.2917 22.9899 37.1618 22.9899C35.8167 22.9899 34.6868 22.5056 33.7183 21.5909C32.8036 20.6763 32.3193 19.4926 32.3193 18.2012C32.3193 16.8561 32.8036 15.7262 33.7183 14.8115C34.6329 13.8968 35.8167 13.4126 37.108 13.4126C38.4531 13.4126 39.583 13.8968 40.4977 14.8115C41.52 15.6724 41.9504 16.8023 41.9504 18.1474ZM41.7352 18.1474C41.7352 16.9099 41.3048 15.8338 40.3901 14.9191C39.4754 14.0045 38.3993 13.574 37.1618 13.574C35.8705 13.574 34.7944 14.0045 33.8797 14.9191C32.965 15.8338 32.5346 16.9099 32.5346 18.2012C32.5346 19.4926 32.965 20.5687 33.8797 21.4295C34.7944 22.3442 35.8705 22.7747 37.108 22.7747C38.2917 22.7747 39.314 22.3442 40.2287 21.5371V18.255C40.2287 18.1474 40.2825 18.0936 40.3363 18.0936C40.3901 18.0936 40.4439 18.1474 40.4439 18.255V21.3219C41.3586 20.3534 41.7352 19.3311 41.7352 18.1474Z" fill="black"/>
<path fill-rule="evenodd" clip-rule="evenodd" d="M40.7482 20.4581C41.2273 19.7437 41.4295 18.9917 41.4295 18.1472C41.4295 16.99 41.0308 15.9916 40.1737 15.1346C39.3167 14.2776 38.3184 13.8788 37.1611 13.8788C35.9481 13.8788 34.9503 14.2789 34.0947 15.1346C33.239 15.9903 32.8389 16.988 32.8389 18.201C32.8389 19.4158 33.2398 20.409 34.088 21.2073L34.0914 21.2104L34.0947 21.2137C34.9517 22.0707 35.95 22.4695 37.1073 22.4695C38.1642 22.4695 39.0845 22.1033 39.923 21.3972V18.2549C39.923 18.0659 40.0378 17.7885 40.3356 17.7885C40.6334 17.7885 40.7482 18.0659 40.7482 18.2549V20.4581ZM39.9768 22.4304C39.1222 23.0168 38.16 23.2947 37.1611 23.2947C35.7329 23.2947 34.5293 22.7769 33.5082 21.8125L33.505 21.8095L33.5019 21.8064C32.5294 20.8339 32.0137 19.5723 32.0137 18.201C32.0137 16.7741 32.5307 15.5669 33.5019 14.5957C34.4745 13.6231 35.736 13.1074 37.1073 13.1074C38.5297 13.1074 39.7338 13.6212 40.7035 14.5865C41.7993 15.5144 42.2547 16.7334 42.2547 18.1472C42.2547 19.5345 41.7661 20.7118 40.802 21.7153V22.5054C40.802 22.6165 40.784 22.7267 40.7437 22.8206C40.7239 22.8669 40.6931 22.9223 40.6446 22.9708C40.5964 23.0189 40.5099 23.0795 40.3894 23.0795C40.2438 23.0795 40.123 22.9995 40.0539 22.8843C39.9935 22.7836 39.9768 22.6666 39.9768 22.5592V22.4304Z" fill="black"/>
<path d="M46.9535 13.6814C46.9535 13.7352 46.8997 13.789 46.7921 13.789C46.0388 13.9505 45.4469 14.2733 44.9627 14.7037C44.4246 15.188 44.048 15.7798 43.8328 16.4793C43.6714 16.9635 43.6176 17.663 43.6176 18.6315V22.6131C43.6176 22.7207 43.5638 22.7207 43.51 22.7207C43.4562 22.7207 43.4023 22.6669 43.4023 22.6131V13.6814C43.4023 13.5738 43.4562 13.52 43.51 13.52C43.5638 13.52 43.6176 13.5738 43.6176 13.6814C43.6176 15.5108 43.6176 16.5331 43.5638 16.8021C43.8328 15.457 44.5861 14.4347 45.8236 13.8428C46.254 13.6276 46.523 13.52 46.7921 13.52C46.8997 13.5738 46.9535 13.5738 46.9535 13.6814Z" fill="black"/>
<path fill-rule="evenodd" clip-rule="evenodd" d="M43.9215 15.0925C43.9228 14.6915 43.9228 14.2224 43.9228 13.6844V13.6817C43.9228 13.4928 43.8081 13.2153 43.5103 13.2153C43.2125 13.2153 43.0977 13.4928 43.0977 13.6817V22.6134C43.0977 22.7394 43.1576 22.84 43.2206 22.903C43.2836 22.966 43.3842 23.026 43.5103 23.026L43.5105 23.026C43.5162 23.0263 43.6438 23.0344 43.7534 22.9613C43.8994 22.864 43.9228 22.7074 43.9228 22.6134V18.6318C43.9228 17.6629 43.9783 17.0085 44.1224 16.576L44.1225 16.5761L44.1246 16.5693C44.3237 15.9222 44.6701 15.3781 45.1663 14.9313C45.6072 14.5396 46.1442 14.2442 46.8328 14.0926C47.0184 14.0775 47.2588 13.9589 47.2588 13.6817C47.2588 13.6319 47.2529 13.5672 47.2248 13.5003C47.1939 13.427 47.1461 13.3741 47.0964 13.3369C47.0544 13.3053 47.0109 13.2854 46.9903 13.276L46.99 13.2759C46.9806 13.2715 46.973 13.2681 46.9663 13.2651C46.9527 13.259 46.9426 13.2545 46.9287 13.2475L46.8644 13.2153H46.7924C46.4431 13.2153 46.1147 13.3568 45.6898 13.5692C44.9309 13.9326 44.3411 14.4492 43.9215 15.0925ZM43.3129 22.6131C43.3129 22.6132 43.3129 22.6133 43.3129 22.6134C43.3128 22.6141 43.3129 22.6141 43.3129 22.6134V22.6131Z" fill="black"/>
<path d="M57.3381 18.1474C57.3381 19.4926 56.8539 20.6225 55.9392 21.5909C55.0245 22.5056 53.8946 22.9899 52.5495 22.9899C51.2044 22.9899 50.0744 22.5056 49.106 21.5909C48.1913 20.6763 47.707 19.4926 47.707 18.2012C47.707 16.8561 48.1913 15.7262 49.106 14.8115C50.0206 13.8968 51.2044 13.4126 52.4957 13.4126C53.8408 13.4126 54.9707 13.8968 55.8854 14.8115C56.8539 15.6724 57.3381 16.8023 57.3381 18.1474ZM57.0691 18.1474C57.0691 16.9099 56.6387 15.8338 55.724 14.9191C54.8093 14.0045 53.7332 13.574 52.4957 13.574C51.2044 13.574 50.1283 14.0045 49.2136 14.9191C48.2989 15.8338 47.8684 16.9099 47.8684 18.2012C47.8684 19.4388 48.2989 20.5149 49.2136 21.4295C50.1283 22.3442 51.2044 22.7747 52.4419 22.7747C53.7332 22.7747 54.8093 22.3442 55.6702 21.4295C56.6387 20.5149 57.0691 19.3849 57.0691 18.1474Z" fill="black"/>
<path fill-rule="evenodd" clip-rule="evenodd" d="M48.8906 14.5957C49.8631 13.6231 51.1247 13.1074 52.496 13.1074C53.9198 13.1074 55.1249 13.6222 56.095 14.5894C57.1283 15.5111 57.6434 16.7239 57.6434 18.1472C57.6434 19.5755 57.1257 20.779 56.1612 21.8002L56.1582 21.8033L56.1551 21.8064C55.1839 22.7776 53.9767 23.2947 52.5498 23.2947C51.1215 23.2947 49.918 22.7769 48.8968 21.8125L48.8937 21.8095L48.8906 21.8064C47.9181 20.8339 47.4023 19.5723 47.4023 18.201C47.4023 16.7741 47.9194 15.5669 48.8906 14.5957ZM52.496 13.8788C51.283 13.8788 50.2852 14.2789 49.4295 15.1346C48.5738 15.9903 48.1737 16.988 48.1737 18.201C48.1737 19.3583 48.5725 20.3567 49.4295 21.2137C50.2866 22.0707 51.2849 22.4695 52.4422 22.4695C53.6569 22.4695 54.6501 22.0685 55.4484 21.2203L55.4545 21.2138L55.4611 21.2076C56.3641 20.3547 56.7644 19.3071 56.7644 18.1472C56.7644 16.99 56.3656 15.9916 55.5086 15.1346C54.6516 14.2776 53.6532 13.8788 52.496 13.8788Z" fill="black"/>
<path d="M65.3018 22.6134C65.3018 22.721 65.248 22.721 65.1942 22.721C65.1404 22.721 65.0866 22.6672 65.0866 22.6134V17.5558C65.0866 16.6411 65.0328 15.9416 64.9252 15.565C64.7638 14.9193 64.3871 14.3813 63.7415 14.0046C63.311 13.7356 62.773 13.5742 62.2349 13.5742C61.4817 13.5742 60.836 13.8432 60.298 14.3275C59.7599 14.8117 59.4909 15.4574 59.3833 16.2106C59.3295 16.4797 59.3295 16.9639 59.3295 17.5558V22.6134C59.3295 22.721 59.2757 22.721 59.2219 22.721C59.1143 22.721 59.1143 22.6672 59.1143 22.6134V13.6818C59.1143 13.5742 59.1681 13.5204 59.2219 13.5204C59.2757 13.5204 59.3295 13.5742 59.3295 13.6818C59.3295 14.6503 59.3295 15.296 59.3295 15.565C59.3833 15.4036 59.4909 15.1345 59.6523 14.7579C59.9213 14.3275 60.298 13.9508 60.7822 13.6818C61.2665 13.4128 61.7507 13.3052 62.2887 13.3052C62.9882 13.3052 63.6339 13.5204 64.2257 14.0046C64.7638 14.4889 65.1404 15.0269 65.248 15.7264C65.3018 16.103 65.3556 16.5335 65.3556 17.1253V22.6134H65.3018Z" fill="black"/>
<path fill-rule="evenodd" clip-rule="evenodd" d="M64.9962 22.6132C64.9962 22.6133 64.9962 22.6132 64.9962 22.6132V22.6132ZM65.49 22.9182H65.6599V17.1251C65.6599 16.5127 65.604 16.0663 65.5493 15.6831L65.5488 15.6798C65.4269 14.8877 64.999 14.2906 64.4291 13.7778L64.4237 13.773L64.4182 13.7684C63.771 13.2389 63.0569 13 62.2881 13C61.7047 13 61.1683 13.1179 60.6334 13.415C60.2331 13.6374 59.8998 13.9268 59.6338 14.2573V13.6816C59.6338 13.4927 59.519 13.2152 59.2212 13.2152C58.9234 13.2152 58.8086 13.4927 58.8086 13.6816V22.6132C58.8086 22.6139 58.8086 22.6147 58.8086 22.6156C58.8086 22.6273 58.8085 22.6593 58.813 22.6931C58.8181 22.7318 58.8315 22.7938 58.8733 22.8564C58.9706 23.0024 59.1271 23.0258 59.2212 23.0258C59.2269 23.0262 59.3547 23.0342 59.4644 22.9612C59.6103 22.8639 59.6338 22.7073 59.6338 22.6132V17.5556C59.6338 16.9456 59.6354 16.5016 59.6817 16.2703L59.6833 16.262L59.6845 16.2536C59.7855 15.5472 60.032 14.9764 60.5013 14.554C60.9868 14.117 61.5609 13.879 62.2343 13.879C62.7141 13.879 63.1963 14.0238 63.5792 14.2631L63.5831 14.2655L63.5871 14.2679C64.1601 14.6021 64.4867 15.0709 64.6287 15.6388L64.6299 15.6437L64.6313 15.6486C64.7258 15.9795 64.781 16.6397 64.781 17.5556V22.6132C64.781 22.7393 64.8409 22.8399 64.9039 22.9029C64.9669 22.9659 65.0675 23.0258 65.1936 23.0258C65.1993 23.0262 65.3271 23.0342 65.4367 22.9612C65.4567 22.9479 65.4743 22.9334 65.49 22.9182ZM59.0238 22.6132C59.0238 22.6133 59.0238 22.6132 59.0238 22.6132C59.0238 22.614 59.0238 22.614 59.0238 22.6132Z" fill="black"/>
<path d="M21.9879 38.0012C21.9879 38.8083 21.7189 39.5078 21.127 40.0996C20.5351 40.6915 19.8357 40.9605 19.0286 40.9605C18.2753 40.9605 17.5759 40.6915 16.984 40.1534C16.3922 39.6154 16.0693 38.9159 16.0693 38.1626C16.0693 38.055 16.1231 38.055 16.1769 38.055C16.2308 38.055 16.2846 38.1088 16.2846 38.2165C16.3384 38.7007 16.446 39.0773 16.6612 39.4002C17.1992 40.3148 18.0063 40.7991 19.0824 40.7991C19.8357 40.7991 20.4813 40.5301 21.0194 39.992C21.5574 39.454 21.8265 38.8083 21.8265 38.055C21.8265 36.9789 21.3422 36.1719 20.4275 35.6876C19.9971 35.4186 19.5667 35.311 19.0286 35.311C18.921 35.311 18.921 35.2572 18.921 35.2034C18.921 35.0958 18.9748 35.0958 19.0824 35.0958C19.8895 35.0958 20.589 35.3648 21.1808 35.9566C21.7189 36.4947 21.9879 37.1942 21.9879 38.0012ZM21.396 33.8583C21.396 33.9121 21.3422 33.9659 21.2884 33.9659C21.2346 33.9659 21.1808 33.9121 21.1808 33.8044C21.127 33.4816 21.0194 33.2126 20.9118 33.0512C20.4813 32.2979 19.8357 31.9213 18.921 31.9213C18.2753 31.9213 17.7911 32.1365 17.3068 32.5669C16.8764 32.9974 16.6612 33.5354 16.6612 34.1811C16.6612 34.7729 16.8764 35.311 17.3068 35.7952C17.7373 36.2257 18.2753 36.4409 18.8672 36.4409C18.921 36.4409 18.9748 36.4947 18.9748 36.5485C18.9748 36.6023 18.921 36.6561 18.8134 36.6561C18.1677 36.6561 17.5759 36.3871 17.1454 35.9028C16.6612 35.4186 16.446 34.8267 16.446 34.1811C16.446 33.4816 16.715 32.8898 17.1454 32.4055C17.6297 31.9213 18.2215 31.7061 18.8672 31.7061C19.459 31.7061 20.0509 31.9213 20.5351 32.3517C21.127 32.7283 21.396 33.2664 21.396 33.8583Z" fill="black"/>
<path fill-rule="evenodd" clip-rule="evenodd" d="M20.8772 33.8368C20.8279 33.555 20.7352 33.336 20.6583 33.2207L20.6525 33.2119L20.6473 33.2028C20.4545 32.8654 20.2218 32.6259 19.947 32.4688C19.6718 32.3116 19.336 32.2266 18.9213 32.2266C18.3642 32.2266 17.9512 32.4047 17.5166 32.7892C17.1512 33.1576 16.9665 33.6144 16.9665 34.1814C16.9665 34.6886 17.1473 35.1539 17.5291 35.5861C17.9002 35.9541 18.3579 36.1362 18.8675 36.1362C18.9936 36.1362 19.0941 36.1962 19.1571 36.2592C19.2201 36.3221 19.2801 36.4227 19.2801 36.5488C19.2801 36.8466 19.0026 36.9614 18.8137 36.9614C18.0827 36.9614 17.4108 36.6567 16.9238 36.1125C16.3818 35.5672 16.1413 34.8979 16.1413 34.1814C16.1413 33.3967 16.4452 32.7349 16.9178 32.2032L16.9237 32.1965L16.9301 32.1902C17.4765 31.6438 18.1482 31.4014 18.8675 31.4014C19.5268 31.4014 20.1833 31.6388 20.7198 32.108C21.3845 32.5395 21.7013 33.1682 21.7013 33.8586C21.7013 33.9846 21.6413 34.0852 21.5784 34.1482C21.5154 34.2112 21.4148 34.2711 21.2887 34.2711C21.0074 34.2711 20.8894 34.0235 20.8772 33.8368ZM16.5894 38.1955C16.5811 38.0077 16.464 37.7504 16.1772 37.7504C16.1766 37.7504 16.1758 37.7504 16.1749 37.7503C16.1632 37.7503 16.1312 37.7502 16.0974 37.7547C16.0586 37.7599 15.9967 37.7733 15.9341 37.815C15.7881 37.9123 15.7646 38.0689 15.7646 38.1629C15.7646 39.0086 16.1286 39.788 16.7792 40.3794C17.4256 40.9671 18.1977 41.2658 19.0289 41.2658C19.9129 41.2658 20.6912 40.9674 21.343 40.3156C21.9947 39.6638 22.2932 38.8855 22.2932 38.0015C22.2932 37.1221 21.9978 36.3423 21.3968 35.7413C20.745 35.0895 19.9667 34.7911 19.0827 34.7911C19.0813 34.7911 19.0798 34.7911 19.0782 34.7911C19.055 34.7911 19.02 34.791 18.9868 34.7938C18.9523 34.7967 18.8901 34.8043 18.8253 34.8367C18.7494 34.8746 18.6885 34.9369 18.6527 35.0176C18.6215 35.0877 18.6163 35.1559 18.6163 35.2037C18.6163 35.2037 18.6163 35.2038 18.6163 35.2039C18.6159 35.2096 18.6079 35.3372 18.681 35.4468C18.7783 35.5928 18.9348 35.6163 19.0289 35.6163C19.5188 35.6163 19.8913 35.7123 20.2662 35.9465L20.2755 35.9523L20.2851 35.9575C21.0973 36.3874 21.5218 37.0891 21.5218 38.0553C21.5218 38.7268 21.2855 39.2952 20.804 39.7767C20.3225 40.2582 19.7542 40.4944 19.0827 40.4944C18.1187 40.4944 17.4097 40.0708 16.9244 39.2458L16.92 39.2384L16.9153 39.2313C16.7388 38.9666 16.6406 38.6468 16.5894 38.1955Z" fill="black"/>
<path d="M29.413 40.6379C29.413 40.7455 29.3592 40.7455 29.3054 40.7455C29.2516 40.7455 29.1977 40.6917 29.1977 40.6379V35.7416C29.1977 34.8269 29.1439 34.1813 29.0363 33.8046C28.8749 33.159 28.4983 32.6747 27.9064 32.2981C27.476 32.0291 26.9379 31.8677 26.3999 31.8677C25.6466 31.8677 25.0548 32.0829 24.5167 32.5671C24.0325 33.0514 23.7096 33.6432 23.602 34.3965C23.602 34.6655 23.5482 35.096 23.5482 35.7416V40.6379C23.5482 40.7455 23.4944 40.7455 23.4406 40.7455C23.333 40.7455 23.333 40.6917 23.333 40.6379V28.9622C23.333 28.8546 23.3868 28.8008 23.4406 28.8008C23.4944 28.8008 23.5482 28.8546 23.5482 28.9622V33.159V33.8584C23.602 33.697 23.7096 33.428 23.8711 33.1052C24.1401 32.6747 24.4629 32.2981 24.9472 32.0829C25.4314 31.8139 25.9156 31.7062 26.3999 31.7062C27.0994 31.7062 27.6912 31.9215 28.2293 32.4057C28.7673 32.8362 29.0901 33.428 29.2516 34.0737C29.3054 34.3965 29.3592 34.8807 29.3592 35.4726V40.6379H29.413Z" fill="black"/>
<path fill-rule="evenodd" clip-rule="evenodd" d="M23.243 40.6374C23.243 40.6375 23.243 40.6376 23.243 40.6377C23.243 40.6384 23.243 40.6384 23.243 40.6377V40.6374ZM23.9067 34.4192C23.9056 34.5312 23.897 34.6666 23.8874 34.8165C23.8848 34.8586 23.882 34.9019 23.8793 34.9461C23.866 35.165 23.853 35.4273 23.853 35.7414V40.6377C23.853 40.7318 23.8295 40.8883 23.6835 40.9856C23.5739 41.0587 23.4463 41.0507 23.4406 41.0503L23.4404 41.0503C23.3463 41.0503 23.1898 41.0268 23.0925 40.8808C23.0194 40.7712 23.0274 40.6436 23.0278 40.6379L23.0278 40.6377V28.962C23.0278 28.7731 23.1426 28.4956 23.4404 28.4956C23.7382 28.4956 23.853 28.7731 23.853 28.962V32.5945C24.0969 32.2781 24.4003 31.9949 24.8105 31.8096C25.3393 31.5184 25.8711 31.4011 26.3997 31.4011C27.1693 31.4011 27.8324 31.6409 28.4265 32.1729C29.0232 32.6531 29.3739 33.3064 29.5472 33.9995L29.5501 34.0113L29.5522 34.0233C29.6085 34.3615 29.6639 34.8626 29.6639 35.4724V40.3327H29.7177V40.6377C29.7177 40.7318 29.6942 40.8883 29.5483 40.9856C29.4387 41.0587 29.3111 41.0507 29.3053 41.0503L29.3051 41.0503C29.179 41.0503 29.0785 40.9903 29.0155 40.9273C28.9525 40.8643 28.8925 40.7638 28.8925 40.6377V35.7414C28.8925 34.8275 28.8376 34.2199 28.7428 33.8882L28.7414 33.8834L28.7402 33.8784C28.6002 33.3185 28.2777 32.8961 27.7435 32.5559C27.3608 32.317 26.8791 32.1725 26.3997 32.1725C25.7191 32.1725 25.2029 32.3618 24.7265 32.7883C24.2937 33.2231 24.0068 33.7476 23.9067 34.4192Z" fill="black"/>
<path d="M40.2819 36.2795C40.2819 37.5708 39.8514 38.7007 38.9368 39.6154C38.0221 40.5301 36.946 40.9605 35.6547 40.9605C34.3633 40.9605 33.2334 40.5301 32.3188 39.6154C31.4041 38.7007 30.9736 37.6246 30.9736 36.3333C30.9736 35.042 31.4041 33.9659 32.3188 33.0512C33.2334 32.1365 34.3095 31.7061 35.6009 31.7061C36.8922 31.7061 37.9683 32.1365 38.883 33.0512C39.8514 33.9121 40.2819 34.9882 40.2819 36.2795ZM40.0667 36.2795C40.0667 35.042 39.6362 34.0197 38.7753 33.1588C37.9145 32.2979 36.8384 31.8675 35.6547 31.8675C34.4171 31.8675 33.3411 32.2979 32.4802 33.1588C31.6193 34.0197 31.1889 35.0958 31.1889 36.3333C31.1889 37.5708 31.6193 38.5931 32.4802 39.454C33.3411 40.3148 34.4171 40.7453 35.6009 40.7453C36.8384 40.7453 37.8607 40.3148 38.7215 39.454C39.6362 38.5931 40.0667 37.517 40.0667 36.2795Z" fill="black"/>
<path fill-rule="evenodd" clip-rule="evenodd" d="M32.1024 32.8358C33.0761 31.8621 34.2306 31.4014 35.6002 31.4014C36.9668 31.4014 38.1193 31.8601 39.0916 32.8295C40.1271 33.7531 40.5862 34.9135 40.5862 36.2798C40.5862 37.6456 40.128 38.8551 39.1517 39.8313C38.1781 40.805 37.0236 41.2658 35.654 41.2658C34.2882 41.2658 33.0787 40.8076 32.1024 39.8313C31.1287 38.8577 30.668 37.7032 30.668 36.3336C30.668 34.964 31.1287 33.8095 32.1024 32.8358ZM35.654 32.1728C34.4939 32.1728 33.4964 32.5735 32.6952 33.3747C31.8939 34.176 31.4932 35.1735 31.4932 36.3336C31.4932 37.4897 31.8911 38.4346 32.6952 39.2386C33.4978 40.0412 34.4959 40.4406 35.6002 40.4406C36.7563 40.4406 37.7012 40.0427 38.5052 39.2386L38.5085 39.2353L38.5118 39.2322C39.3614 38.4326 39.761 37.4387 39.761 36.2798C39.761 35.1237 39.3631 34.1788 38.559 33.3747C37.7564 32.5721 36.7583 32.1728 35.654 32.1728Z" fill="black"/>
<path d="M51.0964 36.3334C51.0964 37.6247 50.666 38.7008 49.6975 39.6155C48.7828 40.5302 47.6529 40.9606 46.3616 40.9606C45.2317 40.9606 44.2094 40.584 43.3485 39.8307V43.7047C43.3485 43.8123 43.2947 43.8123 43.2409 43.8123C43.1871 43.8123 43.1333 43.7585 43.1333 43.7047V39.6155C42.2186 38.7008 41.7344 37.5709 41.7344 36.2796C41.7344 34.9883 42.1648 33.9122 43.0795 32.9975C43.9942 32.0828 45.0703 31.6523 46.3616 31.6523C47.6529 31.6523 48.729 32.0828 49.6437 32.9975C50.6122 33.9122 51.0964 35.0421 51.0964 36.3334ZM50.8812 36.3334C50.8812 35.0959 50.4508 34.0198 49.5899 33.1589C48.729 32.298 47.6529 31.8676 46.4154 31.8676C45.1779 31.8676 44.1556 32.298 43.2409 33.1589C42.38 34.0198 41.9496 35.0959 41.9496 36.2796C41.9496 37.4633 42.3262 38.4856 43.1333 39.2926V36.3334C43.1333 36.2258 43.1871 36.172 43.2409 36.172C43.3485 36.172 43.3485 36.2258 43.3485 36.3334V39.5079C44.2094 40.3149 45.2317 40.7454 46.4154 40.7454C47.6529 40.7454 48.6752 40.3149 49.5361 39.4541C50.4508 38.5932 50.8812 37.5171 50.8812 36.3334Z" fill="black"/>
<path fill-rule="evenodd" clip-rule="evenodd" d="M43.6538 39.3732C44.4404 40.0733 45.3576 40.4402 46.4157 40.4402C47.5718 40.4402 48.5167 40.0423 49.3207 39.2382L49.324 39.2349L49.3274 39.2318C50.1784 38.4308 50.5765 37.4362 50.5765 36.3332C50.5765 35.1731 50.1758 34.1756 49.3745 33.3743C48.5733 32.5731 47.5758 32.1724 46.4157 32.1724C45.2625 32.1724 44.3146 32.5685 43.4536 33.3776C42.6532 34.1797 42.2549 35.1766 42.2549 36.2794C42.2549 37.0896 42.4411 37.8086 42.8286 38.4263V36.3332C42.8286 36.1442 42.9434 35.8668 43.2412 35.8668C43.289 35.8668 43.3572 35.872 43.4273 35.9032C43.508 35.939 43.5702 35.9999 43.6082 36.0757C43.6406 36.1406 43.6482 36.2028 43.6511 36.2372C43.6538 36.2705 43.6538 36.3055 43.6538 36.3287C43.6538 36.3302 43.6538 36.3317 43.6538 36.3332V39.3732ZM42.8286 39.7396C41.9163 38.7857 41.4297 37.6115 41.4297 36.2794C41.4297 34.9098 41.8905 33.7553 42.8641 32.7816C43.8378 31.8079 44.9923 31.3472 46.3619 31.3472C47.7301 31.3472 48.8835 31.807 49.8566 32.7785C50.8832 33.7496 51.4017 34.9584 51.4017 36.3332C51.4017 37.7027 50.9407 38.8595 49.9104 39.834C48.9347 40.8082 47.7263 41.2654 46.3619 41.2654C45.373 41.2654 44.4578 40.9931 43.6538 40.4503V43.7045C43.6538 43.7985 43.6303 43.9551 43.4844 44.0524C43.4218 44.0941 43.3598 44.1075 43.321 44.1127C43.2873 44.1172 43.2553 44.1171 43.2435 44.1171L43.2412 44.1171C43.1151 44.1171 43.0146 44.0571 42.9516 43.9941C42.8886 43.9311 42.8286 43.8306 42.8286 43.7045V39.7396ZM43.0438 43.7045C43.0438 43.7053 43.0438 43.7052 43.0438 43.7042V43.7045Z" fill="black"/>
<path d="M28.9287 45.1577V49.5697L32.9103 47.3099L28.9287 45.1577Z" fill="black"/>
<path d="M36.7306 45.1577V49.5697L32.749 47.3099L36.7306 45.1577Z" fill="black"/>
</svg>
