<svg width="43" height="43" viewBox="0 0 43 43" fill="none" xmlns="http://www.w3.org/2000/svg">
<g clip-path="url(#clip0_74_618)">
<path d="M15.922 38.2222C17.4063 38.2222 18.6095 37.0189 18.6095 35.5347C18.6095 34.0504 17.4063 32.8472 15.922 32.8472C14.4377 32.8472 13.2345 34.0504 13.2345 35.5347C13.2345 37.0189 14.4377 38.2222 15.922 38.2222Z" fill="#3F3F3F"/>
<path d="M32.25 38.2222C33.7343 38.2222 34.9375 37.0189 34.9375 35.5347C34.9375 34.0504 33.7343 32.8472 32.25 32.8472C30.7657 32.8472 29.5625 34.0504 29.5625 35.5347C29.5625 37.0189 30.7657 38.2222 32.25 38.2222Z" fill="#3F3F3F"/>
<path d="M39.5122 6.41418C39.4011 6.27716 39.261 6.16647 39.1019 6.09005C38.9429 6.01364 38.7689 5.9734 38.5925 5.97223H13.7242L14.5006 8.36112H37.0278L33.8386 22.6945H15.9219L10.4633 5.41085C10.4043 5.22745 10.3018 5.06106 10.1645 4.92586C10.0272 4.79067 9.85928 4.69069 9.675 4.63446L4.77778 3.12946C4.6272 3.08318 4.46897 3.06702 4.31215 3.0819C4.15532 3.09677 4.00296 3.14239 3.86376 3.21615C3.58264 3.36511 3.3722 3.61965 3.27875 3.92376C3.1853 4.22788 3.21648 4.55666 3.36544 4.83778C3.5144 5.1189 3.76894 5.32934 4.07306 5.42279L8.36111 6.73668L13.8436 24.0561L11.8847 25.6567L11.7294 25.812C11.2449 26.3703 10.9703 27.0802 10.9528 27.8193C10.9354 28.5584 11.1762 29.2805 11.6339 29.8611C11.9594 30.257 12.3731 30.5713 12.8419 30.7787C13.3106 30.9861 13.8214 31.0809 14.3333 31.0556H34.2686C34.5854 31.0556 34.8892 30.9297 35.1132 30.7057C35.3372 30.4817 35.4631 30.1779 35.4631 29.8611C35.4631 29.5443 35.3372 29.2405 35.1132 29.0165C34.8892 28.7925 34.5854 28.6667 34.2686 28.6667H14.1422C14.0047 28.662 13.8707 28.6219 13.7531 28.5503C13.6356 28.4787 13.5385 28.378 13.4713 28.2579C13.4041 28.1378 13.3689 28.0024 13.3693 27.8648C13.3696 27.7272 13.4055 27.592 13.4733 27.4722L16.3519 25.0833H34.7942C35.0703 25.0901 35.3402 25.0009 35.558 24.8311C35.7757 24.6612 35.9279 24.4211 35.9886 24.1517L39.775 7.42946C39.8113 7.25139 39.8065 7.06737 39.761 6.89144C39.7155 6.7155 39.6304 6.55227 39.5122 6.41418Z" fill="#3F3F3F"/>
</g>
<defs>
<clipPath id="clip0_74_618">
<rect width="43" height="43" fill="white"/>
</clipPath>
</defs>
</svg>
