<svg xmlns="http://www.w3.org/2000/svg" width="112" height="64" viewBox="0 0 112 64" fill="none">
  <path d="M39.8047 18.3496C39.7638 18.4167 39.6865 18.4473 39.6107 18.4473C39.5757 18.4473 39.5407 18.44 39.5101 18.4283C38.018 17.5757 36.6033 16.6051 35.0646 15.547C34.7219 15.3124 34.3733 15.0734 34.0174 14.83C32.3591 13.7151 28.9842 12.2344 22.3277 12.2344C21.5839 12.2344 20.7992 12.2533 19.9708 12.2926C19.6266 12.3101 19.2678 12.332 18.893 12.3553C18.0164 12.4092 17.0611 12.4661 16.0431 12.4807C15.8914 12.4807 15.7383 12.4836 15.5837 12.4836C15.3299 12.4836 15.0732 12.4807 14.8122 12.4734C14.4111 12.4632 14.0027 12.4428 13.5856 12.4122C10.6278 12.1921 7.30682 11.3876 3.92461 9.0674C2.43404 8.06471 0.923054 6.35371 0.138391 4.76077C0.0596335 4.62231 0.0217127 4.44597 0.00129393 4.26962C-0.0147493 4.12097 0.12089 4 0.269655 4C0.297366 4 0.326536 4.00437 0.354247 4.01312C7.00346 6.68892 11.5802 7.74262 15.4233 8.26146C15.8404 8.3183 16.2473 8.36931 16.6484 8.41449C17.0641 8.46112 17.4724 8.50339 17.875 8.54128C18.8084 8.62873 19.7127 8.69722 20.6111 8.76572C23.4099 8.9785 26.1489 9.18546 29.5443 9.97246C32.9629 10.7726 37.0875 15.1943 39.0463 17.293C39.3467 17.6151 39.5961 17.8833 39.7843 18.0742C39.863 18.1339 39.863 18.252 39.8047 18.3496ZM111.674 4.09036C111.623 4.09036 111.572 4.10348 111.524 4.13117C106.832 7.18881 101.808 8.44509 97.0836 9.07907C96.6723 9.13299 96.2639 9.184 95.8584 9.22918C95.4457 9.27727 95.0359 9.31954 94.6289 9.35889C93.1603 9.50317 91.7353 9.60373 90.3716 9.69992C86.6423 9.96225 83.3782 10.1925 80.9994 11.1719C79.6358 11.7228 77.2847 13.5008 74.2467 15.8006L73.9185 16.0484C72.7897 16.9053 71.8023 17.6953 70.8586 18.4502C68.8955 20.0213 67.1162 21.4437 64.6382 23.0104C63.5794 23.659 62.7553 24.701 62.363 25.8815C61.7154 27.8082 60.7747 29.6373 59.5189 31.2506C59.2943 31.5785 59.0522 31.9006 58.8087 32.2242C58.2194 33.0039 57.6229 33.7938 57.2627 34.7119C57.0877 35.2075 56.9841 35.7132 56.9156 36.2262C56.847 36.7392 56.8135 37.2595 56.7799 37.7783C56.7595 38.0815 56.7405 38.3832 56.7143 38.6834C56.691 39.4529 56.6209 40.2224 56.5509 40.9919C56.5014 41.5399 56.4518 42.0893 56.4197 42.6373C56.4664 42.8035 56.5947 42.8793 56.7274 42.8793C56.8776 42.8793 57.0352 42.7831 57.0862 42.6169C57.305 42.2584 57.5048 41.8882 57.7046 41.518C58.1013 40.7864 58.4966 40.0533 59.0391 39.4092C59.0814 39.3582 59.1368 39.3363 59.1893 39.3363C59.3148 39.3363 59.4344 39.4573 59.3833 39.6059L59.0552 40.5503C59.0508 40.5649 59.0479 40.5795 59.0464 40.5955C58.7882 43.0818 58.533 45.5667 58.2778 48.0531C57.7556 53.1307 57.2335 58.2083 56.6939 63.2859C56.6603 63.5118 56.6253 63.9548 56.9039 63.9985C56.9126 64 56.9214 64 56.9316 64C56.9899 64 57.0483 63.9723 57.0847 63.9257C57.2685 63.6881 57.3764 63.4127 57.4858 63.1387C57.515 63.0629 57.5456 62.9871 57.5763 62.9128C58.4003 60.8666 59.2243 58.8422 60.0484 56.8164C60.4407 55.7336 60.5982 54.5735 60.3619 53.4527C60.2686 52.8129 60.0498 52.2271 59.8238 51.6266C59.8136 51.5989 59.8034 51.5727 59.7931 51.545C59.6371 51.1326 59.6167 50.6603 59.7552 50.2275C60.4013 48.1259 61.0285 46.0418 61.6556 43.9592V43.9548C61.9911 42.9521 62.0888 41.8693 62.0698 40.8272C62.0625 40.2719 61.9852 39.7327 61.8715 39.2022C61.7577 38.6703 61.6089 38.1485 61.4616 37.6253C61.3625 37.2741 61.2633 36.9243 61.1743 36.5701C61.1699 36.5512 61.167 36.5308 61.1685 36.5104C61.1889 36.1956 61.1729 35.821 61.1554 35.3998C61.0956 33.9949 61.0139 32.0624 62.1675 30.0512C62.6605 29.1767 63.556 28.6331 64.5361 28.6331C64.5711 28.6331 64.6047 28.6331 64.6382 28.6346C66.2498 28.7016 67.0855 29.4857 67.9781 30.3251C69.0574 31.341 70.2227 32.4355 72.9472 32.4355C73.3191 32.4355 73.7202 32.4151 74.1533 32.3713C74.7805 32.313 74.8403 31.545 74.2715 31.3876C72.005 30.7697 70.8032 30.0512 69.702 29.3953C68.4755 28.6622 67.3743 28.005 65.0641 27.6435C64.8307 27.6071 64.8395 27.266 65.0743 27.2442C65.3937 27.2136 65.7044 27.199 66.0077 27.199C68.8941 27.199 71.1066 28.4932 73.2024 29.7174C75.0897 30.8192 76.8807 31.8671 78.9809 31.8671C79.7729 31.8671 80.6086 31.7184 81.5099 31.3687C81.8424 31.2302 82.1969 31.0728 82.5104 30.8571C82.9217 30.5817 82.7846 29.9331 82.2946 29.8734H82.2756C77.8841 29.4653 75.7577 28.4495 73.7348 27.4832C71.8898 26.6015 70.1279 25.762 66.8157 25.4574C66.5765 25.4355 66.5678 25.0901 66.8041 25.0581C68.2713 24.8555 69.4964 24.7666 70.5523 24.7666C73.6764 24.7666 75.3114 25.5478 77.2978 26.4951C78.9459 27.2821 80.8361 28.1842 84.0214 28.8517C84.8994 29.031 85.6928 29.1082 86.4119 29.1082C89.1626 29.1082 90.8354 27.9685 92.0635 27.0023C92.1276 26.9483 92.1991 26.893 92.2735 26.8376C92.3595 26.7705 92.45 26.7035 92.5346 26.6292C92.7971 26.4033 92.6104 25.9966 92.2852 25.9966C92.2706 25.9966 92.256 25.9981 92.24 25.9996C90.9054 26.173 89.7474 26.2488 88.7133 26.2488C85.7264 26.2488 83.7735 25.6192 81.5653 24.9051C78.9036 24.0466 75.87 23.0673 70.2052 22.9288C69.9675 22.923 69.9354 22.5819 70.1673 22.5309C73.1907 21.8634 75.5243 21.6055 77.4262 21.6055C80.6552 21.6055 82.6373 22.3488 84.6267 23.0935C86.3156 23.726 88.0089 24.36 90.4752 24.5451C91.0863 24.5903 91.6551 24.6121 92.1874 24.6121C95.4924 24.6121 97.3344 23.7726 98.6689 22.7C99.0496 22.3939 99.3894 22.0689 99.7103 21.7396C99.9232 21.5195 100.127 21.2994 100.33 21.0794L100.381 21.024C100.431 20.9642 100.489 20.9059 100.549 20.8462C100.607 20.7879 100.666 20.7296 100.715 20.6698C100.717 20.6684 100.718 20.6655 100.72 20.664C100.892 20.4687 100.827 20.1452 100.604 20.0169C100.556 19.9892 100.501 19.9703 100.44 19.963C100.41 19.9586 100.381 19.9572 100.352 19.9572C100.219 19.9572 100.078 19.9892 99.9495 20.0213C99.7774 20.0621 99.6082 20.1014 99.4405 20.1393C99.0481 20.2297 98.6675 20.3113 98.2999 20.3856C96.1151 20.8243 94.3518 20.9934 92.8467 20.9934C90.4037 20.9934 88.6375 20.5489 86.8348 20.0956C84.9548 19.6234 83.0355 19.141 80.2673 19.141C78.7782 19.141 77.0426 19.2809 74.9336 19.638C74.922 19.6394 74.9088 19.6409 74.8957 19.6409C74.7003 19.6409 74.6157 19.3698 74.8009 19.2649C76.0581 18.5435 78.0139 17.6865 81.157 17.2872C81.981 17.1822 82.7584 17.1371 83.5007 17.1371C85.7526 17.1371 87.6851 17.5553 89.6774 17.9867C91.7966 18.4458 93.9828 18.9195 96.6912 18.9195C97.0048 18.9195 97.3257 18.9136 97.6538 18.9005C97.7676 18.8962 97.8799 18.8903 97.9907 18.883C98.402 18.8597 98.7929 18.8233 99.1634 18.7767C99.5703 18.7256 99.9538 18.6601 100.316 18.5843C104.338 17.7317 105.681 15.3984 106.912 13.2575C107.001 13.1132 106.928 12.8552 106.632 12.8552C106.603 12.8552 106.572 12.8581 106.539 12.8625C103.466 14.0532 101.204 14.626 99.3282 14.8548C98.9125 14.9058 98.5173 14.9408 98.1351 14.9597C97.8259 14.9772 97.5255 14.9845 97.2323 14.9845C97.1273 14.9845 97.0238 14.983 96.9202 14.9816C95.7563 14.9612 94.6887 14.8271 93.5584 14.6872C92.1524 14.5123 90.6488 14.3257 88.7352 14.3257C87.6676 14.3257 86.4746 14.384 85.0978 14.5341C83.0151 14.7586 81.313 15.1535 80.2848 15.4319C80.2644 15.4377 80.2454 15.4406 80.2265 15.4406C80.0441 15.4406 79.9464 15.19 80.1156 15.0734C81.0286 14.4394 82.2158 13.8054 84.176 13.256C85.1692 12.9776 86.4454 12.9018 87.9243 12.9018C88.7352 12.9018 89.6074 12.9252 90.5277 12.9485C91.5559 12.9747 92.6425 13.0039 93.7714 13.0039C94.5619 13.0039 95.3742 12.9893 96.1997 12.9514C96.6023 12.9339 97.0077 12.9091 97.4161 12.8771C97.8157 12.8479 98.2183 12.81 98.6223 12.7648C101.307 12.4675 104.073 11.8292 106.715 10.5234C109.659 9.06741 110.894 7.37681 111.934 4.74036C112.11 4.36872 111.903 4.09036 111.673 4.09036H111.674ZM35.6101 17.6326C33.6003 16.7319 29.9264 15.2745 26.3867 14.8489C25.4197 14.7309 24.5548 14.6915 23.7162 14.6915C22.9242 14.6915 22.1556 14.7265 21.352 14.763C20.4652 14.8038 19.5333 14.846 18.4729 14.846C17.5118 14.846 16.4457 14.811 15.2132 14.7076C14.8384 14.677 14.449 14.6391 14.0421 14.5953C13.6643 14.5531 13.2705 14.505 12.8607 14.4511C10.7445 14.1669 8.1965 13.6976 5.0243 12.9412C4.99659 12.9339 4.96888 12.931 4.94262 12.931C4.67135 12.931 4.4905 13.2793 4.65093 13.5314C4.66114 13.5504 4.67135 13.565 4.6801 13.5795C4.69031 13.5956 4.70052 13.6101 4.70927 13.6291C6.68988 16.5818 9.04241 17.8497 11.7844 18.2797C12.1665 18.3409 12.5573 18.3846 12.9555 18.4152C13.3391 18.4429 13.7285 18.4589 14.1267 18.4633C14.22 18.4662 14.3134 18.4662 14.4082 18.4662C16.2706 18.4662 18.2877 18.2418 20.4594 17.9999C22.9971 17.7157 25.7478 17.4096 28.7173 17.4096C30.8613 17.4096 33.1175 17.5685 35.4905 18.013C35.5051 18.0159 35.5197 18.0173 35.5328 18.0173C35.737 18.0173 35.8143 17.7244 35.6101 17.6326ZM38.0983 20.2355C36.351 19.7036 33.5259 19.0055 30.7358 19.0055C30.5142 19.0055 30.2939 19.0098 30.0737 19.0186C28.4314 19.0885 27.0182 19.3654 25.4357 19.6759C22.9913 20.1554 20.1444 20.7135 15.4262 20.7135C14.8632 20.7135 14.274 20.7063 13.6541 20.6873C13.2778 20.6786 12.8884 20.664 12.4888 20.6465C12.1067 20.6305 11.7129 20.6101 11.3074 20.5868C10.8495 20.5605 10.3755 20.5299 9.88833 20.4935C9.88104 20.4935 9.87375 20.492 9.86645 20.492C9.58643 20.492 9.461 20.8724 9.65206 21.0837C9.67977 21.0968 9.69727 21.1202 9.71186 21.1391C9.71915 21.1479 9.72498 21.1566 9.73081 21.1624C10.1552 21.6186 10.5869 22.0121 11.0274 22.3502C11.3847 22.6257 11.7479 22.8647 12.1169 23.0687C12.48 23.2698 12.8476 23.4389 13.2224 23.5774C14.2681 23.9665 15.3591 24.1283 16.4982 24.1283C18.9236 24.1283 21.5678 23.3995 24.4658 22.6009C27.9793 21.6332 31.8662 20.562 36.1876 20.562C36.7915 20.562 37.404 20.5824 38.0253 20.6276C38.0312 20.6276 38.037 20.629 38.0428 20.629C38.2674 20.629 38.3229 20.3026 38.0983 20.2355ZM41.3025 23.4885C40.321 23.1022 38.6262 22.6359 36.1789 22.6359C35.403 22.6359 34.5541 22.6825 33.6266 22.7933C32.1637 22.9711 30.889 23.3602 29.4509 23.7974C26.604 24.6631 23.1197 25.7241 16.2925 25.7241H16.1671C15.8929 25.7241 15.8331 26.2357 16.03 26.412L16.1087 26.4907C18.3738 28.0297 20.385 28.6025 22.2927 28.6025C24.8421 28.6025 27.2063 27.5808 29.7514 26.4834C32.7077 25.2067 35.9062 23.8266 39.9111 23.8266C40.3356 23.8266 40.7687 23.8426 41.2121 23.8761H41.2296C41.4455 23.8761 41.5126 23.5701 41.3025 23.4885ZM43.9803 24.8409C43.3342 24.7593 42.5495 24.6923 41.7182 24.6923C40.8869 24.6923 39.9389 24.7651 39.0784 24.9706C38.0166 25.2228 37.264 25.5317 36.4093 25.883C34.7262 26.5767 32.6435 27.4337 26.9948 28.3343C26.3867 28.413 25.9943 29.2773 27.1319 29.5921C28.1689 29.8806 29.1067 30.0045 29.9745 30.0045C32.4408 30.0045 34.3514 29.0004 36.4385 27.9029C38.5285 26.8026 40.7964 25.6104 43.9803 25.2403C44.2151 25.2126 44.2166 24.8715 43.9803 24.8409ZM46.4087 27.2719C46.0718 27.2354 45.6853 27.2078 45.2783 27.2078C44.5666 27.2078 43.7907 27.2908 43.0994 27.5532C42.4226 27.8228 41.9734 28.123 41.463 28.464C40.4479 29.1417 39.195 29.9797 35.4497 31.0524C35.0559 31.1704 34.8604 31.8 35.7428 31.9385C36.4152 32.0478 37.0088 32.0988 37.5411 32.0988C39.9286 32.0988 41.0706 31.0932 42.2958 30.0147C43.3386 29.0966 44.4426 28.1245 46.4276 27.6683C46.6508 27.6173 46.6347 27.2967 46.4087 27.2719ZM53.3948 23.7712C53.1804 23.3106 52.966 22.8501 52.8099 22.3808C52.4161 21.3111 52.6553 20.2428 52.8945 19.1745C53.0243 18.5916 53.1541 18.0071 53.1819 17.4242C53.1819 16.4535 52.6189 15.6767 52.0792 14.9291C51.9742 14.7834 51.8692 14.6391 51.77 14.4948C51.7234 14.4307 51.6957 14.3957 51.6723 14.3957C51.6446 14.3957 51.6242 14.4394 51.5936 14.5341C51.2654 15.9478 51.5454 17.4373 52.1536 18.7417C52.1711 18.781 52.177 18.8247 52.1682 18.867C52.1493 18.9559 52.1303 19.0448 52.1113 19.1337C51.9538 19.8683 51.7948 20.6057 51.8284 21.3577C51.8765 22.3633 52.2878 23.2596 52.6991 24.1559C52.9645 24.7345 53.23 25.3117 53.3977 25.9209C53.5873 26.6525 53.4852 27.3826 53.3831 28.1201C53.3262 28.5325 53.2679 28.945 53.2606 29.3618C53.2606 29.4711 53.3481 29.5556 53.4531 29.5556C53.4794 29.5556 53.5071 29.5513 53.5363 29.5382C53.5946 29.5192 53.6136 29.4799 53.634 29.4216C53.6952 29.1811 53.7652 28.9435 53.8367 28.7045C54.0146 28.1026 54.194 27.4992 54.2217 26.8638C54.2305 26.7662 54.2334 26.67 54.2334 26.5738C54.2334 25.5769 53.8119 24.6719 53.3948 23.7712ZM59.0231 18.8903C59.0143 18.8451 59.0201 18.8 59.0406 18.7592C59.6663 17.5131 59.9652 16.0251 59.656 14.6522C59.6444 14.5895 59.5919 14.5516 59.5364 14.5516C59.5029 14.5516 59.4694 14.5647 59.4402 14.5939L59.3731 14.6609C58.9487 15.085 58.5461 15.4887 58.2297 16.1358C58.2267 16.1431 58.2224 16.1504 58.2194 16.1591C58.0444 16.6124 58.0823 16.9724 58.1232 17.3513V17.3557C58.1246 17.3688 58.1261 17.3834 58.1276 17.3965C57.7629 17.0074 57.0629 16.4623 55.95 16.3632C55.9369 16.3617 55.9223 16.3617 55.9092 16.3603C55.9034 16.3603 55.8975 16.3588 55.8902 16.3588C55.6686 16.3588 55.6146 16.6809 55.8348 16.7523C56.1105 16.8412 56.3949 16.9782 56.6676 17.1793C56.6866 17.1939 56.7041 17.2114 56.7172 17.2318C56.761 17.2974 56.793 17.3688 56.8106 17.4446C56.9754 18.2578 56.5247 19.262 56.1732 20.049C56.0215 20.3856 55.8888 20.6815 55.8305 20.9059C55.8246 20.9292 55.8232 20.9453 55.8232 20.9584L55.8144 21.0152C55.6642 21.5151 55.5956 22.0442 55.5767 22.5586V30.226C55.5767 30.2406 55.5738 30.2537 55.5708 30.2669C55.5052 30.5627 55.7707 30.8906 56.0638 30.8906C56.1163 30.8906 56.1703 30.8804 56.2242 30.8571C56.3015 30.8338 56.3847 30.8119 56.4693 30.7901C57.0381 30.6385 57.6929 30.4651 57.8125 29.8151C57.8709 29.3123 57.8184 28.8036 57.7659 28.2964C57.7308 27.951 57.6958 27.6056 57.6944 27.2631V27.2529C57.5821 26.0841 58.059 25.0493 58.5374 24.0117C58.9589 23.0949 59.3833 22.1753 59.4008 21.161C59.4008 20.5357 59.2593 19.9222 59.1222 19.329C59.0887 19.1818 59.0552 19.0346 59.0231 18.8903ZM52.9558 50.2464C52.9368 50.2333 52.9164 50.2246 52.896 50.2173C52.7181 50.1663 52.5168 50.1488 52.3126 50.1313C51.8182 50.0905 51.3135 50.0468 51.1225 49.5003C50.6353 48.2002 50.1715 46.893 49.7092 45.5886C49.3533 44.583 48.9975 43.5788 48.6314 42.5776C48.6051 42.5266 48.5847 42.4683 48.5614 42.4071C48.4914 42.2161 48.417 42.0121 48.207 42.0121C48.1749 42.0121 48.1399 42.0165 48.102 42.0267C47.8657 42.1258 47.7884 42.2832 47.8657 42.5178C48.611 45.9019 49.3563 49.2642 50.122 52.6264C50.154 52.7284 50.1774 52.8377 50.2007 52.9485C50.2649 53.2443 50.3305 53.5533 50.5726 53.7675C50.8089 54.0313 51.1633 54.161 51.5192 54.161C51.9305 54.161 52.3418 53.9876 52.5737 53.6495C52.6874 53.4979 52.7603 53.326 52.8143 53.1467C52.8668 52.9674 52.8989 52.778 52.931 52.5885C52.966 52.3815 53.0025 52.1731 53.0652 51.9778C53.0871 51.87 53.1191 51.7549 53.1527 51.6368C53.2912 51.1398 53.4458 50.5831 52.9558 50.2464ZM54.0657 42.6956C53.3656 40.5795 52.6976 38.4458 52.0311 36.318V36.3151H52.0297C51.6519 35.1054 51.2742 33.8987 50.8906 32.6978C50.8891 32.6905 50.8862 32.6832 50.8818 32.6759C50.8308 32.5696 50.7958 32.4544 50.7608 32.3364C50.7447 32.2824 50.7287 32.2285 50.7112 32.1746C50.666 32.0405 50.5522 31.9706 50.437 31.9706C50.348 31.9706 50.2605 32.0114 50.2007 32.0959C50.1613 32.1455 50.1278 32.1994 50.0928 32.2533C50.0607 32.3043 50.0272 32.3568 49.9892 32.4049C49.9863 32.4092 49.9834 32.4136 49.9805 32.418C49.0427 33.8521 48.9668 35.7948 49.8084 37.2872C50.2678 38.1908 51.0452 38.8495 51.7934 39.4835L51.8488 39.5301C52.1682 40.1481 52.4584 40.785 52.7487 41.4204C52.9893 41.9494 53.23 42.4756 53.4867 42.9915C53.4925 43.0046 53.4983 43.0177 53.5013 43.0323C53.5363 43.1736 53.6165 43.213 53.7157 43.213C53.739 43.213 53.7652 43.2115 53.79 43.2072C54.0263 43.1678 54.1444 42.9128 54.0657 42.6956Z" fill="url(#paint0_radial_1864_295)"/>
  <path d="M64.7916 2.07931C64.6229 1.95883 64.398 1.95734 64.2278 2.07187L61.3684 3.96526C61.2589 4.03963 61.1819 4.15415 61.1568 4.28504C61.1301 4.41444 61.1568 4.54979 61.2323 4.66134C61.3965 4.90824 61.4839 5.19529 61.4839 5.49276C61.4839 6.32121 60.8134 6.99498 59.9891 6.99498C59.1647 6.99498 58.4943 6.32121 58.4943 5.49276C58.4943 5.0064 58.734 4.54681 59.1336 4.26422C59.3586 4.10656 59.4134 3.79421 59.255 3.56814L56.9092 0.200792C56.7242 -0.0669305 56.2787 -0.0669305 56.0937 0.200792L53.748 3.56814C53.5911 3.79421 53.6444 4.10656 53.8693 4.26422C54.2689 4.54681 54.5087 5.0064 54.5087 5.49276C54.5087 6.32121 53.8382 6.99498 53.0139 6.99498C52.1895 6.99498 51.5191 6.32121 51.5191 5.49276C51.5191 5.19529 51.6049 4.90824 51.7707 4.66134C51.8447 4.55127 51.8713 4.41593 51.8462 4.28504C51.821 4.15415 51.7441 4.03963 51.6345 3.96526L48.7752 2.07187C48.6035 1.95734 48.38 1.95883 48.2113 2.07931C48.0426 2.1983 47.9656 2.4095 48.0145 2.61029L50.0391 10.6196C50.1013 10.8725 50.344 11.0406 50.6045 10.9915C54.5176 10.337 58.4824 10.337 62.3955 10.9915C62.4222 10.9959 62.4503 10.9989 62.4769 10.9989C62.7019 10.9989 62.9047 10.8457 62.9609 10.6196L64.9855 2.61029C65.0344 2.4095 64.9574 2.19978 64.7887 2.07931H64.7916Z" fill="url(#paint1_radial_1864_295)"/>
  <defs>
    <radialGradient id="paint0_radial_1864_295" cx="0" cy="0" r="1" gradientUnits="userSpaceOnUse" gradientTransform="translate(56.0017 34.0007) scale(44.9294 44.8969)">
      <stop stop-color="white"/>
      <stop offset="0.55" stop-color="#FDFDFB"/>
      <stop offset="0.74" stop-color="#F3F1F0"/>
      <stop offset="0.88" stop-color="#E7E3E1"/>
      <stop offset="0.99" stop-color="#D9D2CF"/>
      <stop offset="1" stop-color="#D8D0CE"/>
    </radialGradient>
    <radialGradient id="paint1_radial_1864_295" cx="0" cy="0" r="1" gradientUnits="userSpaceOnUse" gradientTransform="translate(56.5022 5.49946) scale(7.14835 7.1829)">
      <stop stop-color="#FECB7C"/>
      <stop offset="0.18" stop-color="#F6C473"/>
      <stop offset="0.5" stop-color="#E9B65D"/>
      <stop offset="0.9" stop-color="#D6A239"/>
      <stop offset="1" stop-color="#CF9C30"/>
    </radialGradient>
  </defs>
</svg>