<svg width="114" height="45" viewBox="0 0 114 45" fill="none" xmlns="http://www.w3.org/2000/svg">
<rect width="114" height="45" rx="22.5" fill="#F54748"/>
<path d="M25.814 16.83L27.866 22.338H23.762L25.814 16.83ZM29.648 27H31.412L26.714 14.598H24.914L20.198 27H21.98L23.186 23.85H28.442L29.648 27ZM34.6076 25.704C35.1656 26.64 36.3356 27.18 37.5416 27.18C38.7296 27.18 39.7376 26.766 40.5656 25.956C41.3936 25.146 41.8076 24.084 41.8076 22.788C41.8076 21.474 41.3936 20.43 40.5836 19.62C39.7736 18.81 38.7656 18.414 37.5596 18.414C36.2816 18.414 35.1656 18.918 34.6076 19.854V14.022H32.9696V27H34.6076V25.704ZM34.6256 22.77C34.6256 21.924 34.9136 21.24 35.4716 20.754C36.0296 20.268 36.6776 20.016 37.4156 20.016C38.1896 20.016 38.8196 20.268 39.3416 20.79C39.8636 21.294 40.1336 21.96 40.1336 22.77C40.1336 23.58 39.8636 24.264 39.3416 24.786C38.8196 25.308 38.1896 25.578 37.4156 25.578C36.6416 25.578 35.9756 25.326 35.4356 24.822C34.8956 24.318 34.6256 23.634 34.6256 22.77ZM43.433 22.77C43.433 24.084 43.865 25.146 44.711 25.956C45.557 26.766 46.601 27.18 47.825 27.18C49.049 27.18 50.093 26.766 50.939 25.956C51.803 25.128 52.235 24.066 52.235 22.77C52.235 21.474 51.803 20.43 50.957 19.62C50.111 18.81 49.067 18.414 47.825 18.414C46.583 18.414 45.539 18.81 44.693 19.62C43.847 20.43 43.433 21.474 43.433 22.77ZM50.597 22.77C50.597 23.616 50.327 24.3 49.787 24.822C49.265 25.344 48.599 25.596 47.825 25.596C47.051 25.596 46.385 25.344 45.845 24.822C45.323 24.3 45.053 23.616 45.053 22.77C45.053 21.942 45.323 21.276 45.845 20.772C46.385 20.268 47.051 20.016 47.825 20.016C48.599 20.016 49.265 20.268 49.787 20.772C50.327 21.276 50.597 21.942 50.597 22.77ZM60.1749 23.13C60.1749 24.804 59.1489 25.578 57.7989 25.578C56.6469 25.578 55.9629 24.732 55.9629 23.346V18.594H54.3249V23.454C54.3069 25.83 55.4769 27.18 57.5649 27.18C58.5909 27.18 59.6889 26.676 60.1749 25.74V27H61.8129V18.594H60.1749V23.13ZM66.7903 15.426H65.1523V18.594H63.6403V19.98H65.1523V27H66.7903V19.98H68.5723V18.594H66.7903V15.426ZM82.3483 22.734C82.3483 23.562 82.0783 24.246 81.5203 24.768C80.9623 25.29 80.2963 25.56 79.5043 25.56C78.7123 25.56 78.0463 25.29 77.4883 24.768C76.9303 24.246 76.6603 23.562 76.6603 22.734V14.598H74.9683V22.734C74.9683 24.048 75.4003 25.128 76.2823 25.956C77.1643 26.766 78.2443 27.18 79.5043 27.18C80.7643 27.18 81.8263 26.766 82.7083 25.956C83.5903 25.128 84.0403 24.048 84.0403 22.734V14.598H82.3483V22.734ZM89.8538 23.562C90.5558 23.724 90.9878 24.048 90.9698 24.624C90.9518 25.218 90.4658 25.668 89.6918 25.722C89.1698 25.758 88.7378 25.668 88.3598 25.434C87.9818 25.236 87.7478 24.93 87.6758 24.48H86.1818C86.1998 25.29 86.5238 25.956 87.1538 26.442C87.7838 26.928 88.5038 27.18 89.3138 27.18C90.2318 27.18 90.9878 26.946 91.6178 26.496C92.2478 26.028 92.5718 25.416 92.5718 24.66C92.5718 23.382 91.8518 22.572 90.3938 22.212L89.1518 21.906C88.6298 21.744 88.2878 21.528 88.1618 21.258C88.0718 21.078 88.0718 20.862 88.1438 20.592C88.2698 20.142 88.7738 19.836 89.4038 19.836C90.0698 19.836 90.6278 20.196 90.7178 20.79H92.2838C92.1398 19.188 90.9338 18.414 89.3678 18.414C88.6118 18.414 87.9458 18.612 87.3878 19.026C86.8298 19.44 86.5058 19.944 86.4518 20.556C86.3078 22.05 87.0998 22.86 88.7018 23.292L89.8538 23.562Z" fill="white"/>
</svg>
