<svg width="120" height="40" viewBox="0 0 120 40" fill="none" xmlns="http://www.w3.org/2000/svg">
<rect x="0.5" y="0.5" width="119" height="39" rx="6.5" fill="#0C0D10"/>
<path d="M81.5257 19.2009V21.4919H80.0896V22.9943H81.5257V28.0993C81.5257 29.8425 82.3143 30.5397 84.2981 30.5397C84.6468 30.5397 84.9788 30.4982 85.2693 30.4484V28.9626C85.0203 28.9875 84.8626 29.0041 84.5887 29.0041C83.7005 29.0041 83.3104 28.589 83.3104 27.6428V22.9943H85.2693V21.4919H83.3104V19.2009H81.5257Z" fill="white"/>
<path d="M90.3232 30.6642C92.9628 30.6642 94.5815 28.8962 94.5815 25.966C94.5815 23.0524 92.9545 21.2761 90.3232 21.2761C87.6835 21.2761 86.0566 23.0524 86.0566 25.966C86.0566 28.8962 87.6752 30.6642 90.3232 30.6642ZM90.3232 29.0788C88.7709 29.0788 87.8994 27.9416 87.8994 25.966C87.8994 24.007 88.7709 22.8615 90.3232 22.8615C91.8671 22.8615 92.747 24.007 92.747 25.966C92.747 27.9333 91.8671 29.0788 90.3232 29.0788Z" fill="white"/>
<path d="M95.9664 30.4899H97.7511V25.1525C97.7511 23.8825 98.7056 23.0275 100.059 23.0275C100.374 23.0275 100.905 23.0856 101.055 23.1354V21.3757C100.864 21.3259 100.524 21.301 100.258 21.301C99.0792 21.301 98.0748 21.9484 97.8175 22.8366H97.6846V21.4504H95.9664V30.4899Z" fill="white"/>
<path d="M105.486 22.7951C106.806 22.7951 107.669 23.7165 107.711 25.1359H103.145C103.245 23.7248 104.166 22.7951 105.486 22.7951ZM107.702 28.0495C107.37 28.7551 106.632 29.1452 105.552 29.1452C104.125 29.1452 103.203 28.1408 103.145 26.5554V26.4557H109.529V25.8332C109.529 22.9943 108.009 21.2761 105.494 21.2761C102.946 21.2761 101.327 23.1105 101.327 25.9992C101.327 28.8879 102.913 30.6642 105.503 30.6642C107.57 30.6642 109.014 29.6681 109.421 28.0495H107.702Z" fill="white"/>
<path d="M69.8221 27.1518C69.9598 29.3715 71.8095 30.791 74.5626 30.791C77.505 30.791 79.3462 29.3026 79.3462 26.9281C79.3462 25.0611 78.2966 24.0287 75.7499 23.435L74.382 23.0995C72.7645 22.7209 72.1106 22.2133 72.1106 21.3272C72.1106 20.2087 73.1259 19.4774 74.6487 19.4774C76.0941 19.4774 77.0921 20.1915 77.2727 21.3358H79.1483C79.0365 19.2451 77.1953 17.7739 74.6745 17.7739C71.9644 17.7739 70.1576 19.2451 70.1576 21.4562C70.1576 23.2802 71.1815 24.3642 73.427 24.889L75.0272 25.2762C76.6705 25.6634 77.3932 26.2312 77.3932 27.1776C77.3932 28.2788 76.2575 29.0789 74.7089 29.0789C73.0484 29.0789 71.8955 28.3304 71.7321 27.1518H69.8221Z" fill="white"/>
<path d="M51.3348 21.301C50.1063 21.301 49.0437 21.9152 48.4959 22.9445H48.3631V21.4504H46.6448V33.4948H48.4295V29.1203H48.5706C49.0437 30.0749 50.0647 30.6393 51.3514 30.6393C53.6341 30.6393 55.0867 28.8381 55.0867 25.966C55.0867 23.0939 53.6341 21.301 51.3348 21.301ZM50.8284 29.0373C49.3343 29.0373 48.3963 27.8586 48.3963 25.9743C48.3963 24.0817 49.3343 22.903 50.8367 22.903C52.3475 22.903 53.2522 24.0568 53.2522 25.966C53.2522 27.8835 52.3475 29.0373 50.8284 29.0373Z" fill="white"/>
<path d="M61.3316 21.301C60.103 21.301 59.0405 21.9152 58.4927 22.9445H58.3599V21.4504H56.6416V33.4948H58.4263V29.1203H58.5674C59.0405 30.0749 60.0615 30.6393 61.3482 30.6393C63.6309 30.6393 65.0835 28.8381 65.0835 25.966C65.0835 23.0939 63.6309 21.301 61.3316 21.301ZM60.8252 29.0373C59.3311 29.0373 58.3931 27.8586 58.3931 25.9743C58.3931 24.0817 59.3311 22.903 60.8335 22.903C62.3443 22.903 63.249 24.0568 63.249 25.966C63.249 27.8835 62.3443 29.0373 60.8252 29.0373Z" fill="white"/>
<path d="M43.4428 30.4899H45.4905L41.008 18.075H38.9346L34.4521 30.4899H36.431L37.5752 27.1948H42.3072L43.4428 30.4899ZM39.8724 20.3292H40.0186L41.8168 25.5773H38.0656L39.8724 20.3292Z" fill="white"/>
<path d="M35.6514 8.71069V14.6997H37.8137C39.5984 14.6997 40.6318 13.5999 40.6318 11.6865C40.6318 9.80225 39.5901 8.71069 37.8137 8.71069H35.6514ZM36.5811 9.55737H37.71C38.9509 9.55737 39.6855 10.3459 39.6855 11.699C39.6855 13.0728 38.9634 13.853 37.71 13.853H36.5811V9.55737Z" fill="white"/>
<path d="M43.7969 14.7869C45.1167 14.7869 45.9261 13.9028 45.9261 12.4377C45.9261 10.981 45.1126 10.0928 43.7969 10.0928C42.4771 10.0928 41.6636 10.981 41.6636 12.4377C41.6636 13.9028 42.4729 14.7869 43.7969 14.7869ZM43.7969 13.9941C43.0208 13.9941 42.585 13.4255 42.585 12.4377C42.585 11.4583 43.0208 10.8855 43.7969 10.8855C44.5689 10.8855 45.0088 11.4583 45.0088 12.4377C45.0088 13.4214 44.5689 13.9941 43.7969 13.9941Z" fill="white"/>
<path d="M52.8182 10.1799H51.9259L51.1207 13.6289H51.0501L50.1205 10.1799H49.2655L48.3358 13.6289H48.2694L47.4601 10.1799H46.5553L47.8004 14.6997H48.7176L49.6473 11.3711H49.7179L50.6517 14.6997H51.5772L52.8182 10.1799Z" fill="white"/>
<path d="M53.8458 14.6997H54.7382V12.0559C54.7382 11.3503 55.1574 10.9104 55.8173 10.9104C56.4772 10.9104 56.7926 11.2715 56.7926 11.9978V14.6997H57.685V11.7737C57.685 10.6987 57.1288 10.0928 56.1203 10.0928C55.4396 10.0928 54.9914 10.3958 54.7714 10.8979H54.705V10.1799H53.8458V14.6997Z" fill="white"/>
<path d="M59.0903 14.6997H59.9826V8.41602H59.0903V14.6997Z" fill="white"/>
<path d="M63.3386 14.7869C64.6584 14.7869 65.4678 13.9028 65.4678 12.4377C65.4678 10.981 64.6543 10.0928 63.3386 10.0928C62.0188 10.0928 61.2053 10.981 61.2053 12.4377C61.2053 13.9028 62.0146 14.7869 63.3386 14.7869ZM63.3386 13.9941C62.5625 13.9941 62.1267 13.4255 62.1267 12.4377C62.1267 11.4583 62.5625 10.8855 63.3386 10.8855C64.1106 10.8855 64.5505 11.4583 64.5505 12.4377C64.5505 13.4214 64.1106 13.9941 63.3386 13.9941Z" fill="white"/>
<path d="M68.1265 14.0232C67.6409 14.0232 67.2881 13.7866 67.2881 13.3799C67.2881 12.9814 67.5704 12.7698 68.1929 12.7283L69.2969 12.6577V13.0354C69.2969 13.5957 68.7989 14.0232 68.1265 14.0232ZM67.8982 14.7744C68.4917 14.7744 68.9856 14.5171 69.2554 14.0647H69.326V14.6997H70.1851V11.6118C70.1851 10.6572 69.5459 10.0928 68.4129 10.0928C67.3877 10.0928 66.6573 10.5908 66.566 11.3669H67.4292C67.5289 11.0474 67.8733 10.8647 68.3714 10.8647C68.9815 10.8647 69.2969 11.1345 69.2969 11.6118V12.002L68.0726 12.0725C66.9976 12.1389 66.3916 12.6079 66.3916 13.4214C66.3916 14.2473 67.0267 14.7744 67.8982 14.7744Z" fill="white"/>
<path d="M73.2132 14.7744C73.8358 14.7744 74.3629 14.4797 74.6327 13.9858H74.7032V14.6997H75.5582V8.41602H74.6659V10.8979H74.5995C74.3546 10.3999 73.8316 10.1052 73.2132 10.1052C72.0719 10.1052 71.3373 11.01 71.3373 12.4377C71.3373 13.8696 72.0636 14.7744 73.2132 14.7744ZM73.4664 10.9062C74.2135 10.9062 74.6825 11.4998 74.6825 12.4419C74.6825 13.3882 74.2176 13.9734 73.4664 13.9734C72.711 13.9734 72.2586 13.3965 72.2586 12.4377C72.2586 11.4873 72.7152 10.9062 73.4664 10.9062Z" fill="white"/>
<path d="M81.3447 14.7869C82.6645 14.7869 83.4738 13.9028 83.4738 12.4377C83.4738 10.981 82.6604 10.0928 81.3447 10.0928C80.0249 10.0928 79.2114 10.981 79.2114 12.4377C79.2114 13.9028 80.0207 14.7869 81.3447 14.7869ZM81.3447 13.9941C80.5686 13.9941 80.1328 13.4255 80.1328 12.4377C80.1328 11.4583 80.5686 10.8855 81.3447 10.8855C82.1166 10.8855 82.5566 11.4583 82.5566 12.4377C82.5566 13.4214 82.1166 13.9941 81.3447 13.9941Z" fill="white"/>
<path d="M84.655 14.6997H85.5474V12.0559C85.5474 11.3503 85.9666 10.9104 86.6265 10.9104C87.2864 10.9104 87.6018 11.2715 87.6018 11.9978V14.6997H88.4941V11.7737C88.4941 10.6987 87.938 10.0928 86.9294 10.0928C86.2488 10.0928 85.8005 10.3958 85.5806 10.8979H85.5142V10.1799H84.655V14.6997Z" fill="white"/>
<path d="M92.6039 9.05518V10.2007H91.8858V10.9519H92.6039V13.5044C92.6039 14.376 92.9981 14.7246 93.9901 14.7246C94.1644 14.7246 94.3304 14.7039 94.4757 14.679V13.936C94.3512 13.9485 94.2723 13.9568 94.1353 13.9568C93.6913 13.9568 93.4962 13.7493 93.4962 13.2761V10.9519H94.4757V10.2007H93.4962V9.05518H92.6039Z" fill="white"/>
<path d="M95.6735 14.6997H96.5658V12.0601C96.5658 11.3752 96.9726 10.9146 97.703 10.9146C98.3339 10.9146 98.6701 11.2798 98.6701 12.002V14.6997H99.5624V11.782C99.5624 10.707 98.9689 10.0969 98.006 10.0969C97.3253 10.0969 96.848 10.3999 96.6281 10.9062H96.5575V8.41602H95.6735V14.6997Z" fill="white"/>
<path d="M102.781 10.8523C103.441 10.8523 103.873 11.313 103.894 12.0227H101.611C101.661 11.3171 102.122 10.8523 102.781 10.8523ZM103.89 13.4795C103.724 13.8323 103.354 14.0273 102.815 14.0273C102.101 14.0273 101.64 13.5251 101.611 12.7324V12.6826H104.803V12.3713C104.803 10.9519 104.043 10.0928 102.786 10.0928C101.511 10.0928 100.702 11.01 100.702 12.4543C100.702 13.8987 101.495 14.7869 102.79 14.7869C103.823 14.7869 104.545 14.2888 104.749 13.4795H103.89Z" fill="white"/>
<path d="M24.769 20.3011C24.7907 18.6201 25.6934 17.0295 27.1256 16.149C26.2221 14.8587 24.7088 14.0406 23.1344 13.9913C21.4552 13.8151 19.8272 14.9962 18.9715 14.9962C18.0992 14.9962 16.7817 14.0088 15.363 14.038C13.5137 14.0978 11.7898 15.1491 10.8901 16.7659C8.95607 20.1143 10.3987 25.0354 12.2513 27.742C13.1782 29.0673 14.2615 30.5478 15.6789 30.4953C17.066 30.4377 17.584 29.6108 19.2583 29.6108C20.9171 29.6108 21.4031 30.4953 22.8493 30.4619C24.3377 30.4377 25.2754 29.1306 26.1698 27.7927C26.8358 26.8484 27.3483 25.8047 27.6882 24.7002C25.9391 23.9604 24.771 22.2002 24.769 20.3011Z" fill="white"/>
<path d="M22.0373 12.2113C22.8489 11.2371 23.2487 9.98494 23.1518 8.7207C21.912 8.85092 20.7668 9.44348 19.9443 10.3803C19.14 11.2956 18.7214 12.5258 18.8006 13.7417C20.0408 13.7545 21.2601 13.178 22.0373 12.2113Z" fill="white"/>
<rect x="0.5" y="0.5" width="119" height="39" rx="6.5" stroke="#A6A6A6"/>
</svg>
