<svg width="162" height="45" viewBox="0 0 162 45" fill="none" xmlns="http://www.w3.org/2000/svg">
<rect width="162" height="45" rx="22.5" fill="#F54748"/>
<path d="M26.498 27C28.226 27 29.594 26.424 30.584 25.272C31.574 24.102 32.078 22.626 32.078 20.826C32.078 19.008 31.574 17.532 30.566 16.362C29.576 15.192 28.208 14.598 26.498 14.598H21.692V27H26.498ZM23.366 16.164H26.498C27.74 16.164 28.712 16.596 29.378 17.478C30.062 18.342 30.404 19.458 30.404 20.826C30.404 22.176 30.062 23.292 29.378 24.156C28.712 25.002 27.74 25.434 26.498 25.434H23.366V16.164ZM33.8354 22.77C33.8354 24.084 34.2674 25.146 35.1134 25.956C35.9594 26.766 37.0034 27.18 38.2274 27.18C39.4514 27.18 40.4954 26.766 41.3414 25.956C42.2054 25.128 42.6374 24.066 42.6374 22.77C42.6374 21.474 42.2054 20.43 41.3594 19.62C40.5134 18.81 39.4694 18.414 38.2274 18.414C36.9854 18.414 35.9414 18.81 35.0954 19.62C34.2494 20.43 33.8354 21.474 33.8354 22.77ZM40.9994 22.77C40.9994 23.616 40.7294 24.3 40.1894 24.822C39.6674 25.344 39.0014 25.596 38.2274 25.596C37.4534 25.596 36.7874 25.344 36.2474 24.822C35.7254 24.3 35.4554 23.616 35.4554 22.77C35.4554 21.942 35.7254 21.276 36.2474 20.772C36.7874 20.268 37.4534 20.016 38.2274 20.016C39.0014 20.016 39.6674 20.268 40.1894 20.772C40.7294 21.276 40.9994 21.942 40.9994 22.77ZM57.133 18.594H55.387L53.281 24.48L51.175 18.594H49.591L47.485 24.48L45.379 18.594H43.633L46.837 27H48.169L50.383 20.826L52.669 27H54.019L57.133 18.594ZM60.5177 22.464C60.5177 20.808 61.5797 20.016 62.8937 20.016C64.0457 20.016 64.7477 20.862 64.7477 22.248V27H66.3857V22.14C66.3857 19.764 65.2337 18.414 63.1457 18.414C62.1197 18.414 61.0037 18.918 60.5177 19.854V18.594H58.8797V27H60.5177V22.464ZM69.0223 27H70.6603V14.022H69.0223V27ZM72.8413 22.77C72.8413 24.084 73.2733 25.146 74.1193 25.956C74.9653 26.766 76.0093 27.18 77.2333 27.18C78.4573 27.18 79.5013 26.766 80.3473 25.956C81.2113 25.128 81.6433 24.066 81.6433 22.77C81.6433 21.474 81.2113 20.43 80.3653 19.62C79.5193 18.81 78.4753 18.414 77.2333 18.414C75.9913 18.414 74.9473 18.81 74.1013 19.62C73.2553 20.43 72.8413 21.474 72.8413 22.77ZM80.0053 22.77C80.0053 23.616 79.7353 24.3 79.1953 24.822C78.6733 25.344 78.0073 25.596 77.2333 25.596C76.4593 25.596 75.7933 25.344 75.2533 24.822C74.7313 24.3 74.4613 23.616 74.4613 22.77C74.4613 21.942 74.7313 21.276 75.2533 20.772C75.7933 20.268 76.4593 20.016 77.2333 20.016C78.0073 20.016 78.6733 20.268 79.1953 20.772C79.7353 21.276 80.0053 21.942 80.0053 22.77ZM92.1031 27V14.022H90.4651V19.854C89.9071 18.918 88.7731 18.414 87.4951 18.414C86.3071 18.414 85.2991 18.81 84.4891 19.62C83.6791 20.43 83.2651 21.474 83.2651 22.788C83.2651 24.084 83.6791 25.146 84.4891 25.956C85.3171 26.766 86.3251 27.18 87.5131 27.18C88.7371 27.18 89.9071 26.64 90.4651 25.704V27H92.1031ZM87.6571 20.016C88.3951 20.016 89.0431 20.268 89.6011 20.754C90.1591 21.24 90.4471 21.924 90.4471 22.77C90.4471 23.616 90.1771 24.3 89.6191 24.822C89.0791 25.326 88.4311 25.578 87.6571 25.578C86.8831 25.578 86.2351 25.308 85.7131 24.786C85.1911 24.264 84.9391 23.58 84.9391 22.77C84.9391 21.96 85.1911 21.294 85.7131 20.79C86.2351 20.268 86.8831 20.016 87.6571 20.016ZM95.9246 22.14C96.1226 20.754 97.1666 19.89 98.5886 19.89C99.9566 19.89 100.947 20.754 101.145 22.14H95.9246ZM102.765 22.77C102.765 21.456 102.369 20.412 101.577 19.62C100.803 18.81 99.7946 18.414 98.5886 18.414C97.3646 18.414 96.3386 18.81 95.5106 19.62C94.7006 20.412 94.2866 21.456 94.2866 22.77C94.2866 24.084 94.7006 25.146 95.5106 25.956C96.3386 26.766 97.3646 27.18 98.5886 27.18C100.263 27.18 101.757 26.388 102.459 24.948L101.775 24.696C101.451 24.57 101.217 24.462 101.055 24.408C100.605 25.218 99.6686 25.704 98.6426 25.704C97.2026 25.704 96.1226 24.804 95.9246 23.418H102.747C102.765 23.292 102.765 23.076 102.765 22.77ZM113.406 16.83L115.458 22.338H111.354L113.406 16.83ZM117.24 27H119.004L114.306 14.598H112.506L107.79 27H109.572L110.778 23.85H116.034L117.24 27ZM120.561 18.594V31.086H122.199V25.74C122.721 26.676 123.909 27.18 125.133 27.18C126.321 27.18 127.311 26.784 128.121 25.974C128.931 25.164 129.345 24.12 129.345 22.824C129.345 21.51 128.931 20.448 128.121 19.638C127.311 18.828 126.303 18.414 125.133 18.414C123.927 18.414 122.757 18.972 122.199 19.908V18.594H120.561ZM122.217 22.842C122.217 21.978 122.487 21.294 123.009 20.79C123.549 20.268 124.197 20.016 124.971 20.016C125.745 20.016 126.375 20.286 126.897 20.808C127.419 21.33 127.689 22.014 127.689 22.842C127.689 24.48 126.537 25.578 124.971 25.578C124.233 25.578 123.603 25.344 123.045 24.858C122.487 24.372 122.217 23.688 122.217 22.842ZM131.53 18.594V31.086H133.168V25.74C133.69 26.676 134.878 27.18 136.102 27.18C137.29 27.18 138.28 26.784 139.09 25.974C139.9 25.164 140.314 24.12 140.314 22.824C140.314 21.51 139.9 20.448 139.09 19.638C138.28 18.828 137.272 18.414 136.102 18.414C134.896 18.414 133.726 18.972 133.168 19.908V18.594H131.53ZM133.186 22.842C133.186 21.978 133.456 21.294 133.978 20.79C134.518 20.268 135.166 20.016 135.94 20.016C136.714 20.016 137.344 20.286 137.866 20.808C138.388 21.33 138.658 22.014 138.658 22.842C138.658 24.48 137.506 25.578 135.94 25.578C135.202 25.578 134.572 25.344 134.014 24.858C133.456 24.372 133.186 23.688 133.186 22.842Z" fill="white"/>
</svg>
