<svg width="113" height="135" viewBox="0 0 113 135" fill="none" xmlns="http://www.w3.org/2000/svg">
<path d="M175 6.63729C175 6.63729 138.738 13.7275 96.2454 39.881C53.7532 66.0344 43.1126 86.4288 43.1126 86.4288M137.497 16.7875C137.497 16.7875 132.874 13.1547 129.168 11.6674C125.463 10.1801 117.938 7.72429 116.058 6.8675C114.18 6.01134 107.187 -0.313371 106.461 1.24627C105.735 2.80592 109.487 7.75167 112.209 8.7991C114.931 9.84653 116.825 10.1685 120.323 11.7157C123.821 13.2629 129.307 17.0977 130.316 17.3197C131.965 17.6835 132.75 16.04 131.015 15.4299C129.28 14.8199 125.916 15.8663 123.849 15.8973C121.782 15.9282 99.5338 13.4728 96.7457 12.7344C93.9575 11.9961 87.1655 13.475 95.9989 16.2304C104.832 18.9859 118.35 17.9022 125.886 19.2265C133.422 20.5538 133.422 20.5538 133.422 20.5538M140.685 17.5322C140.649 17.631 125.734 27.2741 117.866 37.4533C109.998 47.6325 119.778 39.0724 121.483 37.5173C123.19 35.9629 128.156 32.0223 132.678 28.3054C135.27 26.1767 137.863 24.6479 139.791 23.5518M139.791 23.5518C140.578 20.9494 140.478 19.4654 142.057 19.3303C143.891 19.1752 143.709 20.7837 142.719 21.7423C142.295 22.1518 141.227 22.7329 139.791 23.5518ZM139.791 23.5518C139.22 25.4412 138.631 27.7155 138.018 29.8356C137.461 31.7672 136.884 33.568 136.289 34.8363C134.133 39.4132 123.327 51.4062 121.269 54.602C119.213 57.8015 110.597 69.6454 111.826 70.7858C113.056 71.9262 115.93 67.1881 117.055 65.6118C118.005 64.2747 133.443 44.04 140.258 32.8801M140.258 32.8801C141.503 30.8385 142.46 29.1046 142.987 27.8401C145.162 22.6325 146.104 17.9752 146.502 15.2848M140.258 32.8801C139.682 34.5515 138.758 36.8633 137.269 39.9062C133.61 47.3767 122.647 61.489 121.684 62.7778C120.72 64.0697 116.448 72.5843 123.732 64.2139C131.017 55.8405 137.207 45.7121 138.778 42.944C140.353 40.1735 142.408 36.9771 144.188 30.481C145.968 23.988 144.975 22.9012 144.975 22.9012M139.067 26.071C139.067 26.071 120.105 44.4222 117.473 49.8633C114.839 55.3007 112.612 59.7546 119.826 51.2581C127.04 42.7616 131.629 36.9049 133.126 35.4129C134.622 33.9208 138.021 29.8393 138.021 29.8393M127.352 19.4807C123.373 21.4281 113.463 26.2258 109.337 27.7606C104.11 29.7042 96.6444 32.9554 92.7766 33.5961C88.9087 34.2368 80.1268 35.3721 89.9987 31.8977C99.8684 28.4196 109.063 24.8987 112.29 23.5814C113.425 23.119 114.668 22.3119 115.859 21.5347M115.859 21.5347C118.047 20.1054 120.039 18.7807 120.796 19.908C121.197 20.5044 119.027 21.0467 115.859 21.5347ZM115.859 21.5347C109.803 22.4706 100.097 23.2053 97.7291 23.7321C94.1223 24.5324 82.8077 26.4972 78.8925 26.9036C74.9773 27.31 69.3412 27.965 69.3412 27.965C69.3412 27.965 59.4383 27.4529 69.2986 24.9449C79.1617 22.4374 105.117 19.4781 105.117 19.4781L110.583 18.2238L110.586 18.2214M108.483 48.7282C106.237 53.6995 102.28 62.7164 98.4783 72.611C92.7305 87.5803 94.187 84.8932 90.6339 93.2497C87.0843 101.604 87.9481 94.7964 88.7129 92.5975C89.4771 90.4017 91.3227 83.5996 92.849 79.2043C93.674 76.8343 96.3154 70.355 99.1044 63.5722M108.483 48.7282C108.612 48.2747 108.75 47.7939 108.896 47.2761C111.726 37.2489 112.758 32.4175 112.758 32.4175C112.758 32.4175 108.491 34.4684 100.888 45.2455C93.2867 56.0263 91.4325 60.5613 90.3671 62.799C89.2988 65.0362 86.8771 74.0799 92.3504 64.5412C97.8231 55.0055 102.501 48.4982 104.702 46.0023C105.419 45.1892 106.396 44.0819 107.341 42.9218M108.483 48.7282C106.083 57.0737 106.119 55.3288 102.121 67.5089C97.9057 80.3494 103.533 70.0905 104.461 68.0388C105.392 65.9877 109.355 55.2448 111.502 46.5732C113.256 39.4814 114.759 31.7429 115.247 29.154M99.1044 63.5722C99.105 63.5691 99.1057 63.566 99.1057 63.566M99.1044 63.5722C97.4531 65.499 95.0306 68.5767 93.0177 72.1132C89.6021 78.1126 87.2761 84.6212 81.9566 93.4397C76.6371 102.258 79.3099 94.3472 80.1452 92.2744C80.9805 90.2016 89.145 72.6524 94.5079 65.1367C97.6171 60.779 100.345 57.9293 102.091 56.3058M99.1044 63.5722C99.1044 63.5722 99.1085 63.5666 99.1057 63.566M99.1057 63.566C100.108 61.126 101.131 58.6452 102.091 56.3058M102.091 56.3058L102.092 56.3027C103.42 53.0712 104.635 50.1057 105.533 47.8594C106.299 45.949 106.879 44.308 107.341 42.9218M107.341 42.9218C108.896 38.2121 109.033 36.4511 110.108 37.1967C111.095 37.8805 109.292 40.5152 107.341 42.9218ZM99.4432 37.9413C97.0852 38.1462 92.91 38.5261 88.5901 39.0029L88.5873 39.0022M88.5873 39.0022C85.0116 39.3948 81.342 39.8535 78.526 40.3371C78.526 40.3371 78.526 40.3371 78.5232 40.3364M88.5873 39.0022C84.6438 37.9796 76.0929 36.0302 65.4464 35.1715C50.6818 33.9829 42.7787 39.7373 41.5502 40.4313C40.3223 41.1221 37.7641 43.4529 42.4813 42.0421C47.2012 40.6319 50.2862 38.5987 60.5946 38.5804C68.0533 38.5682 75.1597 39.7076 78.5232 40.3364M78.5232 40.3364C77.7111 40.4766 76.972 40.6203 76.3247 40.7621C69.3223 42.3003 46.8818 49.9346 43.0994 51.5571C39.317 53.1796 30.6344 59.8333 44.2423 54.9398C57.853 50.047 64.9092 47.8015 67.2895 46.7592C67.8456 46.5189 69.2706 46.1903 71.1202 45.8087M71.1202 45.8087C74.0328 45.2044 77.9927 44.4647 81.2261 43.7127M71.1202 45.8087C65.2321 49.3848 53.6693 56.3261 46.0203 60.4075C35.3835 66.0808 39.8575 67.2041 48.0435 63.3447C54.1118 60.4867 71.9427 48.8402 81.2261 43.7127M81.2261 43.7127C84.7478 42.8964 87.4138 42.0646 86.9596 41.3719C86.6652 40.9261 84.4659 41.922 81.2261 43.7127ZM87.6518 45.372C87.2048 48.197 86.2836 53.3386 84.9722 57.2674C83.0643 62.9795 76.1242 86.7362 73.0351 93.8465C69.946 100.957 68.2014 103.154 70.7883 93.3377C73.3751 83.5212 78.5045 69.1669 79.6839 65.0138C80.8654 60.8645 82.6714 55.5603 82.6714 55.5603C82.6714 55.5603 63.4168 85.5761 62.3435 87.3811C61.2702 89.1861 52.322 98.7967 61.1493 84.4177C69.9745 70.0351 75.162 61.8348 79.1614 55.5205C80.9385 52.7147 82.4324 50.143 83.546 48.1495M60.0443 66.7623C59.1756 73.3579 56.743 91.0061 54.4542 99.4966C51.6107 110.059 47.8174 121.378 47.3681 122.569C46.916 123.76 41.6407 132.371 45.4827 121.28C49.3247 110.189 52.3272 103.001 54.5718 90.9033C56.0513 82.9133 57.0827 74.1186 57.6135 69.0635M55.4237 71.2314C53.3124 70.5167 47.874 69.0162 40.4461 69.4923C30.7955 70.1068 17.8924 72.1429 10.6302 73.5153C3.36794 74.8877 2.45205 77.8075 12.2521 76.0376C22.0514 74.2708 32.3782 73.2683 36.898 72.7817C41.4171 72.2982 46.6007 72.393 48.9354 72.4907C50.4393 72.5526 52.3158 72.971 53.4614 73.2596C52.4607 77.4888 42.8427 110.659 38.4557 119.258C34.0659 127.856 35.2735 122.202 35.9455 119.982C36.6139 117.765 39.4841 108.93 43.0235 99.7112C46.5636 90.4897 49.3636 80.1317 49.5123 78.9794C49.5861 78.4128 49.483 78.2047 49.0057 78.2554C48.5179 78.3005 47.6387 78.6166 46.1523 79.0805C44.9252 79.4636 42.938 80.1025 40.5809 80.8973M40.5809 80.8973C37.308 82.0001 33.3276 83.4027 29.7083 84.8418C23.4868 87.3119 15.6657 90.3887 6.64944 96.753C-2.36683 103.117 1.15873 98.0956 5.22127 94.7056C9.28381 91.3156 13.9342 88.3795 22.3727 84.7199C30.8113 81.0603 42.0229 77.2834 45.8373 76.4232C47.7445 75.9931 49.7532 75.7512 51.2938 75.614M40.5809 80.8973C38.0582 83.3107 33.8608 87.208 30.659 89.5809C25.7597 93.2124 18.1687 97.9616 13.0227 102.292C7.87944 106.624 2.93364 113.693 2.28782 114.408C1.6448 115.125 -1.09126 121.508 4.29297 116.048C9.68067 110.586 9.1915 110.583 15.2077 104.942C19.3312 101.073 28.9374 93.9094 36.7188 88.5034M45.5687 82.6555C43.4739 83.9084 40.2897 86.0196 36.7188 88.5034M36.7188 88.5034C34.1173 91.3687 30.8779 95.3405 28.1648 99.8753C22.6308 109.131 17.3367 119.323 13.0007 129.051C8.66458 138.78 14.8388 131.474 15.8106 129.688C16.7796 127.901 20.1024 120.167 26.2936 108.635C29.7422 102.219 35.0877 96.7475 38.722 92.93M38.722 92.93C39.5752 89.6266 40.3067 86.2438 42.3316 87.3213C43.4264 87.903 41.6145 89.8907 38.722 92.93ZM38.722 92.93C38.5346 93.6555 38.3421 94.3767 38.1286 95.0446C36.9414 98.7649 34.8316 104.966 32.4476 109.922C30.0636 114.878 27.1151 119.493 22.921 126.732C18.7242 133.97 23.011 129.986 24.3195 128.449C25.6301 126.914 28.5743 123.702 34.4026 111.12C40.2309 98.5376 44.3289 86.7042 44.3289 86.7042" stroke="#3DA42D" stroke-width="2" stroke-miterlimit="10"/>
</svg>
