<svg width="46" height="46" viewBox="0 0 46 46" fill="none" xmlns="http://www.w3.org/2000/svg">
<path d="M40.9683 18.8313C40.9683 18.8313 38.812 20.8438 35.1464 23.2156C34.1402 17.3937 31.337 10.2063 25.8745 1.4375C25.8745 1.4375 24.0777 10.8531 18.112 19.6938C15.5245 15.6687 14.3745 12.5062 14.3745 12.5062C-4.31297 31.2656 11.212 44.5625 20.987 44.5625C33.4933 44.5625 44.4902 38.525 40.9683 18.8313Z" fill="#FF9D33"/>
<path d="M33.5654 35.5064C34.6436 33.1346 35.4342 30.0439 35.5779 26.1627C35.5779 26.1627 34.0686 27.4564 31.4811 29.1096C30.7623 25.2283 28.8217 20.4846 25.0123 14.5908C25.0123 14.5908 23.7904 20.8439 19.6217 26.8096C17.8248 24.1502 17.0342 21.9939 17.0342 21.9939C13.9436 26.8814 12.7217 30.7627 12.6498 33.8533C10.9248 33.2064 9.84668 32.7033 9.84668 32.7033C12.7936 41.4721 18.9029 43.4127 21.6342 43.4127C26.5217 43.4127 31.4811 41.9752 36.3686 35.0033C36.3686 34.9314 35.2904 35.2189 33.5654 35.5064Z" fill="#FFCE31"/>
<path d="M15.7409 31.5531C15.7409 31.5531 17.7534 34.2844 19.2628 33.6375C19.2628 33.6375 22.1378 29.1094 26.3066 26.5938C26.3066 26.5938 25.4441 33.4937 26.4503 34.7156C27.7441 36.3687 31.2659 32.9187 31.2659 32.9187C31.2659 37.0156 26.8097 42.1187 22.7847 42.1187C18.9034 42.1187 13.2972 37.6625 15.7409 31.5531Z" fill="#FFDF85"/>
<path d="M35.7942 13.009C37.3036 10.8527 38.3098 8.55273 38.3098 8.55273C40.8255 12.7215 39.3161 15.2371 38.238 16.0277C36.7286 17.1777 34.0692 15.5246 35.7942 13.009Z" fill="#FF9D33"/>
<path d="M8.33764 12.2904C6.82826 9.77481 6.68451 6.6123 6.68451 6.6123C3.09076 12.0029 4.45639 15.0217 5.67826 15.8842C7.25951 17.1061 9.99076 15.2373 8.33764 12.2904Z" fill="#FF9D33"/>
<path d="M16.675 6.68438C16.8906 4.95938 16.1719 3.23438 16.1719 3.23438C19.55 5.4625 19.55 7.33125 19.1188 8.12188C18.4719 9.05625 16.4594 8.625 16.675 6.68438Z" fill="#FF9D33"/>
</svg>
