<svg xmlns:inkscape="http://www.inkscape.org/namespaces/inkscape" xmlns:sodipodi="http://sodipodi.sourceforge.net/DTD/sodipodi-0.dtd" xmlns="http://www.w3.org/2000/svg" xmlns:svg="http://www.w3.org/2000/svg" xmlns:rdf="http://www.w3.org/1999/02/22-rdf-syntax-ns#" xmlns:cc="http://creativecommons.org/ns#" xmlns:dc="http://purl.org/dc/elements/1.1/" viewBox="0 0 8.995833 11.244792375" version="1.1" x="0px" y="0px"><g style="" display="inline"><path style="color:#000000;" d="m 1.3229167,1.4820797 a 0.52916503,0.52916503 0 0 0 -0.52916703,0.527617 0.52916503,0.52916503 0 0 0 0.52916703,0.529166 h 6.349483 a 0.52916503,0.52916503 0 0 0 0.529684,-0.529166 0.52916503,0.52916503 0 0 0 -0.529684,-0.527617 z m 0,2.48667 a 0.52916503,0.52916503 0 0 0 -0.52916703,0.529167 0.52916503,0.52916503 0 0 0 0.52916703,0.529167 h 6.349483 a 0.52916503,0.52916503 0 0 0 0.529684,-0.529167 0.52916503,0.52916503 0 0 0 -0.529684,-0.529167 z m 0,2.488221 a 0.52916503,0.52916503 0 0 0 -0.52916703,0.529166 0.52916503,0.52916503 0 0 0 0.52916703,0.527617 h 6.349483 a 0.52916503,0.52916503 0 0 0 0.529684,-0.527617 0.52916503,0.52916503 0 0 0 -0.529684,-0.529166 z" fill="#000000" stroke-linecap="round" stroke-linejoin="round"/></g><text x="0" y="23.9958339" fill="#000000" font-size="5px" font-weight="bold" font-family="'Helvetica Neue', Helvetica, Arial-Unicode, Arial, Sans-serif">Created by Larea</text><text x="0" y="28.9958339" fill="#000000" font-size="5px" font-weight="bold" font-family="'Helvetica Neue', Helvetica, Arial-Unicode, Arial, Sans-serif">from the Noun Project</text></svg>