<svg xmlns="http://www.w3.org/2000/svg" width="24" height="24" viewBox="0 0 24 24" fill="none">
  <path d="M7.71408 0.856934H2.57122C1.62445 0.856934 0.856934 1.62445 0.856934 2.57122V7.71408C0.856934 8.66085 1.62445 9.42836 2.57122 9.42836H7.71408C8.66085 9.42836 9.42836 8.66085 9.42836 7.71408V2.57122C9.42836 1.62445 8.66085 0.856934 7.71408 0.856934Z" stroke="black" stroke-width="1.4" stroke-linecap="round" stroke-linejoin="round"/>
  <path d="M21.4284 0.856934H16.2856C15.3388 0.856934 14.5713 1.62445 14.5713 2.57122V7.71408C14.5713 8.66085 15.3388 9.42836 16.2856 9.42836H21.4284C22.3752 9.42836 23.1427 8.66085 23.1427 7.71408V2.57122C23.1427 1.62445 22.3752 0.856934 21.4284 0.856934Z" stroke="black" stroke-width="1.4" stroke-linecap="round" stroke-linejoin="round"/>
  <path d="M7.71408 14.5713H2.57122C1.62445 14.5713 0.856934 15.3388 0.856934 16.2856V21.4284C0.856934 22.3752 1.62445 23.1427 2.57122 23.1427H7.71408C8.66085 23.1427 9.42836 22.3752 9.42836 21.4284V16.2856C9.42836 15.3388 8.66085 14.5713 7.71408 14.5713Z" stroke="black" stroke-width="1.4" stroke-linecap="round" stroke-linejoin="round"/>
  <path d="M21.4284 14.5713H16.2856C15.3388 14.5713 14.5713 15.3388 14.5713 16.2856V21.4284C14.5713 22.3752 15.3388 23.1427 16.2856 23.1427H21.4284C22.3752 23.1427 23.1427 22.3752 23.1427 21.4284V16.2856C23.1427 15.3388 22.3752 14.5713 21.4284 14.5713Z" stroke="black" stroke-width="1.4" stroke-linecap="round" stroke-linejoin="round"/>
</svg>