<svg xmlns="http://www.w3.org/2000/svg" width="24" height="24" viewBox="0 0 24 24" fill="none">
  <path fill-rule="evenodd" clip-rule="evenodd" d="M11.3425 17.4535H12.3493C12.3493 17.4535 12.6534 17.4202 12.8087 17.2528C12.9516 17.0991 12.947 16.8105 12.947 16.8105C12.947 16.8105 12.9273 15.4596 13.5543 15.2607C14.1724 15.0647 14.9661 16.5663 15.8074 17.1437C16.4435 17.5807 16.9269 17.4849 16.9269 17.4849L19.1763 17.4535C19.1763 17.4535 20.353 17.3811 19.795 16.4559C19.7493 16.3802 19.4701 15.7715 18.1226 14.5207C16.7122 13.2116 16.9011 13.4234 18.6 11.1589C19.6347 9.77983 20.0484 8.93789 19.9192 8.57728C19.7959 8.23383 19.035 8.32461 19.035 8.32461L16.5023 8.34039C16.5023 8.34039 16.3145 8.31478 16.1753 8.39801C16.0392 8.47964 15.9516 8.66989 15.9516 8.66989C15.9516 8.66989 15.5508 9.73707 15.0162 10.6446C13.8884 12.5597 13.4375 12.6608 13.2532 12.5419C12.8244 12.2647 12.9315 11.4285 12.9315 10.8344C12.9315 8.97859 13.2129 8.20479 12.3834 8.00448C12.108 7.93794 11.9054 7.89404 11.2014 7.88695C10.2977 7.87757 9.53283 7.88969 9.09974 8.10189C8.81163 8.24298 8.58937 8.55739 8.72474 8.57546C8.89212 8.59786 9.27124 8.67767 9.47224 8.95138C9.73177 9.30443 9.72262 10.0974 9.72262 10.0974C9.72262 10.0974 9.87171 12.2821 9.37437 12.5535C9.03297 12.7396 8.56467 12.3596 7.55924 10.6222C7.04406 9.73226 6.6551 8.74855 6.6551 8.74855C6.6551 8.74855 6.5801 8.56471 6.44633 8.46638C6.28398 8.34725 6.05715 8.30929 6.05715 8.30929L3.65046 8.32507C3.65046 8.32507 3.28917 8.33513 3.15655 8.49222C3.03856 8.63194 3.14717 8.92097 3.14717 8.92097C3.14717 8.92097 5.03136 13.3291 7.16479 15.5506C9.12101 17.5873 11.3425 17.4535 11.3425 17.4535Z" fill="black"/>
</svg>