<svg width="509" height="345" viewBox="0 0 509 345" fill="none" xmlns="http://www.w3.org/2000/svg">
<mask id="mask0_0_1" style="mask-type:alpha" maskUnits="userSpaceOnUse" x="0" y="0" width="509" height="509">
<circle cx="254.5" cy="254.5" r="254.5" fill="white"/>
</mask>
<g mask="url(#mask0_0_1)">
<circle cx="254.5" cy="254.5" r="253.268" fill="#124F48"/>
<path d="M-11.0438 -103.822C19.4945 -63.3545 100.683 14.3955 181.13 1.65521C281.689 -14.2702 344.484 -46.6656 382.065 26.9156C419.647 100.497 431.152 149.625 493.337 143.265C555.522 136.904 594.883 215.726 588.532 239.428" stroke="#124F48" stroke-width="4"/>
<path d="M-39.6333 -18.8572C-9.09499 21.6104 72.0934 99.3604 152.541 86.6201C253.099 70.6948 315.894 38.2994 353.476 111.881C391.057 185.462 402.563 234.59 464.748 228.23C526.933 221.869 566.294 300.691 559.942 324.393" stroke="#FF7715" stroke-width="4"/>
<path d="M-66.1171 79.9816C-35.6337 120.654 45.4594 198.76 125.965 185.802C226.597 169.604 289.475 136.896 326.949 210.88C364.422 284.865 375.85 334.286 438.074 327.779C500.298 321.273 539.542 400.527 533.148 424.391" stroke="#FF823B" stroke-width="4"/>
<path d="M-113.969 172.906C-83.4852 213.578 -2.39204 291.683 78.1134 278.725C178.745 262.528 241.624 229.82 279.097 303.804C316.571 377.789 327.998 427.21 390.222 420.703C452.446 414.196 491.691 493.451 485.297 517.315" stroke="#71BBFF" stroke-width="4"/>
<path d="M-133.998 257.913C-103.46 298.38 -22.2717 376.13 58.1754 363.39C158.734 347.465 221.529 315.069 259.11 388.65C296.692 462.232 308.198 511.36 370.383 505C432.568 498.639 471.928 577.461 465.577 601.163" stroke="#FFCA45" stroke-width="4"/>
</g>
</svg>
