<svg width="118" height="42" viewBox="0 0 118 42" fill="none" xmlns="http://www.w3.org/2000/svg">
<path d="M8 38H19C21.2091 38 23 36.2091 23 34V8C23 6.34315 21.6569 5 20 5H11C9.34315 5 8 6.34315 8 8V38Z" fill="#124F48"/>
<path d="M17 13C17 11.3431 15.6569 10 14 10H3C1.34315 10 0 11.3431 0 13V33H15C16.1046 33 17 32.1046 17 31V13Z" fill="#FF823B"/>
<circle cx="5.5" cy="5.5" r="5.5" transform="matrix(1 0 0 -1 3 27)" fill="#124F48"/>
<path d="M42.2031 33C42.0156 32.625 41.8633 31.957 41.7461 30.9961C40.2344 32.5664 38.4297 33.3516 36.332 33.3516C34.457 33.3516 32.916 32.8242 31.709 31.7695C30.5137 30.7031 29.916 29.3555 29.916 27.7266C29.916 25.7461 30.666 24.2109 32.166 23.1211C33.6777 22.0195 35.7988 21.4688 38.5293 21.4688H41.6934V19.9746C41.6934 18.8379 41.3535 17.9355 40.6738 17.2676C39.9941 16.5879 38.9922 16.248 37.668 16.248C36.5078 16.248 35.5352 16.541 34.75 17.127C33.9648 17.7129 33.5723 18.4219 33.5723 19.2539H30.3027C30.3027 18.3047 30.6367 17.3906 31.3047 16.5117C31.9844 15.6211 32.8984 14.918 34.0469 14.4023C35.207 13.8867 36.4785 13.6289 37.8613 13.6289C40.0527 13.6289 41.7695 14.1797 43.0117 15.2812C44.2539 16.3711 44.8984 17.877 44.9453 19.7988V28.5527C44.9453 30.2988 45.168 31.6875 45.6133 32.7188V33H42.2031ZM36.8066 30.5215C37.8262 30.5215 38.793 30.2578 39.707 29.7305C40.6211 29.2031 41.2832 28.5176 41.6934 27.6738V23.7715H39.1445C35.1602 23.7715 33.168 24.9375 33.168 27.2695C33.168 28.2891 33.5078 29.0859 34.1875 29.6602C34.8672 30.2344 35.7402 30.5215 36.8066 30.5215ZM53.1016 13.9805L53.1895 16.0898C54.584 14.4492 56.4648 13.6289 58.832 13.6289C61.4922 13.6289 63.3027 14.6484 64.2637 16.6875C64.8965 15.7734 65.7168 15.0352 66.7246 14.4727C67.7441 13.9102 68.9453 13.6289 70.3281 13.6289C74.5 13.6289 76.6211 15.8379 76.6914 20.2559V33H73.4395V20.4492C73.4395 19.0898 73.1289 18.0762 72.5078 17.4082C71.8867 16.7285 70.8438 16.3887 69.3789 16.3887C68.1719 16.3887 67.1699 16.752 66.373 17.4785C65.5762 18.1934 65.1133 19.1602 64.9844 20.3789V33H61.7148V20.5371C61.7148 17.7715 60.3613 16.3887 57.6543 16.3887C55.5215 16.3887 54.0625 17.2969 53.2773 19.1133V33H50.0254V13.9805H53.1016ZM85.1465 33H81.8945V13.9805H85.1465V33ZM81.6309 8.93555C81.6309 8.4082 81.7891 7.96289 82.1055 7.59961C82.4336 7.23633 82.9141 7.05469 83.5469 7.05469C84.1797 7.05469 84.6602 7.23633 84.9883 7.59961C85.3164 7.96289 85.4805 8.4082 85.4805 8.93555C85.4805 9.46289 85.3164 9.90234 84.9883 10.2539C84.6602 10.6055 84.1797 10.7812 83.5469 10.7812C82.9141 10.7812 82.4336 10.6055 82.1055 10.2539C81.7891 9.90234 81.6309 9.46289 81.6309 8.93555ZM89.5762 23.332C89.5762 20.4141 90.2676 18.0703 91.6504 16.3008C93.0332 14.5195 94.8438 13.6289 97.082 13.6289C99.3086 13.6289 101.072 14.3906 102.373 15.9141V6H105.625V33H102.637L102.479 30.9609C101.178 32.5547 99.3672 33.3516 97.0469 33.3516C94.8438 33.3516 93.0449 32.4492 91.6504 30.6445C90.2676 28.8398 89.5762 26.4844 89.5762 23.5781V23.332ZM92.8281 23.7012C92.8281 25.8574 93.2734 27.5449 94.1641 28.7637C95.0547 29.9824 96.2852 30.5918 97.8555 30.5918C99.918 30.5918 101.424 29.666 102.373 27.8145V19.0781C101.4 17.2852 99.9062 16.3887 97.8906 16.3887C96.2969 16.3887 95.0547 17.0039 94.1641 18.2344C93.2734 19.4648 92.8281 21.2871 92.8281 23.7012ZM110.758 31.2949C110.758 30.7324 110.922 30.2637 111.25 29.8887C111.59 29.5137 112.094 29.3262 112.762 29.3262C113.43 29.3262 113.934 29.5137 114.273 29.8887C114.625 30.2637 114.801 30.7324 114.801 31.2949C114.801 31.834 114.625 32.2852 114.273 32.6484C113.934 33.0117 113.43 33.1934 112.762 33.1934C112.094 33.1934 111.59 33.0117 111.25 32.6484C110.922 32.2852 110.758 31.834 110.758 31.2949Z" fill="#124F48"/>
</svg>
