<svg xmlns="http://www.w3.org/2000/svg" width="210" height="18" fill="none" viewBox="0 0 210 18">
  <path fill="#fff" fill-opacity=".51" d="M57 0a9 9 0 1 0 0 18 9 9 0 0 0 0-18Zm2.132 6.22h-1.353c-.16 0-.338.21-.338.49v.978h1.692l-.256 1.393H57.44v4.182h-1.597V9.08h-1.448V7.688h1.448v-.82c0-1.176.816-2.13 1.935-2.13h1.353v1.481ZM9 0a9 9 0 1 0 .001 18.001A9 9 0 0 0 9 0Zm4.325 6.784c.006.095.006.193.006.29 0 2.949-2.246 6.346-6.35 6.346a6.328 6.328 0 0 1-3.427-1c.18.02.353.027.538.027a4.476 4.476 0 0 0 2.77-.952 2.232 2.232 0 0 1-2.085-1.547c.344.05.653.05 1.007-.04a2.23 2.23 0 0 1-1.786-2.19V7.69c.295.167.643.27 1.006.283a2.233 2.233 0 0 1-.69-2.98 6.334 6.334 0 0 0 4.6 2.332c-.316-1.517.817-2.745 2.18-2.745.642 0 1.22.27 1.629.703a4.407 4.407 0 0 0 1.416-.536 2.22 2.22 0 0 1-.98 1.228c.45-.049.883-.173 1.285-.348a4.676 4.676 0 0 1-1.119 1.157Z"/>
  <path fill="#fff" d="M107.812 9a2.813 2.813 0 1 1-5.625 0c0-.16.017-.317.046-.469h-.983v3.747c0 .261.211.472.472.472h6.557a.471.471 0 0 0 .471-.472V8.531h-.983c.029.152.045.309.045.469ZM105 10.875a1.88 1.88 0 0 0 1.326-.55 1.873 1.873 0 0 0 .406-2.044 1.877 1.877 0 0 0-3.059-.608A1.874 1.874 0 0 0 105 10.876Zm2.25-3.844h1.124a.281.281 0 0 0 .282-.281V5.626a.281.281 0 0 0-.282-.282h-1.124a.283.283 0 0 0-.282.282V6.75a.283.283 0 0 0 .282.281ZM105 0a9 9 0 1 0 0 18 9 9 0 0 0 0-18Zm4.687 12.646c0 .573-.468 1.041-1.041 1.041h-7.292a1.045 1.045 0 0 1-1.042-1.041V5.354c0-.573.469-1.042 1.042-1.042h7.292c.573 0 1.041.47 1.041 1.042v7.292Z"/>
  <path fill="#fff" fill-opacity=".51" d="M153 0a9 9 0 0 0-9 9 9 9 0 0 0 9 9 9 9 0 0 0 9-9 9 9 0 0 0-9-9Zm-2.203 12.73h-1.823V6.865h1.823v5.865Zm-.923-6.585c-.575 0-.947-.407-.947-.912 0-.515.383-.91.971-.91s.948.395.959.91c0 .505-.371.912-.983.912Zm7.579 6.585h-1.822V9.48c0-.757-.265-1.27-.924-1.27-.503 0-.802.347-.934.682-.049.12-.061.288-.061.456v3.381h-1.824V8.736c0-.733-.023-1.345-.048-1.872h1.584l.083.815h.037c.24-.382.828-.947 1.811-.947 1.199 0 2.098.804 2.098 2.53v3.468Zm45.576-3.869a3.249 3.249 0 0 0-.789-.37 10.32 10.32 0 0 0-1.019-.275 15.57 15.57 0 0 1-.636-.161 1.92 1.92 0 0 1-.372-.148.834.834 0 0 1-.274-.215.427.427 0 0 1-.092-.276c0-.177.094-.325.286-.454.199-.134.468-.202.798-.202.356 0 .615.06.769.181.16.125.298.302.413.527.099.176.188.298.275.375.093.085.226.129.397.129a.62.62 0 0 0 .473-.204.654.654 0 0 0 .19-.457c0-.177-.05-.36-.145-.54a1.69 1.69 0 0 0-.447-.519 2.33 2.33 0 0 0-.76-.39 3.537 3.537 0 0 0-1.075-.146c-.516 0-.971.073-1.353.22-.387.147-.688.363-.895.64a1.57 1.57 0 0 0-.313.959c0 .375.101.693.298.948a2 2 0 0 0 .792.598c.324.14.729.265 1.208.37.351.076.636.149.845.216.2.064.366.158.492.279a.595.595 0 0 1 .177.45c0 .237-.111.43-.34.592-.235.165-.548.248-.928.248-.278 0-.502-.04-.67-.123a1.031 1.031 0 0 1-.386-.306 2.407 2.407 0 0 1-.264-.483 1.098 1.098 0 0 0-.271-.407.591.591 0 0 0-.405-.144.666.666 0 0 0-.625.387.605.605 0 0 0-.049.244c0 .277.099.567.295.855.194.29.449.523.759.694.434.236.989.355 1.65.355.552 0 1.035-.088 1.44-.26.408-.174.723-.42.936-.73.214-.31.326-.68.323-1.058 0-.326-.063-.607-.188-.835a1.606 1.606 0 0 0-.52-.564ZM201 0a9 9 0 0 0-9 9 9 9 0 0 0 9 9 9 9 0 0 0 9-9 9 9 0 0 0-9-9Zm2.157 14.04a2.6 2.6 0 0 1-1.264-.327 4.37 4.37 0 0 1-.843.08c-2.544 0-4.607-2.124-4.607-4.74 0-.329.033-.647.094-.955a2.783 2.783 0 0 1-.368-1.388c0-1.518 1.196-2.75 2.673-2.75.522 0 1.009.155 1.421.422.255-.046.52-.07.787-.07 2.545 0 4.608 2.123 4.608 4.741 0 .348-.037.689-.106 1.017.177.368.277.782.277 1.221-.001 1.517-1.196 2.748-2.672 2.748Z"/>
</svg>
