<svg width="20" height="20" viewBox="0 0 20 20" fill="none" xmlns="http://www.w3.org/2000/svg">
<path d="M17.6174 14.6093C16.9971 13.9843 15.4948 13.0722 14.7659 12.7047C13.8166 12.2265 13.7385 12.1875 12.9924 12.7418C12.4948 13.1117 12.1639 13.4422 11.5815 13.3179C10.9991 13.1937 9.73343 12.4933 8.62522 11.3886C7.51702 10.284 6.77601 8.98161 6.6514 8.40114C6.52679 7.82067 6.86272 7.49372 7.22913 6.99489C7.74554 6.29177 7.70647 6.17458 7.26507 5.22536C6.92093 4.48708 5.98226 2.9988 5.35491 2.38161C4.68382 1.71872 4.68382 1.83591 4.2514 2.0156C3.89935 2.16372 3.56161 2.34376 3.24241 2.55349C2.61741 2.96872 2.27054 3.31364 2.02796 3.832C1.78538 4.35036 1.6764 5.5656 2.92913 7.84138C4.18186 10.1172 5.06077 11.2808 6.87991 13.0949C8.69905 14.909 10.0979 15.8843 12.1428 17.0312C14.6725 18.448 15.6428 18.1718 16.1627 17.9297C16.6826 17.6875 17.0291 17.3437 17.4451 16.7187C17.6554 16.4001 17.8359 16.0627 17.9842 15.7109C18.1643 15.28 18.2815 15.28 17.6174 14.6093Z" stroke="#1D71EE" stroke-width="1.5" stroke-miterlimit="10"/>
</svg>
