<svg width="20" height="20" viewBox="0 0 20 20" fill="none" xmlns="http://www.w3.org/2000/svg">
<path d="M10 1.875C5.52 1.875 1.875 5.52 1.875 10C1.875 14.48 5.52 18.125 10 18.125C14.48 18.125 18.125 14.48 18.125 10C18.125 5.52 14.48 1.875 10 1.875ZM10 3.125C10.2113 3.125 10.4187 3.13799 10.625 3.15674V3.75H11.875V3.39111C13.4113 3.82799 14.7288 4.78395 15.625 6.05957V8.125L16.25 9.375V10H16.875C16.875 10.2288 16.8627 10.4556 16.8408 10.6787C16.8352 10.7387 16.8227 10.7963 16.8152 10.8557C16.7946 11.0201 16.7732 11.1834 16.7407 11.344C16.7288 11.404 16.713 11.4628 16.6992 11.5222C16.663 11.681 16.624 11.839 16.5771 11.9934C16.5609 12.0465 16.5422 12.0984 16.5247 12.1509C16.4722 12.3096 16.4163 12.4671 16.3525 12.6208C16.3338 12.6658 16.3133 12.7095 16.2939 12.7539C16.2239 12.9133 16.1506 13.0702 16.0693 13.2227C16.05 13.2595 16.0289 13.2957 16.0083 13.3313C15.9208 13.4888 15.8281 13.6415 15.7288 13.7915C15.7094 13.8209 15.6889 13.8512 15.6689 13.8806C15.5639 14.0337 15.4526 14.1824 15.3357 14.3262C15.3163 14.3499 15.2989 14.3726 15.2795 14.3958C15.1583 14.5414 15.03 14.6807 14.8975 14.8157C14.8781 14.835 14.8595 14.8561 14.8401 14.8755C14.7045 15.0099 14.5628 15.1387 14.4165 15.2612C14.3959 15.2787 14.3779 15.2968 14.3567 15.3137C14.2104 15.4337 14.057 15.5456 13.9014 15.6531C13.877 15.67 13.8549 15.6893 13.8306 15.7056C13.6812 15.8062 13.5254 15.8976 13.3679 15.9863C12.6342 16.3982 11.8185 16.6818 10.9485 16.8005L13.4558 14.9109L14.1431 14.2236L15 12.5V11.875L13.75 11.25H13.125L11.875 10H10.625L10 10.625V11.25L9.375 11.875V13.125L10.625 14.1248L9.38965 16.8445C5.88402 16.5332 3.125 13.5844 3.125 10C3.125 7.87 4.09938 5.96343 5.625 4.70093V5L5 5.625V6.99951L5.625 9.375L8.75 10.625H9.375V10L7.5 9.375V8.125H9.375L10 6.5625L11.25 5.625V5L9.375 3.75L8.47656 3.30078C8.96719 3.18953 9.47563 3.125 10 3.125ZM9.375 8.75V9.375H10.625V8.75H9.375Z" fill="white" fill-opacity="0.6"/>
</svg>
