<svg width="362" height="261" viewBox="0 0 362 261" fill="none" xmlns="http://www.w3.org/2000/svg">
<g filter="url(#filter0_d_1822_696)">
<mask id="path-1-outside-1_1822_696" maskUnits="userSpaceOnUse" x="120" y="0" width="122" height="137" fill="black">
<rect fill="white" x="120" width="122" height="137"/>
<path d="M121 0H241V76C241 109.137 214.137 136 181 136C147.863 136 121 109.137 121 76V0Z"/>
</mask>
<path d="M121 0H241V76C241 109.137 214.137 136 181 136C147.863 136 121 109.137 121 76V0Z" fill="#0D1014" shape-rendering="crispEdges"/>
<path d="M121 0H241H121ZM242 76C242 109.689 214.689 137 181 137C147.311 137 120 109.689 120 76H122C122 108.585 148.415 135 181 135C213.585 135 240 108.585 240 76H242ZM181 137C147.311 137 120 109.689 120 76V0H122V76C122 108.585 148.415 135 181 135V137ZM242 0V76C242 109.689 214.689 137 181 137V135C213.585 135 240 108.585 240 76V0H242Z" fill="white" fill-opacity="0.08" mask="url(#path-1-outside-1_1822_696)"/>
<path d="M180.907 120C175.21 120 169.697 118.959 164.491 116.898C158.939 114.701 153.986 111.448 149.77 107.232C145.553 103.017 142.301 98.063 140.104 92.511C137.826 86.7571 136.794 80.6257 137.037 74.2887C137.458 63.2856 141.962 52.9075 149.718 45.0651C157.468 37.2292 167.785 32.6104 178.766 32.061C185.249 31.7372 191.506 32.7186 197.364 34.9798C203.017 37.1619 208.045 40.43 212.308 44.6931C216.571 48.9563 219.839 53.9844 222.021 59.6374C224.283 65.495 225.264 71.7528 224.94 78.2362C224.391 89.2184 219.773 99.5338 211.937 107.284C204.095 115.04 193.716 119.544 182.713 119.965C182.109 119.988 181.506 120 180.906 120H180.907ZM181.177 33.4563C180.401 33.4563 179.623 33.4754 178.839 33.5154C157.049 34.6051 139.326 52.5391 138.491 74.3442C138.026 86.4869 142.397 97.802 150.799 106.204C158.795 114.2 169.43 118.545 180.905 118.545C181.488 118.545 182.071 118.534 182.659 118.511C204.464 117.675 222.398 99.9522 223.488 78.1626C224.109 65.736 219.774 54.2145 211.28 45.7209C203.322 37.764 192.705 33.4563 181.177 33.4563Z" fill="#1D71EE" fill-opacity="0.2"/>
<path d="M170.9 69.5999C170.875 69.6418 170.826 69.6609 170.779 69.6609C170.757 69.6609 170.735 69.6563 170.716 69.649C169.786 69.1169 168.904 68.5112 167.944 67.8508C167.73 67.7044 167.513 67.5552 167.291 67.4033C166.257 66.7075 164.152 65.7834 160.001 65.7834C159.537 65.7834 159.047 65.7952 158.531 65.8197C158.316 65.8307 158.092 65.8443 157.859 65.8589C157.312 65.8925 156.716 65.928 156.081 65.9371C155.987 65.9371 155.891 65.9389 155.795 65.9389C155.637 65.9389 155.476 65.9371 155.314 65.9325C155.064 65.9262 154.809 65.9134 154.549 65.8943C152.704 65.757 150.633 65.2549 148.524 63.8069C147.594 63.1811 146.652 62.1132 146.162 61.1191C146.113 61.0327 146.09 60.9226 146.077 60.8126C146.067 60.7198 146.152 60.6443 146.244 60.6443C146.262 60.6443 146.28 60.647 146.297 60.6525C150.444 62.3224 153.298 62.9801 155.695 63.3039C155.955 63.3393 156.209 63.3712 156.459 63.3994C156.718 63.4285 156.973 63.4549 157.224 63.4785C157.806 63.5331 158.37 63.5758 158.93 63.6186C160.676 63.7514 162.384 63.8805 164.501 64.3717C166.633 64.8711 169.206 67.6307 170.427 68.9405C170.614 69.1415 170.77 69.3089 170.887 69.428C170.936 69.4653 170.936 69.539 170.9 69.5999ZM215.721 60.7007C215.689 60.7007 215.657 60.7089 215.627 60.7261C212.701 62.6344 209.568 63.4185 206.622 63.8141C206.365 63.8478 206.11 63.8796 205.858 63.9078C205.6 63.9378 205.345 63.9642 205.091 63.9888C204.175 64.0788 203.286 64.1416 202.436 64.2016C200.11 64.3653 198.074 64.509 196.591 65.1203C195.74 65.4641 194.274 66.5738 192.38 68.0091L192.175 68.1637C191.471 68.6985 190.855 69.1915 190.267 69.6627C189.042 70.6432 187.933 71.5309 186.387 72.5087C185.727 72.9135 185.213 73.5638 184.968 74.3006C184.565 75.503 183.978 76.6445 183.195 77.6514C183.055 77.8561 182.904 78.0571 182.752 78.259C182.384 78.7456 182.012 79.2386 181.788 79.8117C181.678 80.1209 181.614 80.4365 181.571 80.7567C181.528 81.0769 181.507 81.4016 181.487 81.7254C181.474 81.9146 181.462 82.1029 181.446 82.2902C181.431 82.7705 181.387 83.2507 181.344 83.731C181.313 84.073 181.282 84.4159 181.262 84.7579C181.291 84.8616 181.371 84.9089 181.454 84.9089C181.547 84.9089 181.646 84.8489 181.678 84.7452C181.814 84.5214 181.939 84.2904 182.063 84.0593C182.311 83.6027 182.557 83.1452 182.895 82.7432C182.922 82.7114 182.956 82.6977 182.989 82.6977C183.067 82.6977 183.142 82.7732 183.11 82.866L182.905 83.4554C182.903 83.4645 182.901 83.4736 182.9 83.4836C182.739 85.0353 182.58 86.5861 182.421 88.1379C182.095 91.3068 181.769 94.4757 181.433 97.6447C181.412 97.7857 181.39 98.0622 181.564 98.0895C181.569 98.0904 181.575 98.0904 181.581 98.0904C181.617 98.0904 181.654 98.0731 181.677 98.044C181.791 97.8957 181.859 97.7238 181.927 97.5528C181.945 97.5055 181.964 97.4582 181.983 97.4118C182.497 96.1348 183.011 94.8714 183.525 93.6071C183.77 92.9313 183.868 92.2073 183.72 91.5078C183.662 91.1085 183.526 90.7429 183.385 90.3681C183.378 90.3508 183.372 90.3345 183.366 90.3172C183.268 90.0598 183.256 89.7651 183.342 89.4949C183.745 88.1833 184.136 86.8827 184.527 85.5829V85.5801C184.736 84.9544 184.797 84.2785 184.786 83.6282C184.781 83.2817 184.733 82.9451 184.662 82.614C184.591 82.282 184.498 81.9564 184.406 81.6299C184.344 81.4107 184.283 81.1924 184.227 80.9714C184.224 80.9595 184.223 80.9468 184.223 80.9341C184.236 80.7376 184.226 80.5038 184.215 80.241C184.178 79.3641 184.127 78.1581 184.846 76.9028C185.154 76.3571 185.712 76.0178 186.324 76.0178C186.345 76.0178 186.366 76.0178 186.387 76.0187C187.392 76.0606 187.914 76.5499 188.47 77.0738C189.143 77.7078 189.87 78.3909 191.569 78.3909C191.801 78.3909 192.051 78.3782 192.321 78.3509C192.712 78.3145 192.75 77.8352 192.395 77.7369C190.982 77.3513 190.232 76.9028 189.545 76.4935C188.78 76.036 188.094 75.6258 186.653 75.4002C186.507 75.3775 186.513 75.1647 186.659 75.151C186.858 75.1319 187.052 75.1228 187.241 75.1228C189.041 75.1228 190.421 75.9305 191.728 76.6946C192.905 77.3822 194.022 78.0362 195.332 78.0362C195.826 78.0362 196.347 77.9434 196.909 77.7251C197.117 77.6387 197.338 77.5405 197.533 77.4058C197.79 77.2339 197.704 76.8292 197.399 76.7919H197.387C194.648 76.5372 193.322 75.9032 192.06 75.3002C190.91 74.7499 189.811 74.226 187.745 74.0359C187.596 74.0222 187.591 73.8067 187.738 73.7867C188.653 73.6602 189.417 73.6047 190.076 73.6047C192.024 73.6047 193.044 74.0923 194.282 74.6835C195.31 75.1747 196.489 75.7377 198.475 76.1543C199.023 76.2661 199.518 76.3144 199.966 76.3144C201.682 76.3144 202.725 75.6031 203.491 75C203.531 74.9664 203.575 74.9318 203.622 74.8972C203.675 74.8554 203.732 74.8136 203.785 74.7672C203.948 74.6262 203.832 74.3724 203.629 74.3724C203.62 74.3724 203.611 74.3733 203.601 74.3742C202.769 74.4825 202.046 74.5298 201.402 74.5298C199.539 74.5298 198.321 74.1368 196.944 73.6912C195.284 73.1554 193.392 72.5442 189.859 72.4578C189.711 72.4541 189.691 72.2413 189.835 72.2095C191.721 71.7929 193.176 71.6319 194.362 71.6319C196.376 71.6319 197.612 72.0958 198.853 72.5606C199.906 72.9553 200.962 73.351 202.5 73.4665C202.881 73.4947 203.236 73.5083 203.568 73.5083C205.629 73.5083 206.778 72.9844 207.61 72.315C207.848 72.124 208.06 71.9211 208.26 71.7156C208.392 71.5782 208.52 71.4409 208.646 71.3035L208.678 71.269C208.709 71.2317 208.745 71.1953 208.783 71.158C208.819 71.1216 208.855 71.0852 208.886 71.0479C208.887 71.047 208.888 71.0452 208.889 71.0443C208.996 70.9224 208.956 70.7205 208.817 70.6405C208.787 70.6232 208.753 70.6114 208.714 70.6068C208.696 70.6041 208.678 70.6032 208.66 70.6032C208.577 70.6032 208.489 70.6232 208.409 70.6432C208.302 70.6687 208.196 70.6932 208.091 70.7169C207.847 70.7733 207.609 70.8242 207.38 70.8706C206.018 71.1444 204.918 71.2499 203.979 71.2499C202.456 71.2499 201.354 70.9725 200.23 70.6896C199.058 70.3949 197.861 70.0938 196.134 70.0938C195.206 70.0938 194.123 70.1811 192.808 70.404C192.801 70.4049 192.792 70.4058 192.784 70.4058C192.662 70.4058 192.61 70.2366 192.725 70.1711C193.509 69.7209 194.729 69.1861 196.689 68.9368C197.203 68.8713 197.688 68.8431 198.151 68.8431C199.555 68.8431 200.76 69.1042 202.003 69.3734C203.324 69.6599 204.688 69.9556 206.377 69.9556C206.572 69.9556 206.773 69.9519 206.977 69.9437C207.048 69.941 207.118 69.9374 207.187 69.9328C207.444 69.9183 207.688 69.8955 207.919 69.8664C208.172 69.8346 208.412 69.7937 208.637 69.7464C211.146 69.2143 211.983 67.758 212.751 66.4219C212.807 66.3318 212.761 66.1708 212.577 66.1708C212.558 66.1708 212.539 66.1727 212.518 66.1754C210.602 66.9185 209.191 67.276 208.021 67.4188C207.762 67.4506 207.516 67.4724 207.277 67.4843C207.085 67.4952 206.897 67.4997 206.714 67.4997C206.649 67.4997 206.584 67.4988 206.52 67.4979C205.794 67.4852 205.128 67.4015 204.423 67.3142C203.546 67.205 202.609 67.0886 201.415 67.0886C200.749 67.0886 200.005 67.125 199.147 67.2187C197.848 67.3587 196.786 67.6052 196.145 67.779C196.132 67.7826 196.121 67.7844 196.109 67.7844C195.995 67.7844 195.934 67.628 196.04 67.5552C196.609 67.1595 197.349 66.7639 198.572 66.421C199.191 66.2472 199.987 66.1999 200.909 66.1999C201.415 66.1999 201.959 66.2145 202.533 66.229C203.174 66.2454 203.852 66.2636 204.556 66.2636C205.049 66.2636 205.556 66.2545 206.07 66.2309C206.321 66.2199 206.574 66.2045 206.829 66.1845C207.078 66.1663 207.329 66.1426 207.581 66.1144C209.256 65.9289 210.98 65.5305 212.628 64.7155C214.464 63.8069 215.234 62.7518 215.883 61.1063C215.993 60.8744 215.864 60.7007 215.72 60.7007H215.721ZM168.284 69.1524C167.031 68.5903 164.74 67.6807 162.532 67.4151C161.929 67.3415 161.39 67.3169 160.867 67.3169C160.373 67.3169 159.893 67.3387 159.392 67.3615C158.839 67.3869 158.258 67.4133 157.597 67.4133C156.997 67.4133 156.332 67.3915 155.564 67.3269C155.33 67.3078 155.087 67.2841 154.833 67.2569C154.598 67.2305 154.352 67.2005 154.097 67.1668C152.777 66.9894 151.188 66.6966 149.21 66.2245C149.192 66.22 149.175 66.2181 149.159 66.2181C148.989 66.2181 148.877 66.4355 148.977 66.5929C148.983 66.6047 148.989 66.6138 148.995 66.6229C149.001 66.6329 149.008 66.642 149.013 66.6538C150.248 68.4966 151.715 69.2879 153.425 69.5563C153.664 69.5945 153.907 69.6217 154.156 69.6408C154.395 69.6581 154.638 69.6681 154.886 69.6709C154.944 69.6727 155.003 69.6727 155.062 69.6727C156.223 69.6727 157.481 69.5326 158.836 69.3816C160.418 69.2042 162.134 69.0132 163.985 69.0132C165.323 69.0132 166.73 69.1124 168.21 69.3898C168.219 69.3916 168.228 69.3925 168.236 69.3925C168.363 69.3925 168.411 69.2097 168.284 69.1524ZM169.836 70.7769C168.746 70.4449 166.984 70.0092 165.244 70.0092C165.106 70.0092 164.969 70.0119 164.831 70.0174C163.807 70.0611 162.926 70.2339 161.939 70.4276C160.415 70.7269 158.639 71.0752 155.697 71.0752C155.345 71.0752 154.978 71.0707 154.591 71.0589C154.357 71.0534 154.114 71.0443 153.865 71.0334C153.626 71.0234 153.381 71.0107 153.128 70.9961C152.842 70.9797 152.547 70.9606 152.243 70.9379C152.238 70.9379 152.234 70.937 152.229 70.937C152.055 70.937 151.976 71.1744 152.096 71.3063C152.113 71.3145 152.124 71.329 152.133 71.3408C152.137 71.3463 152.141 71.3517 152.145 71.3554C152.409 71.6401 152.679 71.8857 152.953 72.0967C153.176 72.2686 153.403 72.4178 153.633 72.5451C153.859 72.6706 154.088 72.7761 154.322 72.8625C154.974 73.1054 155.655 73.2064 156.365 73.2064C157.878 73.2064 159.527 72.7516 161.334 72.2531C163.525 71.6492 165.949 70.9806 168.644 70.9806C169.021 70.9806 169.403 70.9934 169.79 71.0216C169.794 71.0216 169.798 71.0225 169.801 71.0225C169.941 71.0225 169.976 70.8187 169.836 70.7769ZM171.834 72.8071C171.222 72.566 170.165 72.275 168.639 72.275C168.155 72.275 167.626 72.3041 167.047 72.3732C166.135 72.4842 165.34 72.727 164.443 72.9999C162.668 73.5402 160.495 74.2023 156.237 74.2023H156.159C155.988 74.2023 155.95 74.5216 156.073 74.6317L156.122 74.6808C157.535 75.6413 158.789 75.9987 159.979 75.9987C161.569 75.9987 163.043 75.3611 164.63 74.6762C166.474 73.8794 168.469 73.0181 170.966 73.0181C171.231 73.0181 171.501 73.0281 171.778 73.049H171.789C171.923 73.049 171.965 72.858 171.834 72.8071ZM173.504 73.6511C173.101 73.6002 172.612 73.5584 172.093 73.5584C171.575 73.5584 170.984 73.6038 170.447 73.7321C169.785 73.8894 169.316 74.0823 168.783 74.3015C167.733 74.7344 166.434 75.2693 162.911 75.8314C162.532 75.8805 162.287 76.4199 162.997 76.6163C163.643 76.7964 164.228 76.8737 164.77 76.8737C166.308 76.8737 167.499 76.247 168.801 75.5621C170.104 74.8754 171.519 74.1314 173.504 73.9004C173.651 73.8831 173.651 73.6702 173.504 73.6511ZM175.019 75.1683C174.808 75.1456 174.567 75.1283 174.314 75.1283C173.87 75.1283 173.386 75.1801 172.955 75.3438C172.533 75.5121 172.253 75.6995 171.934 75.9123C171.301 76.3353 170.52 76.8583 168.184 77.5277C167.938 77.6014 167.817 77.9943 168.367 78.0807C168.786 78.149 169.156 78.1808 169.488 78.1808C170.977 78.1808 171.69 77.5532 172.454 76.8801C173.104 76.3071 173.792 75.7004 175.03 75.4157C175.17 75.3839 175.16 75.1838 175.019 75.1683ZM179.375 72.9835C179.242 72.6961 179.108 72.4087 179.011 72.1158C178.765 71.4482 178.914 70.7814 179.063 70.1147C179.144 69.7509 179.225 69.3862 179.243 69.0223C179.243 68.4166 178.892 67.9318 178.555 67.4652C178.489 67.3742 178.424 67.2841 178.362 67.1941C178.333 67.1541 178.316 67.1322 178.301 67.1322C178.284 67.1322 178.271 67.1595 178.252 67.2187C178.047 68.1009 178.222 69.0305 178.601 69.8446C178.612 69.8691 178.616 69.8964 178.61 69.9228C178.599 69.9783 178.587 70.0338 178.575 70.0893C178.477 70.5477 178.378 71.0079 178.399 71.4773C178.429 72.1049 178.685 72.6643 178.942 73.2236C179.107 73.5847 179.273 73.9449 179.377 74.3251C179.495 74.7817 179.432 75.2374 179.368 75.6977C179.333 75.9551 179.296 76.2125 179.292 76.4726C179.292 76.5408 179.346 76.5936 179.412 76.5936C179.428 76.5936 179.445 76.5909 179.464 76.5827C179.5 76.5709 179.512 76.5463 179.525 76.5099C179.563 76.3598 179.606 76.2116 179.651 76.0624C179.762 75.6868 179.874 75.3102 179.891 74.9136C179.897 74.8527 179.898 74.7926 179.898 74.7326C179.898 74.1105 179.636 73.5456 179.375 72.9835ZM182.885 69.9374C182.88 69.9092 182.884 69.881 182.896 69.8555C183.287 69.0778 183.473 68.1491 183.28 67.2923C183.273 67.2532 183.24 67.2296 183.206 67.2296C183.185 67.2296 183.164 67.2378 183.146 67.256L183.104 67.2978C182.839 67.5625 182.588 67.8144 182.391 68.2183C182.389 68.2228 182.386 68.2274 182.384 68.2328C182.275 68.5157 182.299 68.7404 182.324 68.9769V68.9796C182.325 68.9878 182.326 68.9969 182.327 69.0051C182.1 68.7622 181.663 68.422 180.969 68.3602C180.961 68.3593 180.952 68.3593 180.944 68.3583C180.94 68.3583 180.936 68.3574 180.932 68.3574C180.793 68.3574 180.76 68.5585 180.897 68.603C181.069 68.6585 181.246 68.744 181.416 68.8695C181.428 68.8786 181.439 68.8895 181.447 68.9023C181.475 68.9432 181.495 68.9878 181.506 69.0351C181.608 69.5426 181.327 70.1693 181.108 70.6605C181.014 70.8706 180.931 71.0552 180.894 71.1953C180.891 71.2099 180.89 71.2199 180.89 71.228L180.884 71.2635C180.791 71.5755 180.748 71.9057 180.736 72.2267V77.012C180.736 77.0211 180.734 77.0293 180.732 77.0375C180.692 77.2221 180.857 77.4268 181.04 77.4268C181.073 77.4268 181.106 77.4204 181.14 77.4058C181.188 77.3913 181.24 77.3776 181.293 77.364C181.648 77.2694 182.056 77.1612 182.13 76.7555C182.167 76.4417 182.134 76.1243 182.101 75.8077C182.08 75.5922 182.058 75.3766 182.057 75.1628V75.1565C181.987 74.427 182.284 73.7812 182.583 73.1336C182.845 72.5615 183.11 71.9875 183.121 71.3545C183.121 70.9643 183.033 70.5813 182.947 70.2111C182.926 70.1193 182.905 70.0274 182.885 69.9374ZM179.102 89.5068C179.09 89.4986 179.077 89.4931 179.064 89.4886C178.953 89.4567 178.828 89.4458 178.701 89.4349C178.392 89.4094 178.077 89.3821 177.958 89.0411C177.655 88.2297 177.365 87.4138 177.077 86.5998C176.855 85.9722 176.633 85.3455 176.405 84.7206C176.388 84.6888 176.376 84.6524 176.361 84.6142C176.317 84.495 176.271 84.3677 176.14 84.3677C176.12 84.3677 176.098 84.3704 176.075 84.3768C175.927 84.4386 175.879 84.5369 175.927 84.6833C176.392 86.7953 176.857 88.8937 177.334 90.9921C177.354 91.0558 177.369 91.124 177.383 91.1931C177.423 91.3777 177.464 91.5706 177.615 91.7043C177.763 91.8689 177.984 91.9499 178.206 91.9499C178.462 91.9499 178.719 91.8416 178.863 91.6306C178.934 91.536 178.98 91.4287 179.013 91.3168C179.046 91.2049 179.066 91.0867 179.086 90.9684C179.108 90.8393 179.131 90.7092 179.17 90.5873C179.183 90.52 179.204 90.4482 179.224 90.3745C179.311 90.0643 179.407 89.7169 179.102 89.5068ZM179.794 84.7943C179.357 83.4736 178.941 82.142 178.525 80.814V80.8122H178.524C178.288 80.0572 178.053 79.3041 177.814 78.5546C177.813 78.5501 177.811 78.5455 177.808 78.541C177.776 78.4746 177.755 78.4027 177.733 78.3291C177.723 78.2954 177.713 78.2617 177.702 78.2281C177.674 78.1444 177.603 78.1007 177.531 78.1007C177.475 78.1007 177.421 78.1262 177.383 78.179C177.359 78.2099 177.338 78.2436 177.316 78.2772C177.296 78.309 177.275 78.3418 177.252 78.3718C177.25 78.3745 177.248 78.3773 177.246 78.38C176.661 79.275 176.614 80.4875 177.139 81.4189C177.425 81.9828 177.91 82.3939 178.377 82.7896L178.411 82.8187C178.61 83.2043 178.791 83.6018 178.972 83.9984C179.123 84.3286 179.273 84.6569 179.433 84.9789C179.436 84.9871 179.44 84.9953 179.442 85.0044C179.464 85.0926 179.514 85.1172 179.576 85.1172C179.59 85.1172 179.606 85.1163 179.622 85.1135C179.769 85.089 179.843 84.9298 179.794 84.7943Z" fill="url(#paint0_radial_1822_696)"/>
<path d="M169.755 43.0987L168.064 43.7663L168.071 43.7818C168.19 44.0828 168.455 44.3912 168.953 44.1947C169.331 44.0456 169.677 43.8727 169.887 43.7663C169.893 43.7645 169.897 43.7627 169.903 43.7599C169.954 43.739 170.006 43.749 170.026 43.8009L170.162 44.1429C170.195 44.2256 170.194 44.2684 170.106 44.3212C169.793 44.5167 169.601 44.6222 169.135 44.8069C168.616 45.0115 167.769 45.0224 167.365 44.0001L167.213 43.6162C166.894 42.8067 167.144 42.12 167.938 41.8071C168.736 41.4915 169.388 41.8644 169.693 42.6375L169.808 42.9277C169.841 43.0105 169.828 43.0696 169.755 43.0987ZM168.968 42.8222C168.808 42.4174 168.494 42.2719 168.172 42.3992C167.85 42.5266 167.707 42.8467 167.869 43.257L167.877 43.2779L168.977 42.844L168.968 42.8231V42.8222Z" fill="white"/>
<path d="M172.271 43.7536C172.062 43.8127 171.603 43.9118 171.28 43.9155C171.211 43.9173 171.161 43.8855 171.143 43.8209L171.053 43.4989C171.041 43.4562 171.067 43.4025 171.126 43.3861C171.131 43.3843 171.137 43.3834 171.142 43.3816C171.409 43.3415 171.9 43.2333 172.061 43.1878C172.394 43.0941 172.411 42.9686 172.37 42.8231C172.342 42.7212 172.259 42.6748 172.057 42.6157L171.195 42.371C170.887 42.2837 170.624 42.0681 170.537 41.7562C170.386 41.2186 170.649 40.8557 171.331 40.6647C171.766 40.5428 172.027 40.5219 172.317 40.5046C172.387 40.5028 172.431 40.5364 172.448 40.601L172.536 40.9121C172.554 40.9767 172.527 41.0249 172.473 41.0394C172.468 41.0412 172.462 41.0422 172.457 41.044C172.3 41.0649 171.858 41.1422 171.553 41.2277C171.295 41.2996 171.199 41.3905 171.245 41.557C171.269 41.6425 171.365 41.6743 171.522 41.7171L172.346 41.9499C172.873 42.0973 173.013 42.3483 173.09 42.6221C173.221 43.0896 172.975 43.558 172.272 43.7545L172.271 43.7536Z" fill="white"/>
<path d="M175.745 42.9322C175.617 42.9786 175.342 43.0541 175.112 43.0969C174.569 43.1997 174.21 43.0741 174.09 42.4383L173.568 39.676C173.557 39.6159 173.599 39.5677 173.657 39.5459L174.15 39.3622C174.156 39.3613 174.161 39.3604 174.167 39.3594C174.216 39.3504 174.27 39.3967 174.28 39.4513L174.382 39.9889L175.155 39.8433C175.215 39.8315 175.274 39.8715 175.285 39.9325L175.346 40.2563C175.357 40.3163 175.317 40.3754 175.257 40.3864L174.484 40.5319L174.819 42.3019C174.861 42.5211 174.966 42.5411 175.202 42.4966L175.635 42.4147C175.706 42.4011 175.755 42.4202 175.766 42.4756L175.83 42.8158C175.84 42.8704 175.814 42.9095 175.745 42.9341V42.9322Z" fill="white"/>
<path d="M177.327 42.7239L176.834 42.7831C176.773 42.7903 176.718 42.7467 176.711 42.6857L176.635 42.06C176.628 41.999 176.672 41.949 176.733 41.9417L177.226 41.8826C177.287 41.8753 177.343 41.9135 177.35 41.9745L177.426 42.6002C177.433 42.6612 177.389 42.7167 177.328 42.7239H177.327Z" fill="white"/>
<path d="M182.363 40.4537L181.853 40.7775C181.321 41.1176 181.048 41.3905 181.038 41.8535V41.8762L182.873 41.9153C182.934 41.9162 182.984 41.9572 182.982 42.0181L182.973 42.442C182.972 42.5029 182.92 42.552 182.859 42.5511L180.494 42.5011C180.434 42.5002 180.384 42.4483 180.385 42.3874L180.397 41.8408C180.41 41.2277 180.806 40.6947 181.276 40.3973L181.836 40.0407C182.272 39.7651 182.357 39.6778 182.364 39.3713C182.37 39.0702 182.183 38.9547 181.72 38.9447C181.39 38.9374 180.938 38.9729 180.603 39.0047C180.599 39.0047 180.595 39.0047 180.592 39.0047C180.531 39.0038 180.493 38.952 180.494 38.891L180.501 38.5563C180.502 38.5008 180.553 38.4681 180.609 38.4526C180.901 38.3808 181.37 38.3289 181.733 38.3371C182.709 38.358 183.099 38.6955 183.083 39.3867C183.073 39.8497 182.827 40.1571 182.363 40.4537Z" fill="white"/>
<path d="M185.523 42.8777C184.628 42.7521 184.154 42.1618 184.347 40.7866L184.404 40.3782C184.597 39.0029 185.216 38.5599 186.111 38.6855C187.006 38.811 187.48 39.4067 187.288 40.782L187.231 41.1904C187.038 42.5657 186.419 43.0032 185.524 42.8777H185.523ZM186.519 40.6738C186.66 39.6742 186.405 39.3622 186.024 39.3094C185.643 39.2567 185.312 39.4859 185.172 40.4855L185.115 40.8939C184.975 41.8935 185.231 42.2 185.612 42.2528C185.993 42.3055 186.323 42.0818 186.463 41.0822L186.52 40.6738H186.519Z" fill="white"/>
<path d="M190.426 41.7307L189.855 41.9263C189.258 42.1318 188.928 42.3337 188.81 42.7812L188.804 42.8031L190.579 43.2715C190.638 43.287 190.677 43.3379 190.661 43.397L190.553 43.8072C190.537 43.8664 190.475 43.9018 190.416 43.8864L188.129 43.2824C188.07 43.267 188.035 43.2051 188.05 43.146L188.189 42.6175C188.346 42.0245 188.856 41.5997 189.383 41.4205L190.01 41.2059C190.498 41.0403 190.602 40.9758 190.681 40.6792C190.758 40.3882 190.603 40.2317 190.155 40.1135C189.837 40.0298 189.388 39.957 189.055 39.9097C189.052 39.9085 189.048 39.9076 189.044 39.907C188.985 39.8915 188.96 39.8324 188.976 39.7733L189.062 39.4495C189.076 39.3958 189.133 39.3758 189.191 39.374C189.491 39.3722 189.96 39.4331 190.311 39.525C191.255 39.7742 191.553 40.1935 191.377 40.8621C191.258 41.3096 190.946 41.5506 190.426 41.7307Z" fill="white"/>
<path d="M192.824 44.7905C192.44 44.6386 192.146 44.4558 191.88 44.2657C191.832 44.2347 191.8 44.1802 191.82 44.1283L191.948 43.8072C191.971 43.7499 192.026 43.7299 192.078 43.7509C192.081 43.7521 192.085 43.7536 192.088 43.7554C192.481 43.9591 192.801 44.122 193.049 44.2211C193.469 44.3876 193.704 44.2648 193.848 43.9018L193.891 43.7927C194 43.518 194.015 43.236 193.621 43.0796L192.704 42.7158C192.646 42.693 192.622 42.6348 192.645 42.5784L192.774 42.2519C192.796 42.1946 192.855 42.17 192.911 42.1928L193.829 42.5566C194.223 42.713 194.398 42.5129 194.507 42.2373L194.54 42.1546C194.645 41.8899 194.634 41.6161 194.157 41.426C193.789 41.2796 193.612 41.2404 193.138 41.1058C193.134 41.1046 193.131 41.1034 193.127 41.1022C193.076 41.0813 193.048 41.0285 193.071 40.9721L193.198 40.651C193.219 40.5992 193.28 40.581 193.336 40.5919C193.661 40.6365 193.999 40.7047 194.383 40.8575C195.129 41.154 195.571 41.6588 195.26 42.442L195.228 42.5248C195.084 42.8877 194.817 43.076 194.477 43.1151C194.701 43.3834 194.742 43.7481 194.611 44.0801L194.567 44.1893C194.261 44.9615 193.558 45.0852 192.822 44.7932L192.824 44.7905Z" fill="white"/>
<path fill-rule="evenodd" clip-rule="evenodd" d="M164.383 42.5598C164.65 42.6527 164.79 42.9438 164.697 43.2098L163.913 45.4531L166.156 46.2369C166.422 46.3299 166.563 46.6209 166.47 46.887C166.377 47.153 166.086 47.2933 165.82 47.2004L163.095 46.2482C162.829 46.1552 162.688 45.8642 162.781 45.5981L163.733 42.8732C163.826 42.6071 164.117 42.4668 164.383 42.5598Z" fill="#1D71EE"/>
<path fill-rule="evenodd" clip-rule="evenodd" d="M198.077 42.5598C197.811 42.6527 197.671 42.9438 197.764 43.2098L198.548 45.4531L196.305 46.2369C196.039 46.3299 195.898 46.6209 195.991 46.887C196.084 47.153 196.375 47.2933 196.641 47.2004L199.366 46.2482C199.632 46.1552 199.773 45.8642 199.68 45.5981L198.728 42.8732C198.635 42.6071 198.344 42.4668 198.077 42.5598Z" fill="#1D71EE"/>
<path d="M186.095 59.57C185.991 59.4964 185.853 59.4955 185.749 59.5655L183.991 60.7234C183.924 60.7689 183.877 60.8389 183.861 60.9189C183.845 60.9981 183.861 61.0808 183.908 61.1491C184.009 61.3 184.062 61.4756 184.062 61.6575C184.062 62.1641 183.65 62.5762 183.144 62.5762C182.637 62.5762 182.225 62.1641 182.225 61.6575C182.225 61.3601 182.372 61.079 182.618 60.9062C182.756 60.8098 182.79 60.6188 182.692 60.4805L181.251 58.4213C181.137 58.2575 180.863 58.2575 180.75 58.4213L179.308 60.4805C179.212 60.6188 179.244 60.8098 179.383 60.9062C179.628 61.079 179.775 61.3601 179.775 61.6575C179.775 62.1641 179.363 62.5762 178.857 62.5762C178.35 62.5762 177.938 62.1641 177.938 61.6575C177.938 61.4756 177.991 61.3 178.093 61.1491C178.138 61.0817 178.155 60.999 178.139 60.9189C178.124 60.8389 178.076 60.7689 178.009 60.7234L176.252 59.5655C176.146 59.4955 176.009 59.4964 175.905 59.57C175.802 59.6428 175.754 59.772 175.784 59.8948L177.029 64.7928C177.067 64.9474 177.216 65.0502 177.376 65.0202C179.781 64.62 182.218 64.62 184.623 65.0202C184.639 65.0229 184.656 65.0247 184.673 65.0247C184.811 65.0247 184.935 64.931 184.97 64.7928L186.214 59.8948C186.244 59.772 186.197 59.6437 186.093 59.57H186.095Z" fill="url(#paint1_radial_1822_696)"/>
<path fill-rule="evenodd" clip-rule="evenodd" d="M159.584 47.8069C159.823 48.108 159.772 48.5457 159.471 48.7844C156.592 51.0661 154.094 53.7905 152.07 56.8558C151.858 57.1765 151.426 57.2648 151.105 57.053C150.785 56.8412 150.696 56.4096 150.908 56.0889C153.014 52.9007 155.612 50.067 158.606 47.6938C158.908 47.455 159.345 47.5057 159.584 47.8069Z" fill="#1D71EE"/>
<path fill-rule="evenodd" clip-rule="evenodd" d="M202.469 47.8096C202.23 48.1107 202.281 48.5484 202.582 48.7871C205.468 51.0754 207.972 53.8085 209.998 56.884C210.21 57.2049 210.641 57.2936 210.962 57.0821C211.283 56.8706 211.372 56.4391 211.16 56.1182C209.052 52.9194 206.449 50.0766 203.447 47.6966C203.145 47.4579 202.708 47.5085 202.469 47.8096Z" fill="#1D71EE"/>
<path fill-rule="evenodd" clip-rule="evenodd" d="M215.622 68.4766C215.245 68.5506 215 68.9163 215.074 69.2934C216.001 74.016 215.935 78.8798 214.881 83.5758C214.797 83.9507 215.033 84.3229 215.408 84.4071C215.783 84.4912 216.155 84.2555 216.239 83.8805C217.335 78.9962 217.404 73.9374 216.439 69.0254C216.365 68.6483 216 68.4026 215.622 68.4766Z" fill="#1D71EE" fill-opacity="0.2"/>
<path fill-rule="evenodd" clip-rule="evenodd" d="M146.428 68.4766C146.805 68.5506 147.051 68.9163 146.977 69.2934C146.05 74.016 146.115 78.8798 147.169 83.5758C147.254 83.9507 147.018 84.3229 146.643 84.4071C146.268 84.4912 145.896 84.2555 145.811 83.8805C144.715 78.9962 144.647 73.9374 145.611 69.0254C145.685 68.6483 146.051 68.4026 146.428 68.4766Z" fill="#1D71EE" fill-opacity="0.2"/>
<path fill-rule="evenodd" clip-rule="evenodd" d="M181.485 47.7305C177.169 47.6603 172.894 48.5801 168.989 50.4194C165.083 52.2587 161.651 54.9685 158.956 58.3407C158.717 58.6409 158.765 59.0787 159.066 59.3187C159.366 59.5586 159.804 59.5097 160.044 59.2095C162.606 56.0034 165.869 53.4271 169.582 51.6784C173.294 49.9298 177.359 49.0552 181.462 49.122C185.566 49.1887 189.6 50.1949 193.254 52.0634C196.908 53.9319 200.085 56.6129 202.542 59.9006C202.772 60.2084 203.208 60.2715 203.516 60.0415C203.823 59.8115 203.886 59.3754 203.656 59.0676C201.073 55.6096 197.731 52.7896 193.887 50.8243C190.044 48.859 185.801 47.8007 181.485 47.7305Z" fill="#1D71EE" fill-opacity="0.2"/>
<path fill-rule="evenodd" clip-rule="evenodd" d="M181.53 104.223C174.358 104.352 167.406 101.747 162.084 96.9381C156.762 92.1291 153.469 85.4758 152.872 78.3277C152.84 77.9448 153.125 77.6084 153.507 77.5764C153.89 77.5445 154.227 77.829 154.259 78.212C154.826 85.0079 157.957 91.3335 163.017 95.9056C168.077 100.478 174.687 102.954 181.505 102.832C188.324 102.71 194.84 99.9989 199.733 95.2487C204.626 90.4985 207.529 84.065 207.853 77.2531C207.872 76.8692 208.197 76.5729 208.581 76.5911C208.965 76.6094 209.262 76.9354 209.243 77.3192C208.903 84.484 205.849 91.2509 200.703 96.2472C195.556 101.244 188.702 104.095 181.53 104.223Z" fill="#1D71EE" fill-opacity="0.2"/>
<path d="M146.379 92.9235C146.194 92.6123 145.68 91.6153 145.5 91.1762C144.901 89.7114 144.971 88.5132 146.858 87.7414L150.559 86.2284C150.65 86.1908 150.746 86.2382 150.784 86.3294L151.227 87.4142C151.265 87.5054 151.229 87.6064 151.138 87.644L147.439 89.157C146.594 89.5022 146.347 89.8644 146.651 90.6093C146.766 90.8909 146.957 91.2862 147.105 91.5536L151.93 89.58C152.022 89.5424 152.118 89.5898 152.156 89.681L152.596 90.7568C152.633 90.848 152.6 90.958 152.51 90.9947L147.155 93.1846C146.749 93.3501 146.573 93.249 146.381 92.9217L146.379 92.9235Z" fill="white"/>
<path d="M148.938 97.5351L148.298 96.5219C148.245 96.4388 148.28 96.3431 148.363 96.2903L153.684 92.9253C153.767 92.8726 153.861 92.8878 153.914 92.97L154.554 93.9832C154.607 94.0664 154.584 94.1647 154.501 94.2175L149.181 97.5825C149.097 97.6353 148.991 97.6174 148.938 97.5342V97.5351Z" fill="white"/>
<path d="M153.507 103.214C153.336 103.113 152.927 102.782 152.516 102.31C151.622 101.286 151.313 99.8458 152.917 98.4454L153.765 97.7041C155.369 96.3037 156.748 96.809 157.642 97.8329C158.054 98.3041 158.328 98.7539 158.404 98.9364C158.459 99.0544 158.48 99.1313 158.385 99.2136L157.731 99.7841C157.651 99.8548 157.561 99.861 157.479 99.7671L157.467 99.7537C157.264 99.4801 156.974 99.0803 156.651 98.7101C156.245 98.2451 155.679 98.0869 154.783 98.8693L153.934 99.6106C153.038 100.393 153.12 100.975 153.526 101.44C153.849 101.81 154.206 102.152 154.45 102.39L154.462 102.403C154.544 102.497 154.525 102.585 154.445 102.656L153.791 103.226C153.697 103.308 153.616 103.284 153.507 103.214Z" fill="white"/>
<path d="M160.173 108.75L159.179 108.08C159.098 108.025 159.09 107.923 159.145 107.842L162.663 102.622C162.717 102.54 162.81 102.516 162.891 102.571L163.884 103.24C163.966 103.295 163.986 103.394 163.93 103.476L160.412 108.697C160.358 108.778 160.253 108.805 160.172 108.751L160.173 108.75Z" fill="white"/>
<path d="M169.242 107.451L167.927 106.841L165.736 111.563C165.695 111.652 165.588 111.691 165.499 111.65L164.436 111.157C164.347 111.116 164.307 111.009 164.349 110.919L166.54 106.198L165.218 105.585C165.128 105.544 165.085 105.445 165.127 105.355L165.516 104.52C165.557 104.431 165.66 104.4 165.749 104.441L169.772 106.308C169.862 106.35 169.913 106.452 169.871 106.542L169.483 107.377C169.442 107.466 169.33 107.493 169.241 107.452L169.242 107.451Z" fill="white"/>
<path d="M178.855 114.959L177.683 114.821C177.585 114.809 177.532 114.721 177.544 114.624L177.8 112.466L175.873 112.237L175.617 114.395C175.605 114.492 175.525 114.564 175.427 114.552L174.255 114.414C174.157 114.402 174.087 114.313 174.098 114.215L174.636 109.687C174.825 108.088 175.836 107.848 177.025 107.99L177.674 108.067C178.864 108.208 179.78 108.676 179.591 110.275L179.053 114.804C179.042 114.901 178.952 114.972 178.855 114.96V114.959ZM178.081 110.095C178.139 109.606 178.015 109.438 177.518 109.379L176.87 109.302C176.381 109.244 176.212 109.377 176.154 109.866L176.022 110.984L177.949 111.213L178.081 110.095Z" fill="white"/>
<path d="M186.324 114.586C186.142 114.663 185.632 114.797 185.008 114.848C183.653 114.962 182.31 114.357 182.132 112.236L182.037 111.113C181.86 108.992 183.083 108.18 184.438 108.067C185.062 108.014 185.586 108.059 185.778 108.107C185.906 108.132 185.98 108.161 185.991 108.287L186.063 109.151C186.072 109.259 186.025 109.334 185.9 109.344C185.9 109.344 185.891 109.344 185.882 109.346C185.541 109.348 185.047 109.344 184.557 109.386C183.941 109.437 183.478 109.8 183.578 110.984L183.673 112.108C183.772 113.292 184.29 113.572 184.904 113.52C185.394 113.479 185.881 113.393 186.217 113.338C186.226 113.338 186.235 113.336 186.235 113.336C186.359 113.326 186.419 113.393 186.428 113.5L186.501 114.365C186.511 114.49 186.443 114.54 186.322 114.586L186.324 114.586Z" fill="white"/>
<path d="M194.327 112.706L193.196 113.042C193.102 113.07 193.019 113.011 192.99 112.917L192.37 110.834L190.51 111.388L191.13 113.47C191.158 113.564 191.112 113.663 191.018 113.69L189.887 114.027C189.793 114.054 189.693 114.001 189.664 113.906L188.364 109.534C187.905 107.991 188.738 107.371 189.886 107.029L190.512 106.843C191.661 106.502 192.689 106.57 193.147 108.112L194.448 112.484C194.475 112.578 194.422 112.678 194.327 112.707V112.706ZM191.69 108.545C191.549 108.074 191.369 107.968 190.889 108.111L190.264 108.297C189.792 108.438 189.689 108.626 189.83 109.098L190.151 110.178L192.011 109.624L191.69 108.544V108.545Z" fill="white"/>
<path d="M199.708 110.27C199.06 110.633 198.331 110.959 197.981 111.085C197.82 111.144 197.702 111.118 197.602 110.938L194.711 105.782C194.611 105.602 194.65 105.488 194.785 105.382C195.074 105.148 195.734 104.697 196.381 104.334C197.933 103.464 199.328 103.758 200.251 105.404L200.816 106.41C201.738 108.057 201.261 109.4 199.708 110.27H199.708ZM198.917 106.152C198.327 105.099 197.717 105.072 197.015 105.465C196.82 105.574 196.575 105.722 196.47 105.792L198.511 109.435C198.625 109.381 198.879 109.249 199.074 109.14C199.776 108.746 200.071 108.211 199.48 107.159L198.916 106.153L198.917 106.152Z" fill="white"/>
<path d="M207.758 104.255C207.552 104.494 207.254 104.847 206.525 105.481C205.654 106.238 204.692 106.684 203.623 105.456L201.676 103.215C200.608 101.987 201.196 101.096 202.067 100.339C202.795 99.7054 203.18 99.4667 203.445 99.295C203.552 99.2261 203.622 99.2252 203.698 99.3128L204.243 99.9406C204.307 100.015 204.299 100.128 204.225 100.193L202.855 101.384C202.538 101.659 202.517 101.868 202.822 102.218L203.356 102.833L205.104 101.313C205.178 101.249 205.292 101.257 205.356 101.331L205.914 101.972C205.978 102.047 205.97 102.16 205.896 102.224L204.147 103.744L204.77 104.459C205.075 104.81 205.283 104.819 205.601 104.542L206.971 103.351C207.045 103.287 207.158 103.295 207.223 103.369L207.768 103.997C207.844 104.084 207.839 104.16 207.757 104.256L207.758 104.255Z" fill="white"/>
<path d="M213.826 96.9422L213.126 97.8937C213.079 97.959 212.977 97.9617 212.898 97.9035L209.893 95.6948C209.843 95.6581 209.82 95.6742 209.809 95.6885C209.793 95.71 209.797 95.735 209.817 95.7833L210.53 97.3053C210.579 97.4189 210.562 97.5181 210.493 97.6111L210.069 98.1879C210 98.2818 209.912 98.3274 209.787 98.314L208.122 98.0886C208.07 98.0842 208.045 98.0877 208.029 98.1092C208.019 98.1235 208.01 98.1503 208.061 98.1879L211.065 100.396C211.145 100.454 211.173 100.552 211.125 100.617L210.426 101.568C210.384 101.625 210.314 101.675 210.235 101.616L205.228 97.9357C205.077 97.8248 205.062 97.6478 205.173 97.4958L205.671 96.8188C205.782 96.6677 205.929 96.6194 206.099 96.6444L208.963 97.0513C209.042 97.0647 209.093 97.0701 209.115 97.0406C209.136 97.012 209.116 96.9637 209.079 96.8922L207.836 94.2801C207.761 94.1254 207.764 93.9716 207.875 93.8205L208.373 93.1435C208.484 92.9924 208.664 92.9584 208.815 93.0693L213.816 96.7446C213.895 96.8027 213.869 96.8832 213.827 96.9413L213.826 96.9422Z" fill="white"/>
<path d="M211.669 86.4564L214.47 89.7338L216.694 90.6719C216.785 90.7103 216.831 90.8069 216.793 90.8981L216.327 92.0025C216.288 92.0928 216.19 92.1196 216.1 92.0812L213.875 91.1431L209.573 91.4257C209.541 91.432 209.516 91.4212 209.491 91.4105C209.425 91.3828 209.406 91.3157 209.436 91.2415L209.947 90.0307C209.981 89.9484 210.065 89.935 210.152 89.9332L212.805 89.8581L211.004 87.9149C210.944 87.8505 210.898 87.7736 210.933 87.6914L211.44 86.4886C211.471 86.4144 211.533 86.3822 211.599 86.4099C211.624 86.4207 211.648 86.4305 211.666 86.4573L211.669 86.4564Z" fill="white"/>
</g>
<defs>
<filter id="filter0_d_1822_696" x="0" y="-116" width="362" height="377" filterUnits="userSpaceOnUse" color-interpolation-filters="sRGB">
<feFlood flood-opacity="0" result="BackgroundImageFix"/>
<feColorMatrix in="SourceAlpha" type="matrix" values="0 0 0 0 0 0 0 0 0 0 0 0 0 0 0 0 0 0 127 0" result="hardAlpha"/>
<feOffset dy="4"/>
<feGaussianBlur stdDeviation="60"/>
<feComposite in2="hardAlpha" operator="out"/>
<feColorMatrix type="matrix" values="0 0 0 0 0.113725 0 0 0 0 0.443137 0 0 0 0 0.933333 0 0 0 0.32 0"/>
<feBlend mode="normal" in2="BackgroundImageFix" result="effect1_dropShadow_1822_696"/>
<feBlend mode="normal" in="SourceGraphic" in2="effect1_dropShadow_1822_696" result="shape"/>
</filter>
<radialGradient id="paint0_radial_1822_696" cx="0" cy="0" r="1" gradientUnits="userSpaceOnUse" gradientTransform="translate(181.001 79.3678) scale(28.0199 28.0202)">
<stop stop-color="white"/>
<stop offset="0.55" stop-color="#FDFDFB"/>
<stop offset="0.74" stop-color="#F3F1F0"/>
<stop offset="0.88" stop-color="#E7E3E1"/>
<stop offset="0.99" stop-color="#D9D2CF"/>
<stop offset="1" stop-color="#D8D0CE"/>
</radialGradient>
<radialGradient id="paint1_radial_1822_696" cx="0" cy="0" r="1" gradientUnits="userSpaceOnUse" gradientTransform="translate(181.001 61.6616) scale(4.39322 4.39263)">
<stop stop-color="#FECB7C"/>
<stop offset="0.18" stop-color="#F6C473"/>
<stop offset="0.5" stop-color="#E9B65D"/>
<stop offset="0.9" stop-color="#D6A239"/>
<stop offset="1" stop-color="#CF9C30"/>
</radialGradient>
</defs>
</svg>
