<svg width="46" height="46" viewBox="0 0 46 46" fill="none" xmlns="http://www.w3.org/2000/svg">
<path d="M23.0004 17.2935H9.68521C7.58412 17.2935 5.88086 18.9967 5.88086 21.0978V28.7065C5.88086 30.8076 7.58412 32.5108 9.68521 32.5108H15.3917" stroke="#1D71EE" stroke-width="3.04348" stroke-linecap="round" stroke-linejoin="round"/>
<path d="M23 28.7064H36.3152C38.4163 28.7064 40.1196 27.0031 40.1196 24.9021V17.2934C40.1196 15.1923 38.4163 13.489 36.3152 13.489H30.6087" stroke="#1D71EE" stroke-width="3.04348" stroke-linecap="round" stroke-linejoin="round"/>
<path d="M15.3906 17.2934V9.68472C15.3906 7.58364 17.0939 5.88037 19.195 5.88037H26.8037C28.9048 5.88037 30.608 7.58364 30.608 9.68472V19.1956C30.608 21.2967 28.9048 22.9999 26.8037 22.9999H19.195C17.0939 22.9999 15.3906 24.7032 15.3906 26.8043V36.3152C15.3906 38.4162 17.0939 40.1195 19.195 40.1195H26.8037C28.9048 40.1195 30.608 38.4162 30.608 36.3152V28.7065" stroke="#1D71EE" stroke-width="3.04348" stroke-linecap="round" stroke-linejoin="round"/>
<path d="M21.0976 11.5868V11.6059" stroke="#1D71EE" stroke-width="3.04348" stroke-linecap="round" stroke-linejoin="round"/>
<path d="M24.9023 34.413V34.432" stroke="#1D71EE" stroke-width="3.04348" stroke-linecap="round" stroke-linejoin="round"/>
</svg>
