<svg width="82" height="21" viewBox="0 0 82 21" fill="none" xmlns="http://www.w3.org/2000/svg">
<path d="M7.38603 14.5127C7.68671 14.827 7.74839 15.3266 7.50167 15.6892C7.33206 15.939 7.02366 16.1244 6.49939 16.1244H4.10934C3.43859 16.1244 2.8989 15.5603 2.8989 14.8592V8.3402C2.8989 7.94535 2.53654 7.65525 2.16646 7.76001C1.92746 7.83253 1.68074 7.897 1.43403 7.94535C0.686176 8.08233 0 7.48603 0 6.68827V4.08549C0 3.54559 0.323813 3.07016 0.809533 2.88482C1.68074 2.56249 2.44402 1.76474 2.7447 0.846107C2.91432 0.338443 3.37691 0 3.89347 0H6.49939C6.99282 0 7.32435 0.201454 7.50938 0.52378C7.72526 0.886398 7.65587 1.35377 7.37061 1.65192C5.79009 3.29579 4.81865 5.56819 4.81865 8.07428C4.81865 10.5965 5.7978 12.8689 7.38603 14.5127Z" fill="white" fill-opacity="0.4"/>
<path d="M27.1385 0.0161311C24.7948 -0.0322178 22.6823 1.01534 21.2405 2.6995C20.9861 2.98959 20.9475 3.41667 21.1249 3.76318C21.7879 5.04442 22.1657 6.51101 22.1657 8.07429C22.1657 9.63757 21.7879 11.1042 21.1249 12.3854C20.9475 12.7319 20.9861 13.159 21.2405 13.4571C22.6514 15.101 24.7022 16.1405 26.9843 16.1405C31.2787 16.1405 34.7559 12.466 34.6942 7.96953C34.6325 3.63425 31.271 0.104771 27.1385 0.0161311ZM26.9843 11.0961C25.3884 11.0961 24.0932 9.74233 24.0932 8.07429C24.0932 6.40625 25.3884 5.05248 26.9843 5.05248C28.5803 5.05248 29.8755 6.40625 29.8755 8.07429C29.8755 9.74233 28.5803 11.0961 26.9843 11.0961Z" fill="white" fill-opacity="0.4"/>
<path fill-rule="evenodd" clip-rule="evenodd" d="M13.493 0.0162354C16.3996 0.0162354 18.9208 1.69233 20.2391 4.17425C20.8559 5.32656 21.2029 6.66422 21.2029 8.0744C21.2029 9.48457 20.8559 10.8222 20.2391 11.9745C18.9208 14.4565 16.3996 16.1326 13.493 16.1326C11.1878 16.1326 9.12156 15.0769 7.71066 13.4008C6.50793 11.9826 5.7832 10.1131 5.7832 8.0744C5.7832 6.03568 6.50793 4.16619 7.71066 2.74795C9.12156 1.07185 11.1878 0.0162354 13.493 0.0162354ZM10.6019 8.0744C10.6019 9.74243 11.8971 11.0962 13.493 11.0962C15.089 11.0962 16.3842 9.74243 16.3842 8.0744C16.3842 6.40636 15.089 5.05259 13.493 5.05259C11.8971 5.05259 10.6019 6.40636 10.6019 8.0744ZM15.0959 20.371C16.2755 20.1776 17.1544 19.114 17.1544 17.865C17.1544 17.1317 16.4914 16.6159 15.8129 16.8093C15.0805 17.0269 14.2941 17.1397 13.4923 17.1397C12.6904 17.1397 11.9117 17.0269 11.1716 16.8093C10.4931 16.6159 9.83008 17.1397 9.83008 17.865C9.83008 19.0979 10.6705 20.1615 11.8346 20.363C12.3743 20.4516 12.9294 20.5 13.4923 20.5C14.0396 20.5 14.5716 20.4597 15.0959 20.371Z" fill="white"/>
<path d="M38.2051 6.12473C38.2051 6.20545 38.2743 6.27809 38.3513 6.27809H39.0671C39.144 6.27809 39.2133 6.20545 39.2133 6.12473V0.781143C39.2133 0.700424 39.144 0.627777 39.0671 0.627777H38.3513C38.2743 0.627777 38.2051 0.700424 38.2051 0.781143V6.12473Z" fill="white" fill-opacity="0.4"/>
<path d="M40.6177 6.12473C40.6177 6.20545 40.6793 6.27809 40.7563 6.27809H42.5803C44.0657 6.27809 45.2818 5.01081 45.2818 3.44486C45.2818 1.89506 44.0657 0.627777 42.5803 0.627777H40.7563C40.6793 0.627777 40.6177 0.700424 40.6177 0.781143V6.12473ZM41.6106 5.29332V1.60447H42.488C43.4885 1.60447 44.2197 2.39552 44.2197 3.44486C44.2197 4.50228 43.4885 5.29332 42.488 5.29332H41.6106Z" fill="white" fill-opacity="0.4"/>
<path d="M46.2999 6.12473C46.2999 6.20545 46.3614 6.27809 46.4461 6.27809H49.5786C49.6632 6.27809 49.7248 6.20545 49.7248 6.12473V5.46283C49.7248 5.38211 49.6632 5.30947 49.5786 5.30947H47.3004V3.89689H49.2014C49.2784 3.89689 49.3477 3.83231 49.3477 3.74352V3.07356C49.3477 2.99284 49.2784 2.92019 49.2014 2.92019H47.3004V1.5964H49.5786C49.6632 1.5964 49.7248 1.52376 49.7248 1.44304V0.781143C49.7248 0.700424 49.6632 0.627777 49.5786 0.627777H46.4461C46.3614 0.627777 46.2999 0.700424 46.2999 0.781143V6.12473Z" fill="white" fill-opacity="0.4"/>
<path d="M50.255 6.27809H50.9246C51.0477 6.27809 51.117 6.19737 51.1478 6.11665L51.5249 5.24489H53.8262L54.2033 6.11665C54.2572 6.22966 54.311 6.27809 54.4265 6.27809H55.0961C55.2115 6.27809 55.2731 6.17316 55.2269 6.06822L52.8564 0.635849C52.8333 0.587417 52.8025 0.547058 52.7256 0.547058H52.6486C52.5793 0.547058 52.5408 0.587417 52.5178 0.635849L50.1242 6.06822C50.078 6.17316 50.1396 6.27809 50.255 6.27809ZM51.902 4.34891L52.6563 2.5731H52.6794L53.449 4.34891H51.902Z" fill="white" fill-opacity="0.4"/>
<path d="M55.6509 5.7292C55.8048 5.88257 56.3743 6.35881 57.3441 6.35881C58.4293 6.35881 59.1143 5.59198 59.1143 4.76058C59.1143 3.71931 58.2523 3.25114 57.5057 2.93633C56.8823 2.66996 56.5975 2.41166 56.5975 2.03228C56.5975 1.77398 56.8361 1.46725 57.2748 1.46725C57.6981 1.46725 58.2831 1.87085 58.3446 1.91121C58.437 1.97578 58.5524 1.91121 58.614 1.81434L58.9065 1.35425C58.9603 1.27353 58.9373 1.13631 58.8603 1.08787C58.7064 0.966796 58.106 0.547058 57.321 0.547058C56.0973 0.547058 55.5893 1.37846 55.5893 2.09686C55.5893 3.04934 56.3128 3.53365 57.0362 3.84038C57.6827 4.11483 58.0137 4.39734 58.0137 4.80901C58.0137 5.1561 57.7135 5.43054 57.3133 5.43054C56.813 5.43054 56.1896 4.9543 56.1511 4.93009C56.0819 4.87359 55.951 4.87359 55.8895 4.98659L55.6124 5.48705C55.5431 5.6162 55.5816 5.65656 55.6509 5.7292Z" fill="white" fill-opacity="0.4"/>
<path d="M61.798 6.12473C61.798 6.20545 61.8596 6.27809 61.9442 6.27809H62.6523C62.7292 6.27809 62.7985 6.20545 62.7985 6.12473V4.08254H64.6995C64.7765 4.08254 64.8458 4.00989 64.8458 3.92918V3.26728C64.8458 3.18656 64.7765 3.11392 64.6995 3.11392H62.7985V1.5964H65.0767C65.1613 1.5964 65.2229 1.52376 65.2229 1.44304V0.781143C65.2229 0.700424 65.1613 0.627777 65.0767 0.627777H61.9442C61.8596 0.627777 61.798 0.700424 61.798 0.781143V6.12473Z" fill="white" fill-opacity="0.4"/>
<path d="M65.7574 3.46101C65.7574 5.07538 66.9812 6.35881 68.5205 6.35881C70.0598 6.35881 71.2912 5.07538 71.2912 3.46101C71.2912 1.84663 70.0598 0.547058 68.5205 0.547058C66.9812 0.547058 65.7574 1.84663 65.7574 3.46101ZM66.758 3.46101C66.758 2.44395 67.5507 1.5964 68.5205 1.5964C69.4902 1.5964 70.2906 2.44395 70.2906 3.46101C70.2906 4.47806 69.4902 5.30947 68.5205 5.30947C67.5507 5.30947 66.758 4.47806 66.758 3.46101Z" fill="white" fill-opacity="0.4"/>
<path d="M72.2979 6.12473C72.2979 6.20545 72.3595 6.27809 72.4441 6.27809H73.1522C73.2292 6.27809 73.2985 6.20545 73.2985 6.12473V4.0664H74.1528L75.1764 6.20545C75.1918 6.23773 75.2303 6.27809 75.2995 6.27809H76.1077C76.2385 6.27809 76.2924 6.14894 76.2385 6.04401L75.1841 3.99375C75.8537 3.71123 76.3232 3.10584 76.3232 2.36323C76.3232 1.40268 75.5689 0.627777 74.6453 0.627777H72.4441C72.3595 0.627777 72.2979 0.700424 72.2979 0.781143V6.12473ZM73.3061 3.20271V1.5964H74.5607C74.9686 1.5964 75.3226 1.95157 75.3226 2.37937C75.3226 2.8314 74.9686 3.20271 74.5607 3.20271H73.3061Z" fill="white" fill-opacity="0.4"/>
<path d="M38.1289 13.3641C38.1289 14.591 39.0602 15.5838 40.2685 15.5838C41.4846 15.5838 42.4158 14.591 42.4158 13.3641V10.0062C42.4158 9.92546 42.3466 9.85281 42.2696 9.85281H41.5384C41.4538 9.85281 41.3922 9.92546 41.3922 10.0062V13.3156C41.3922 13.9937 40.9381 14.5345 40.2685 14.5345C39.5989 14.5345 39.1525 13.9937 39.1525 13.3076V10.0062C39.1525 9.92546 39.091 9.85281 39.0063 9.85281H38.2751C38.1982 9.85281 38.1289 9.92546 38.1289 10.0062V13.3641Z" fill="white"/>
<path d="M43.2297 15.3498C43.2297 15.4305 43.299 15.5031 43.376 15.5031H46.6623C46.747 15.5031 46.8086 15.4305 46.8086 15.3498V14.6798C46.8086 14.5991 46.747 14.5264 46.6623 14.5264H44.6997V14.5103L46.9625 10.1111V10.0062C46.9625 9.92546 46.8932 9.85281 46.8163 9.85281H43.5992C43.5222 9.85281 43.4529 9.92546 43.4529 10.0062V10.6761C43.4529 10.7569 43.5222 10.8295 43.5992 10.8295H45.5233V10.8618L43.2297 15.2045V15.3498Z" fill="white"/>
<path d="M47.879 15.3498C47.879 15.4305 47.9406 15.5031 48.0253 15.5031H49.8878C50.8268 15.5031 51.5656 14.8493 51.5656 13.9453C51.5656 13.2026 50.973 12.7668 50.5651 12.6295C50.9268 12.452 51.4117 11.9676 51.4117 11.3461C51.4117 10.4986 50.7036 9.85281 49.7878 9.85281H48.0253C47.9406 9.85281 47.879 9.92546 47.879 10.0062V15.3498ZM48.8719 12.2259V10.8134H49.6954C50.0879 10.8134 50.3573 11.0959 50.3573 11.4995C50.3573 11.9031 50.0879 12.2259 49.6954 12.2259H48.8719ZM48.8719 14.5506V13.1139H49.7108C50.111 13.1139 50.4958 13.4125 50.4958 13.8161C50.4958 14.2358 50.188 14.5506 49.8031 14.5506H48.8719Z" fill="white"/>
<path d="M52.6292 15.3498C52.6292 15.4305 52.6908 15.5031 52.7754 15.5031H55.9079C55.9925 15.5031 56.0541 15.4305 56.0541 15.3498V14.6879C56.0541 14.6072 55.9925 14.5345 55.9079 14.5345H53.6297V13.1219H55.5307C55.6077 13.1219 55.677 13.0573 55.677 12.9686V12.2986C55.677 12.2179 55.6077 12.1452 55.5307 12.1452H53.6297V10.8214H55.9079C55.9925 10.8214 56.0541 10.7488 56.0541 10.6681V10.0062C56.0541 9.92546 55.9925 9.85281 55.9079 9.85281H52.7754C52.6908 9.85281 52.6292 9.92546 52.6292 10.0062V15.3498Z" fill="white"/>
<path d="M57.1539 15.3094C57.1539 15.4143 57.2308 15.5031 57.3386 15.5031H58.0159C58.1159 15.5031 58.2006 15.4143 58.2006 15.3094V12.8475L60.2093 15.4466C60.2247 15.4708 60.2709 15.5031 60.3479 15.5031H61.1868C61.3407 15.5031 61.4023 15.3255 61.3253 15.2206L59.1703 12.5165L61.1791 10.1434C61.2791 10.0223 61.2022 9.85281 61.0559 9.85281H60.2863C60.217 9.85281 60.1709 9.89317 60.1401 9.93353L58.2006 12.2259V10.0465C58.2006 9.9416 58.1159 9.85281 58.0159 9.85281H57.3386C57.2308 9.85281 57.1539 9.9416 57.1539 10.0465V15.3094Z" fill="white"/>
<path d="M62.1746 15.3498C62.1746 15.4305 62.2438 15.5031 62.3208 15.5031H63.0366C63.1135 15.5031 63.1828 15.4305 63.1828 15.3498V10.0062C63.1828 9.92546 63.1135 9.85281 63.0366 9.85281H62.3208C62.2438 9.85281 62.1746 9.92546 62.1746 10.0062V15.3498Z" fill="white"/>
<path d="M64.3102 14.9542C64.4641 15.1076 65.0336 15.5838 66.0034 15.5838C67.0886 15.5838 67.7736 14.817 67.7736 13.9856C67.7736 12.9443 66.9116 12.4762 66.165 12.1614C65.5416 11.895 65.2568 11.6367 65.2568 11.2573C65.2568 10.999 65.4954 10.6923 65.9341 10.6923C66.3574 10.6923 66.9423 11.0959 67.0039 11.1362C67.0963 11.2008 67.2117 11.1362 67.2733 11.0394L67.5658 10.5793C67.6196 10.4986 67.5965 10.3613 67.5196 10.3129C67.3656 10.1918 66.7653 9.77209 65.9803 9.77209C64.7566 9.77209 64.2486 10.6035 64.2486 11.3219C64.2486 12.2744 64.9721 12.7587 65.6955 13.0654C66.342 13.3399 66.673 13.6224 66.673 14.034C66.673 14.3811 66.3728 14.6556 65.9726 14.6556C65.4723 14.6556 64.8489 14.1793 64.8104 14.1551C64.7412 14.0986 64.6103 14.0986 64.5487 14.2116L64.2717 14.7121C64.2024 14.8412 64.2409 14.8816 64.3102 14.9542Z" fill="white"/>
<path d="M69.4821 15.3498C69.4821 15.4305 69.5514 15.5031 69.6283 15.5031H70.3441C70.4211 15.5031 70.4903 15.4305 70.4903 15.3498V10.8214H71.6679C71.7526 10.8214 71.8141 10.7488 71.8141 10.6681V10.0062C71.8141 9.92546 71.7526 9.85281 71.6679 9.85281H68.3046C68.2199 9.85281 68.1583 9.92546 68.1583 10.0062V10.6681C68.1583 10.7488 68.2199 10.8214 68.3046 10.8214H69.4821V15.3498Z" fill="white"/>
<path d="M71.7517 15.5031H72.4213C72.5444 15.5031 72.6137 15.4224 72.6445 15.3417L73.0216 14.4699H75.3229L75.7 15.3417C75.7539 15.4547 75.8077 15.5031 75.9232 15.5031H76.5928C76.7082 15.5031 76.7698 15.3982 76.7236 15.2933L74.3531 9.86089C74.33 9.81245 74.2992 9.77209 74.2223 9.77209H74.1453C74.076 9.77209 74.0376 9.81245 74.0145 9.86089L71.6209 15.2933C71.5747 15.3982 71.6363 15.5031 71.7517 15.5031ZM73.3988 13.574L74.153 11.7981H74.1761L74.9457 13.574H73.3988Z" fill="white"/>
<path d="M77.4247 15.3498C77.4247 15.4305 77.4939 15.5031 77.5709 15.5031H78.2713C78.3559 15.5031 78.4175 15.4305 78.4175 15.3498V11.8789H78.4252L81.6423 15.5838H81.827C81.904 15.5838 81.9733 15.5193 81.9733 15.4386V10.0062C81.9733 9.92546 81.904 9.85281 81.827 9.85281H81.1189C81.0343 9.85281 80.9727 9.92546 80.9727 10.0062V13.3399H80.965L77.7633 9.77209H77.5709C77.4939 9.77209 77.4247 9.83667 77.4247 9.91739V15.3498Z" fill="white"/>
</svg>
