<svg xmlns="http://www.w3.org/2000/svg" width="64" height="64" viewBox="0 0 64 64" fill="none">
  <g opacity="0.2">
    <path d="M18.6658 37.3333C12.9883 40.5386 9.82353 46.8682 10.6658 53.3333C17.131 54.1756 23.4606 51.0108 26.6658 45.3333M10.6658 34.6667C20.453 35.8298 28.1694 43.5461 29.3325 53.3333C34.1247 50.5706 37.1499 45.5285 37.3325 40C46.4892 36.7788 52.804 28.359 53.3325 18.6667C53.3325 14.2484 49.7508 10.6667 45.3325 10.6667C35.6401 11.1951 27.2204 17.5099 23.9992 26.6667C18.4706 26.8492 13.4286 29.8745 10.6658 34.6667ZM42.6658 24C42.6658 25.4728 41.4719 26.6667 39.9992 26.6667C38.5264 26.6667 37.3325 25.4728 37.3325 24C37.3325 22.5272 38.5264 21.3333 39.9992 21.3333C41.4719 21.3333 42.6658 22.5272 42.6658 24Z" stroke="url(#paint0_linear_773_5731)" stroke-width="3" stroke-linecap="round" stroke-linejoin="round"/>
  </g>
  <defs>
    <linearGradient id="paint0_linear_773_5731" x1="39.9994" y1="10.6667" x2="39.9994" y2="61.3333" gradientUnits="userSpaceOnUse">
      <stop stop-color="white"/>
      <stop offset="1" stop-color="white" stop-opacity="0"/>
    </linearGradient>
  </defs>
</svg>