<svg width="210" height="151" viewBox="0 0 210 151" fill="none" xmlns="http://www.w3.org/2000/svg">
<path d="M107.974 145.038C106.321 145.316 104.647 145.444 102.972 145.422C99.8298 145.422 96.4609 143.321 96.4609 137.453V134.018C96.4609 127.795 99.9931 126.026 103.195 126.026C104.795 126.012 106.394 126.132 107.974 126.384C108.198 126.411 108.403 126.511 108.403 126.769V128.049C108.403 128.228 108.304 128.307 108.077 128.307H107.979C106.496 128.18 105.338 128.128 103.199 128.128C100.863 128.128 98.7501 129.408 98.7501 134.018V137.453C98.7501 141.683 100.636 143.347 102.976 143.347C104.507 143.347 105.548 143.247 106.14 143.194V135.866C106.134 135.802 106.142 135.736 106.163 135.675C106.183 135.614 106.215 135.557 106.258 135.508C106.3 135.461 106.352 135.421 106.41 135.394C106.468 135.367 106.531 135.352 106.595 135.35H107.953C108.082 135.358 108.204 135.415 108.292 135.511C108.381 135.607 108.43 135.734 108.429 135.866V144.474C108.433 144.609 108.389 144.739 108.306 144.843C108.222 144.947 108.104 145.016 107.974 145.038Z" fill="#B0ACAB"/>
<path d="M117.801 132.942C116.631 132.895 115.46 132.981 114.308 133.2V144.731C114.314 144.856 114.273 144.979 114.194 145.074C114.114 145.169 114.001 145.23 113.88 145.243H112.572C112.445 145.235 112.326 145.178 112.241 145.082C112.156 144.987 112.112 144.861 112.118 144.731V132.278C112.125 132.15 112.17 132.026 112.247 131.924C112.324 131.822 112.43 131.746 112.55 131.705C113.982 131.063 115.718 130.989 117.801 130.989C118.131 130.989 118.333 131.015 118.333 131.373V132.549C118.333 132.816 118.281 132.942 117.801 132.942Z" fill="#B0ACAB"/>
<path d="M126.143 145.421C122.448 145.421 120.57 142.935 120.57 139.168V137.219C120.57 133.453 122.457 130.971 126.143 130.971C129.83 130.971 131.716 133.453 131.716 137.219V139.168C131.716 142.935 129.816 145.421 126.143 145.421ZM129.538 137.219C129.538 134.598 128.505 132.942 126.143 132.942C123.781 132.942 122.774 134.585 122.774 137.219V139.168C122.774 141.79 123.781 143.451 126.143 143.451C128.505 143.451 129.538 141.808 129.538 139.168V137.219Z" fill="#B0ACAB"/>
<path d="M140.1 145.421H139.859C138.145 145.421 134.681 144.447 134.681 139.4V131.661C134.676 131.596 134.684 131.53 134.705 131.468C134.726 131.407 134.759 131.35 134.802 131.302C134.846 131.254 134.899 131.215 134.958 131.189C135.016 131.163 135.08 131.15 135.144 131.15H136.452C136.515 131.151 136.578 131.165 136.635 131.192C136.693 131.219 136.745 131.257 136.788 131.305C136.83 131.353 136.863 131.409 136.884 131.471C136.904 131.532 136.911 131.597 136.906 131.661V139.4C136.906 142.459 138.192 143.45 139.872 143.45H140.1C141.78 143.45 143.066 142.476 143.066 139.4V131.661C143.06 131.597 143.068 131.532 143.089 131.471C143.108 131.411 143.141 131.354 143.183 131.306C143.225 131.259 143.276 131.22 143.334 131.193C143.391 131.166 143.453 131.152 143.516 131.15H144.823C144.887 131.151 144.949 131.165 145.007 131.192C145.065 131.219 145.117 131.257 145.16 131.305C145.202 131.353 145.235 131.409 145.255 131.471C145.275 131.532 145.283 131.597 145.278 131.661V139.4C145.278 144.447 141.805 145.421 140.1 145.421Z" fill="#B0ACAB"/>
<path d="M153.849 145.422C152.863 145.409 151.879 145.315 150.908 145.142V149.779C150.908 149.843 150.895 149.905 150.872 149.964C150.848 150.023 150.812 150.076 150.768 150.122C150.724 150.167 150.672 150.202 150.614 150.227C150.556 150.251 150.494 150.264 150.432 150.264H149.146C149.085 150.263 149.024 150.25 148.968 150.225C148.912 150.2 148.861 150.164 148.818 150.119C148.776 150.074 148.743 150.021 148.721 149.962C148.7 149.904 148.689 149.841 148.692 149.779V132.143C148.692 131.811 148.769 131.658 149.219 131.558C150.734 131.183 152.286 130.985 153.844 130.968C157.591 130.968 159.326 133.45 159.326 137.295V139.135C159.331 143.167 157.518 145.422 153.849 145.422ZM157.115 137.299C157.115 134.607 156.339 132.869 153.849 132.869C152.863 132.875 151.88 132.959 150.908 133.122V143.268C151.88 143.431 152.863 143.517 153.849 143.526C156.313 143.526 157.115 141.887 157.115 139.156V137.299Z" fill="#B0ACAB"/>
<path d="M64.2234 145.214C63.0917 145.393 59.9368 145.621 58.8437 145.621C53.9913 145.621 50.6992 144.379 50.6992 138.166V126.84C50.7003 126.775 50.7142 126.71 50.7402 126.649C50.766 126.589 50.8034 126.535 50.8502 126.49C50.8969 126.445 50.9519 126.41 51.0121 126.387C51.0723 126.363 51.1364 126.353 51.2008 126.355H55.2987C55.3632 126.352 55.4275 126.363 55.488 126.385C55.5485 126.408 55.6038 126.444 55.6506 126.489C55.6974 126.534 55.7348 126.589 55.7605 126.649C55.7862 126.709 55.7997 126.774 55.8002 126.84V138.166C55.8002 140.473 56.5547 141.224 58.3422 141.224C59.149 141.222 59.9552 141.169 60.7558 141.067V126.84C60.7558 126.774 60.7696 126.709 60.7953 126.649C60.8209 126.589 60.8585 126.534 60.9052 126.489C60.952 126.444 61.0073 126.408 61.0678 126.385C61.1284 126.363 61.1923 126.352 61.2568 126.355H65.3294C65.4618 126.349 65.5921 126.397 65.6902 126.487C65.789 126.578 65.8489 126.704 65.8568 126.84V143.239C65.8568 144.672 65.4282 145.035 64.2234 145.214Z" fill="url(#paint0_linear_774_5676)"/>
<path d="M73.7501 145.393H69.626C69.4937 145.389 69.3685 145.334 69.2764 145.237C69.1842 145.141 69.1328 145.012 69.1328 144.878V126.84C69.1341 126.775 69.1473 126.711 69.173 126.651C69.1987 126.592 69.2349 126.538 69.281 126.493C69.3264 126.448 69.3804 126.413 69.4397 126.389C69.4989 126.365 69.5621 126.353 69.626 126.355H73.7501C73.8146 126.352 73.8792 126.362 73.9398 126.385C74.0003 126.408 74.0556 126.443 74.1024 126.489C74.1492 126.534 74.1867 126.588 74.2124 126.649C74.238 126.709 74.2512 126.774 74.2519 126.84V144.878C74.2525 144.945 74.24 145.012 74.215 145.074C74.19 145.137 74.1531 145.194 74.1064 145.242C74.0596 145.29 74.0043 145.328 73.943 145.354C73.8818 145.379 73.8166 145.393 73.7501 145.393Z" fill="url(#paint1_linear_774_5676)"/>
<path d="M88.3271 145.16C87.1835 145.493 85.9972 145.648 84.8075 145.62C80.1825 145.62 77.0664 143.059 77.0664 137.191V134.568C77.0664 128.683 80.1825 126.122 84.8075 126.122C85.9965 126.096 87.1829 126.251 88.3271 126.581C88.73 126.712 88.8801 126.787 88.8801 127.145V130.426C88.8801 130.758 88.73 130.911 88.4515 130.911H88.3745C87.2059 130.772 86.0314 130.696 84.8549 130.684C83.496 130.684 82.2833 131.296 82.2833 134.551V137.173C82.2833 140.402 83.4921 141.045 84.8549 141.045C86.0314 141.031 87.2059 140.954 88.3745 140.813H88.4213C88.7215 140.813 88.8499 140.966 88.8499 141.298V144.597C88.8801 144.929 88.73 145.034 88.3271 145.16Z" fill="url(#paint2_linear_774_5676)"/>
<path d="M69.665 26.8306C41.0862 20.0015 21.1142 36.2297 8.82937 17.9821C8.79257 17.9087 8.75576 17.872 8.71903 17.7985C8.38793 17.2845 8.82937 16.5502 9.41782 16.6971C34.7231 22.7184 38.8425 18.9734 49.4722 20.2585C59.2927 21.4334 69.665 26.8306 69.665 26.8306Z" fill="url(#paint3_linear_774_5676)"/>
<path d="M74.7037 31.417C49.5453 27.7088 31.7066 46.4704 18.2448 32.0412C18.208 32.0045 18.1712 31.931 18.0976 31.8943C17.7299 31.4905 17.9873 30.7561 18.539 30.7929C41.527 32.4818 46.9339 28.4431 56.3866 28.0392C65.214 27.6721 74.7037 31.417 74.7037 31.417Z" fill="url(#paint4_linear_774_5676)"/>
<path d="M79.3758 37.3296C57.4175 34.3556 48.0016 54.0348 30.1996 41.9924C30.1629 41.9557 30.1261 41.919 30.0525 41.8456C29.6847 41.5152 29.795 40.5605 30.31 40.5605C49.7671 40.5972 54.8428 36.0812 63.0451 35.0899C74.153 33.7682 79.3758 37.3296 79.3758 37.3296Z" fill="url(#paint5_linear_774_5676)"/>
<path d="M89.27 43.8267C77.7947 45.0383 79.5966 54.2174 67.0179 52.1612C65.3621 51.9041 65.7301 50.7292 66.4662 50.5089C77.0218 47.4983 77.0218 45.4789 80.8107 43.9736C84.4152 42.6151 89.27 43.8267 89.27 43.8267Z" fill="url(#paint6_linear_774_5676)"/>
<path d="M84.0841 41.0006C67.5328 41.331 63.3027 53.1899 49.3627 49.335C47.2294 48.7476 47.965 47.1321 49.1053 46.9852C65.0685 44.4519 65.8407 42.102 71.7621 40.7068C77.3161 39.3851 84.0841 41.0006 84.0841 41.0006Z" fill="url(#paint7_linear_774_5676)"/>
<path d="M74.6311 26.7915C74.5205 26.975 74.2631 27.0118 74.0794 26.9383C70.6585 24.9924 67.4589 22.7161 63.7806 20.2194C60.3235 17.9063 52.8935 14.7488 37.4455 15.4831C30.0893 15.8502 18.9079 17.3556 7.35875 9.46173C4.56339 7.58925 1.73123 4.395 0.260017 1.42106C0.112892 1.16407 0.0393332 0.833583 0.0025503 0.50316C-0.0342261 0.172737 0.333577 -0.084253 0.66461 0.0258662C29.2434 11.4811 37.4087 7.00183 55.3946 11.1507C62.7878 12.8763 71.9463 23.5972 74.5942 26.2774C74.7411 26.3876 74.7411 26.6079 74.6311 26.7915Z" fill="url(#paint8_linear_774_5676)"/>
<path d="M99.4936 89.5776C99.1624 90.6054 99.2361 91.8173 98.5738 92.6984C97.7647 93.8736 95.7784 93.9836 94.8224 92.9185C94.197 92.3682 94.197 91.4871 93.9764 90.7895C92.5419 84.5112 91.1442 78.2329 89.7464 71.9172C89.5996 71.477 89.7464 71.1829 90.1882 70.9994C90.8867 70.816 90.9605 71.587 91.181 72.0279C92.7624 76.3233 94.2339 80.656 95.8521 84.9514C96.367 86.4201 98.0958 85.9425 99.2361 86.31C100.45 87.081 99.7141 88.5131 99.4936 89.5776Z" fill="url(#paint9_linear_774_5676)"/>
<path d="M101.37 72.2447C101.518 72.6483 101.297 73.1258 100.855 73.1992C100.598 73.2359 100.378 73.1992 100.304 72.8324C99.2372 70.7027 98.3175 68.463 97.2141 66.3333C95.7795 65.122 94.2718 63.8735 93.389 62.148C91.8076 59.3573 91.9544 55.7229 93.7201 53.0423C93.8669 52.8589 93.9775 52.6388 94.1244 52.4547C94.3818 52.0879 94.9335 52.1613 95.081 52.6021C95.1916 52.9323 95.2647 53.2624 95.4121 53.5566C97.3984 59.7615 99.311 66.0398 101.37 72.2447Z" fill="url(#paint10_linear_774_5676)"/>
<path d="M101.667 42.6889C101.593 44.3411 100.968 45.8831 100.563 47.4619C100.526 47.5721 100.489 47.6454 100.379 47.6822C100.122 47.7923 99.8644 47.6087 99.8644 47.3518C99.9013 45.1855 100.674 43.0561 100.122 40.9265C99.3126 38.026 97.326 35.4926 97.1785 32.4086C97.1054 30.7931 97.5097 29.2143 97.8409 27.6355C96.6636 25.1756 96.1117 22.3485 96.7373 19.6683C96.8479 19.3378 96.8841 19.3378 97.0685 19.5948C98.209 21.247 99.7169 22.8992 99.7169 25.0654C99.5701 28.1495 97.8778 31.2337 99.0183 34.3177C99.9375 37.0714 101.924 39.6415 101.667 42.6889Z" fill="url(#paint11_linear_774_5676)"/>
<path d="M111.373 32.0423C111.299 36.081 107.768 39.312 108.173 43.4241C108.173 45.0029 108.577 46.6184 108.394 48.1971C108.136 49.5923 106.554 49.8126 105.415 50.143C104.752 50.4368 104.017 49.6657 104.2 49.0048C104.2 44.2318 104.2 39.4221 104.2 34.6491C104.274 32.6664 104.752 30.5736 106.113 29.0683C106.959 28.077 107.842 27.0857 108.761 26.0944C108.945 25.8741 109.055 25.617 109.018 25.36C108.945 24.4789 108.761 23.7079 109.166 22.6798C109.791 21.3948 110.6 20.6237 111.446 19.7793C111.593 19.6325 111.814 19.7058 111.851 19.8895C112.439 22.4962 111.851 25.3234 110.637 27.6731C110.932 29.0683 111.373 30.537 111.373 32.0423Z" fill="url(#paint12_linear_774_5676)"/>
<path d="M157.83 17.2842C152.828 18.6794 150.511 20.3683 148.525 21.9471C148.525 21.9471 153.049 20.3683 159.559 19.6707C178.023 17.6514 179.09 24.5172 199.76 16.5499C200.46 16.4398 200.643 16.9905 200.46 17.2842C197.701 22.0573 194.648 27.3443 183.098 27.8216C170.52 28.3356 163.973 23.3056 152.166 24.8109C144.626 25.7655 140.727 28.1153 138.557 29.5472C164.303 24.6274 162.17 35.9357 187.402 29.9144C187.696 29.841 188.028 29.7675 188.322 29.8042C188.984 29.8776 189.241 30.6854 188.837 31.126C188.652 31.3463 188.395 31.5666 188.211 31.7869C184.901 35.3483 181.407 39.2401 169.637 38.3589C155.807 37.3309 154.924 28.7762 128.516 35.3115C154.115 35.2014 153.674 43.5725 172.947 41.0759C173.609 41.0024 174.014 41.8102 173.499 42.2508C173.205 42.5078 172.873 42.7281 172.616 42.9484C169.711 45.2248 165.481 48.0152 157.536 46.3997C140.985 42.9484 143.081 36.1193 121.785 39.8643C138.373 40.3048 137.233 46.7301 154.263 48.3088C154.263 48.3088 154.263 48.3088 154.3 48.3088C155.219 48.419 155.476 49.6306 154.704 50.1446C154.115 50.5485 153.454 50.8422 152.828 51.0992C140.396 55.909 134.622 40.3416 119.357 43.8296C130.282 44.7842 129.399 48.4557 139.256 51.136C140.322 51.4297 140.212 52.8616 139.035 52.9716C127.339 54.1469 128.368 46.2895 121.196 45.9958C119.284 45.9224 117.519 46.9504 116.562 48.6393C113.73 53.5592 114.87 58.2221 114.686 60.7553C115.349 63.3992 116.341 65.9691 116.378 68.7591C116.415 70.7054 116.231 72.725 115.606 74.5972C114.429 78.489 113.252 82.3809 112.038 86.3094C111.781 87.1171 111.817 87.9982 112.111 88.7692C112.553 89.9445 112.994 91.0823 113.178 92.3309C113.62 94.4233 113.325 96.5896 112.59 98.6092C111.045 102.391 109.5 106.173 107.955 109.991C107.661 110.688 107.44 111.423 106.925 112.01C106.153 112.157 106.227 111.166 106.3 110.688C107.808 96.5529 109.243 82.4176 110.714 68.2822L111.891 64.904C109.574 66.8869 108.544 69.6409 107.036 72.1007C106.852 72.6876 105.969 72.7983 105.785 72.1374C105.933 69.6775 106.263 67.217 106.337 64.7572C106.557 62.2607 106.521 59.7275 107.367 57.341C108.323 54.9179 110.162 52.9716 111.597 50.8789C113.951 47.8683 115.716 44.4537 116.93 40.8556C117.665 38.6527 119.211 36.7067 121.196 35.4952C128.075 31.1627 132.084 27.4177 138.594 22.4978C144.589 17.9818 149.224 14.4571 151.871 13.3924C163.973 8.43583 188.285 13.7596 209.103 0.248223C209.617 -0.0454504 210.28 0.541962 209.875 1.38643C207.926 6.30629 205.609 9.46385 200.092 12.1808C184.202 20.0012 165.959 15.0079 157.83 17.2842Z" fill="url(#paint13_linear_774_5676)"/>
<path d="M109.574 25.7634C109.574 25.7634 108.213 23.377 104.902 23.0832C102.401 22.8629 101.262 23.7074 101.262 23.7074C101.262 23.7074 104.278 22.8262 106.631 24.919C108.986 27.0118 107.698 28.8109 107.698 28.8109C107.698 28.8109 110.273 27.3055 109.574 25.7634Z" fill="url(#paint14_linear_774_5676)"/>
<path d="M109.427 25.4356C109.427 25.4356 107.697 23.5998 104.166 23.4529C104.166 23.4529 106.263 23.9669 106.521 25.1051C106.962 27.2714 105.049 30.1719 104.681 31.5671C104.387 32.8154 109.427 25.4356 109.427 25.4356Z" fill="url(#paint15_linear_774_5676)"/>
<defs>
<linearGradient id="paint0_linear_774_5676" x1="58.278" y1="126.354" x2="58.278" y2="145.621" gradientUnits="userSpaceOnUse">
<stop stop-color="white"/>
<stop offset="1" stop-color="white"/>
</linearGradient>
<linearGradient id="paint1_linear_774_5676" x1="71.6924" y1="126.354" x2="71.6924" y2="145.393" gradientUnits="userSpaceOnUse">
<stop stop-color="white"/>
<stop offset="1" stop-color="white"/>
</linearGradient>
<linearGradient id="paint2_linear_774_5676" x1="82.9733" y1="126.12" x2="82.9733" y2="145.623" gradientUnits="userSpaceOnUse">
<stop stop-color="white"/>
<stop offset="1" stop-color="white"/>
</linearGradient>
<linearGradient id="paint3_linear_774_5676" x1="39.1352" y1="16.678" x2="39.1352" y2="27.014" gradientUnits="userSpaceOnUse">
<stop stop-color="white"/>
<stop offset="1" stop-color="white"/>
</linearGradient>
<linearGradient id="paint4_linear_774_5676" x1="46.3147" y1="28.0139" x2="46.3147" y2="37.5789" gradientUnits="userSpaceOnUse">
<stop stop-color="white"/>
<stop offset="1" stop-color="white"/>
</linearGradient>
<linearGradient id="paint5_linear_774_5676" x1="54.6059" y1="34.7958" x2="54.6059" y2="45.9332" gradientUnits="userSpaceOnUse">
<stop stop-color="white"/>
<stop offset="1" stop-color="white"/>
</linearGradient>
<linearGradient id="paint6_linear_774_5676" x1="77.5569" y1="43.3292" x2="77.5569" y2="52.4602" gradientUnits="userSpaceOnUse">
<stop stop-color="white"/>
<stop offset="1" stop-color="white"/>
</linearGradient>
<linearGradient id="paint7_linear_774_5676" x1="66.042" y1="40.187" x2="66.042" y2="50.1048" gradientUnits="userSpaceOnUse">
<stop stop-color="white"/>
<stop offset="1" stop-color="white"/>
</linearGradient>
<linearGradient id="paint8_linear_774_5676" x1="37.3547" y1="0" x2="37.3547" y2="26.9738" gradientUnits="userSpaceOnUse">
<stop stop-color="white"/>
<stop offset="1" stop-color="white"/>
</linearGradient>
<linearGradient id="paint9_linear_774_5676" x1="94.804" y1="70.9717" x2="94.804" y2="93.6531" gradientUnits="userSpaceOnUse">
<stop stop-color="white"/>
<stop offset="1" stop-color="white"/>
</linearGradient>
<linearGradient id="paint10_linear_774_5676" x1="96.8544" y1="52.2199" x2="96.8544" y2="73.2104" gradientUnits="userSpaceOnUse">
<stop stop-color="white"/>
<stop offset="1" stop-color="white"/>
</linearGradient>
<linearGradient id="paint11_linear_774_5676" x1="99.0831" y1="19.4104" x2="99.0831" y2="47.7148" gradientUnits="userSpaceOnUse">
<stop stop-color="white"/>
<stop offset="1" stop-color="white"/>
</linearGradient>
<linearGradient id="paint12_linear_774_5676" x1="108.126" y1="19.7012" x2="108.126" y2="50.2073" gradientUnits="userSpaceOnUse">
<stop stop-color="white"/>
<stop offset="1" stop-color="white"/>
</linearGradient>
<linearGradient id="paint13_linear_774_5676" x1="157.893" y1="0.171631" x2="157.893" y2="112.025" gradientUnits="userSpaceOnUse">
<stop stop-color="white"/>
<stop offset="1" stop-color="white"/>
</linearGradient>
<linearGradient id="paint14_linear_774_5676" x1="105.478" y1="23.0466" x2="105.478" y2="28.8109" gradientUnits="userSpaceOnUse">
<stop stop-color="white"/>
<stop offset="1" stop-color="white"/>
</linearGradient>
<linearGradient id="paint15_linear_774_5676" x1="106.796" y1="23.4529" x2="106.796" y2="31.7093" gradientUnits="userSpaceOnUse">
<stop stop-color="white"/>
<stop offset="1" stop-color="white"/>
</linearGradient>
</defs>
</svg>
