<svg width="17" height="31" viewBox="0 0 17 31" fill="none" xmlns="http://www.w3.org/2000/svg">
<path d="M16.2381 7.38095V22.881C16.2381 27.3686 12.6067 31 8.11905 31C3.63143 31 0 27.3686 0 22.881V5.90476C0 2.64238 2.64238 0 5.90476 0C9.16714 0 11.8095 2.64238 11.8095 5.90476V21.4048C11.8095 22.3835 11.4207 23.3222 10.7286 24.0143C10.0365 24.7064 9.09782 25.0952 8.11905 25.0952C7.14027 25.0952 6.20159 24.7064 5.50949 24.0143C4.81739 23.3222 4.42857 22.3835 4.42857 21.4048V7.38095H5.90476V21.4048C5.90476 21.992 6.13805 22.5552 6.55331 22.9705C6.96857 23.3858 7.53178 23.619 8.11905 23.619C8.70631 23.619 9.26952 23.3858 9.68478 22.9705C10.1 22.5552 10.3333 21.992 10.3333 21.4048V5.90476C10.3333 4.73023 9.86675 3.60381 9.03623 2.77329C8.20572 1.94277 7.07929 1.47619 5.90476 1.47619C4.73023 1.47619 3.60381 1.94277 2.77329 2.77329C1.94277 3.60381 1.47619 4.73023 1.47619 5.90476V22.881C1.47619 24.6427 2.17606 26.3324 3.42184 27.5782C4.66762 28.8239 6.35725 29.5238 8.11905 29.5238C9.88084 29.5238 11.5705 28.8239 12.8163 27.5782C14.062 26.3324 14.7619 24.6427 14.7619 22.881V7.38095H16.2381Z" fill="#FF9900"/>
</svg>
