<svg width="30" height="30" viewBox="0 0 30 30" fill="none" xmlns="http://www.w3.org/2000/svg">
<path d="M15.7895 0H17.3684C20.7185 0 23.9314 1.33082 26.3003 3.6997C28.6692 6.06858 30 9.28147 30 12.6316V14.2105H15.7895V0ZM17.3684 12.6316H28.4211C28.4211 9.70024 27.2566 6.88896 25.1838 4.81619C23.111 2.74342 20.2998 1.57895 17.3684 1.57895V12.6316ZM12.6316 17.3684H25.2632C25.2632 19.8667 24.5223 22.3089 23.1344 24.3861C21.7464 26.4634 19.7736 28.0824 17.4655 29.0385C15.1574 29.9945 12.6176 30.2447 10.1673 29.7573C7.717 29.2699 5.46627 28.0668 3.69971 26.3003C1.93315 24.5337 0.73011 22.283 0.242718 19.8327C-0.244674 17.3824 0.00547302 14.8426 0.961527 12.5345C1.91758 10.2264 3.5366 8.25362 5.61385 6.86565C7.69111 5.47767 10.1333 4.73684 12.6316 4.73684V17.3684ZM11.0526 18.9474V6.42631C8.29112 6.83097 5.78484 8.2651 4.03679 10.4409C2.28874 12.6167 1.4283 15.3731 1.62814 18.1569C1.82799 20.9408 3.07333 23.546 5.11424 25.4498C7.15515 27.3536 9.84059 28.415 12.6316 28.421C15.2898 28.4214 17.859 27.4639 19.8687 25.724C21.8783 23.984 23.1936 21.5782 23.5737 18.9474H11.0526Z" fill="#FF6107"/>
</svg>
