<svg width="32" height="25" viewBox="0 0 32 25" fill="none" xmlns="http://www.w3.org/2000/svg">
<path d="M5 0H26.6667C27.9927 0 29.2645 0.526784 30.2022 1.46447C31.1399 2.40215 31.6667 3.67392 31.6667 5V20C31.6667 21.3261 31.1399 22.5979 30.2022 23.5355C29.2645 24.4732 27.9927 25 26.6667 25H5C3.67392 25 2.40215 24.4732 1.46447 23.5355C0.526784 22.5979 0 21.3261 0 20V5C0 3.67392 0.526784 2.40215 1.46447 1.46447C2.40215 0.526784 3.67392 0 5 0ZM5 1.66667C4.11594 1.66667 3.2681 2.01786 2.64298 2.64298C2.01786 3.2681 1.66667 4.11594 1.66667 5V6.66667H30V5C30 4.11594 29.6488 3.2681 29.0237 2.64298C28.3986 2.01786 27.5507 1.66667 26.6667 1.66667H5ZM1.66667 20C1.66667 20.8841 2.01786 21.7319 2.64298 22.357C3.2681 22.9821 4.11594 23.3333 5 23.3333H26.6667C27.5507 23.3333 28.3986 22.9821 29.0237 22.357C29.6488 21.7319 30 20.8841 30 20V11.6667H1.66667V20ZM5 18.3333H11.6667V20H5V18.3333ZM15 18.3333H20V20H15V18.3333ZM1.66667 8.33333V10H30V8.33333H1.66667Z" fill="#124F48"/>
<path d="M5 0H26.6667C27.9927 0 29.2645 0.526784 30.2022 1.46447C31.1399 2.40215 31.6667 3.67392 31.6667 5V20C31.6667 21.3261 31.1399 22.5979 30.2022 23.5355C29.2645 24.4732 27.9927 25 26.6667 25H5C3.67392 25 2.40215 24.4732 1.46447 23.5355C0.526784 22.5979 0 21.3261 0 20V5C0 3.67392 0.526784 2.40215 1.46447 1.46447C2.40215 0.526784 3.67392 0 5 0ZM5 1.66667C4.11594 1.66667 3.2681 2.01786 2.64298 2.64298C2.01786 3.2681 1.66667 4.11594 1.66667 5V6.66667H30V5C30 4.11594 29.6488 3.2681 29.0237 2.64298C28.3986 2.01786 27.5507 1.66667 26.6667 1.66667H5ZM1.66667 20C1.66667 20.8841 2.01786 21.7319 2.64298 22.357C3.2681 22.9821 4.11594 23.3333 5 23.3333H26.6667C27.5507 23.3333 28.3986 22.9821 29.0237 22.357C29.6488 21.7319 30 20.8841 30 20V11.6667H1.66667V20ZM5 18.3333H11.6667V20H5V18.3333ZM15 18.3333H20V20H15V18.3333ZM1.66667 8.33333V10H30V8.33333H1.66667Z" stroke="black"/>
</svg>
