<svg xmlns="http://www.w3.org/2000/svg" width="48" height="48" viewBox="0 0 48 48" fill="none">
  <path fill-rule="evenodd" clip-rule="evenodd" d="M20.65 8.634C21.502 5.122 26.498 5.122 27.35 8.634C27.6093 9.70412 28.3641 10.586 29.3813 11.0075C30.3985 11.4289 31.5559 11.3392 32.496 10.766C35.582 8.886 39.116 12.418 37.236 15.506C36.6636 16.4457 36.5741 17.6022 36.9951 18.6188C37.416 19.6354 38.2969 20.39 39.366 20.65C42.878 21.502 42.878 26.498 39.366 27.35C38.2959 27.6093 37.414 28.3641 36.9925 29.3813C36.5711 30.3985 36.6608 31.5559 37.234 32.496C39.114 35.582 35.582 39.116 32.494 37.236C31.5543 36.6636 30.3978 36.5741 29.3812 36.9951C28.3646 37.416 27.61 38.2969 27.35 39.366C26.498 42.878 21.502 42.878 20.65 39.366C20.3907 38.2959 19.6359 37.414 18.6187 36.9925C17.6015 36.5711 16.4441 36.6608 15.504 37.234C12.418 39.114 8.884 35.582 10.764 32.494C11.3364 31.5543 11.4259 30.3978 11.0049 29.3812C10.584 28.3646 9.70314 27.61 8.634 27.35C5.122 26.498 5.122 21.502 8.634 20.65C9.70412 20.3907 10.586 19.6359 11.0075 18.6187C11.4289 17.6015 11.3392 16.4441 10.766 15.504C8.886 12.418 12.418 8.884 15.506 10.764C17.506 11.98 20.098 10.904 20.65 8.634Z" stroke="#1D71EE" stroke-width="3" stroke-linecap="round" stroke-linejoin="round"/>
  <circle cx="24" cy="24" r="6" stroke="#1D71EE" stroke-width="3" stroke-linecap="round" stroke-linejoin="round"/>
</svg>