<svg xmlns="http://www.w3.org/2000/svg" width="48" height="48" viewBox="0 0 48 48" fill="none">
  <path d="M20 6.39997C11.34 8.40755 5.44251 16.4364 6.11688 25.3004C6.79125 34.1644 13.8355 41.2087 22.6995 41.8831C31.5635 42.5575 39.5924 36.6599 41.6 28C41.6 26.8954 40.7046 26 39.6 26H32C30.9945 29.8659 27.3496 32.4449 23.3694 32.1065C19.3891 31.7681 16.2319 28.6108 15.8935 24.6306C15.5551 20.6504 18.134 17.0054 22 16V7.99997C21.9498 7.52136 21.71 7.08277 21.3343 6.78214C20.9585 6.48151 20.478 6.34388 20 6.39997" stroke="#1D71EE" stroke-width="3" stroke-linecap="round" stroke-linejoin="round"/>
  <path d="M30 7C35.1436 8.81113 39.1889 12.8564 41 18H32C31.3868 17.2819 30.7181 16.6132 30 16V7" stroke="#1D71EE" stroke-width="3" stroke-linecap="round" stroke-linejoin="round"/>
</svg>