<svg width="50" height="50" viewBox="0 0 50 50" fill="none" xmlns="http://www.w3.org/2000/svg">
<rect x="50" y="50" width="50" height="50" transform="rotate(-180 50 50)" fill="#333333" fill-opacity="0.39"/>
<path d="M15.0577 25.9677L32.3805 25.9677L28.6699 29.3463C28.2558 29.7234 28.2542 30.3361 28.6663 30.7149C29.0784 31.0938 29.7481 31.0952 30.1622 30.7182L35.6888 25.6859L35.6898 25.685C36.1027 25.308 36.1041 24.6933 35.6899 24.315L35.6889 24.3141L30.1623 19.2818C29.7483 18.9049 29.0786 18.9062 28.6664 19.2851C28.2543 19.6639 28.2559 20.2766 28.67 20.6537L32.3805 24.0323L15.0577 24.0323C14.4735 24.0323 14 24.4655 14 25C14 25.5345 14.4735 25.9677 15.0577 25.9677Z" fill="white"/>
</svg>
